<?xml version="1.0" encoding="utf-8"?>
<svg viewBox="0 0 62 62" xmlns="http://www.w3.org/2000/svg">
  <defs>
    <filter id="Rectangle_339" x="0" y="0" width="62" height="62" filterUnits="userSpaceOnUse">
      <feOffset dy="3" input="SourceAlpha"/>
      <feGaussianBlur stdDeviation="3" result="blur"/>
      <feFlood flood-opacity="0.161"/>
      <feComposite operator="in" in2="blur"/>
      <feComposite in="SourceGraphic"/>
    </filter>
  </defs>
  <g filter="url(#Rectangle_339)">
    <g id="Rectangle_339-2" data-name="Rectangle 339" transform="translate(9 6)" fill="#074c85" stroke="#074c85" stroke-width="1">
      <rect width="44" height="44" rx="12" stroke="none"/>
      <rect x="0.5" y="0.5" width="43" height="43" rx="11.5" fill="none"/>
    </g>
  </g>
  <g id="Icon_feather-home" data-name="Icon feather-home" transform="matrix(1, 0, 0, 1, 17.73, 18.813)">
    <path id="Path_808" data-name="Path 808" d="M241.513,213.477l-6.5,5.711a.341.341,0,0,0-.025.023,1.11,1.11,0,0,0,.783,1.9,1.125,1.125,0,0,0,.809-.351l5.711-6.5a.555.555,0,0,0-.783-.783Z" transform="translate(-222.461 -206.681)" fill="#fff"/>
    <path id="Path_809" data-name="Path 809" d="M13.316,85.333A13.313,13.313,0,0,0,.633,102.7a.555.555,0,0,0,.529.386H25.47A.555.555,0,0,0,26,102.7,13.313,13.313,0,0,0,13.316,85.333ZM23.857,99.2h1.626a12.152,12.152,0,0,1-.425,2.774H1.573A12.153,12.153,0,0,1,1.148,99.2H2.774a.555.555,0,1,0,0-1.11H1.138a12.111,12.111,0,0,1,1.35-5.056l1.421.821a.555.555,0,0,0,.555-.961l-1.418-.819a12.287,12.287,0,0,1,3.7-3.7L7.565,89.8a.554.554,0,1,0,.96-.555L7.7,87.821a12.111,12.111,0,0,1,5.057-1.35v1.636a.555.555,0,0,0,1.11,0V86.471a12.111,12.111,0,0,1,5.057,1.35l-.821,1.422a.554.554,0,1,0,.96.555l.819-1.419a12.287,12.287,0,0,1,3.7,3.7l-1.418.819a.555.555,0,0,0,.555.961l1.421-.821a12.111,12.111,0,0,1,1.35,5.056H23.857a.555.555,0,1,0,0,1.11Z" transform="translate(0 -85.333)" fill="#fff"/>
  </g>
</svg>