<?xml version="1.0" encoding="utf-8"?>
<svg viewBox="0 0 62 62" xmlns="http://www.w3.org/2000/svg">
  <defs>
    <filter id="Rectangle_339" x="0" y="0" width="62" height="62" filterUnits="userSpaceOnUse">
      <feOffset dy="3" input="SourceAlpha"/>
      <feGaussianBlur stdDeviation="3" result="blur"/>
      <feFlood flood-opacity="0.161"/>
      <feComposite operator="in" in2="blur"/>
      <feComposite in="SourceGraphic"/>
    </filter>
  </defs>
  <g filter="url(#Rectangle_339)">
    <g id="Rectangle_339-2" data-name="Rectangle 339" transform="translate(9 6)" fill="#fff" stroke="#074c85" stroke-width="1">
      <rect width="44" height="44" rx="12" stroke="none"/>
      <rect x="0.5" y="0.5" width="43" height="43" rx="11.5" fill="none"/>
    </g>
  </g>
  <g id="Icon_feather-home" data-name="Icon feather-home" transform="matrix(1, 0, 0, 1, 20.73, 17.813)">
    <path id="tool_1_" data-name="tool (1)" d="M14.7,6.3a1,1,0,0,0,0,1.4l1.6,1.6a1,1,0,0,0,1.4,0l3.77-3.77a6,6,0,0,1-7.94,7.94L6.62,20.38a2.121,2.121,0,0,1-3-3l6.91-6.91a6,6,0,0,1,7.94-7.94L14.71,6.29Z" transform="translate(-2.34 -1.392)" fill="none" stroke="#074c85" stroke-linecap="round" stroke-linejoin="round" stroke-width="1"/>
  </g>
</svg>