<svg xmlns="http://www.w3.org/2000/svg" width="787.834" height="950.034" viewBox="0 0 787.834 950.034">
  <g id="undraw_cancel_re_ctke" transform="translate(0)">
    <circle id="Ellipse_75" data-name="Ellipse 75" cx="366.008" cy="366.008" r="366.008" transform="translate(55.818)" fill="#f2f2f2"/>
    <path id="Path_3534" data-name="Path 3534" d="M1078.821,223.14H408.344a2.6,2.6,0,1,1,0-5.207h670.477a2.6,2.6,0,1,1,0,5.207Z" transform="translate(-360.541 -59.461)" fill="#cacaca"/>
    <ellipse id="Ellipse_76" data-name="Ellipse 76" cx="15.256" cy="15.596" rx="15.256" ry="15.596" transform="translate(77.108 113.987)" fill="#3f3d56"/>
    <ellipse id="Ellipse_77" data-name="Ellipse 77" cx="15.256" cy="15.596" rx="15.256" ry="15.596" transform="translate(129.813 113.987)" fill="#3f3d56"/>
    <ellipse id="Ellipse_78" data-name="Ellipse 78" cx="15.256" cy="15.596" rx="15.256" ry="15.596" transform="translate(182.516 113.987)" fill="#3f3d56"/>
    <path id="Path_3535" data-name="Path 3535" d="M863.144,189.744H825.706a2.835,2.835,0,1,0,0,5.67h37.438a2.835,2.835,0,1,0,0-5.67Z" transform="translate(-176.596 -71.892)" fill="#3f3d56"/>
    <path id="Path_3536" data-name="Path 3536" d="M863.144,197.129H825.706a2.835,2.835,0,1,0,0,5.67h37.438a2.835,2.835,0,1,0,0-5.67Z" transform="translate(-176.596 -68.635)" fill="#3f3d56"/>
    <path id="Path_3537" data-name="Path 3537" d="M863.144,204.5H825.706a2.835,2.835,0,1,0,0,5.67h37.438a2.835,2.835,0,1,0,0-5.67Z" transform="translate(-176.596 -65.383)" fill="#3f3d56"/>
    <rect id="Rectangle_387" data-name="Rectangle 387" width="235.76" height="50.415" rx="17.493" transform="translate(221.957 251.412)" fill="#fff"/>
    <rect id="Rectangle_388" data-name="Rectangle 388" width="475.23" height="50.415" rx="17.493" transform="translate(102.223 352.24)" fill="#fff"/>
    <rect id="Rectangle_389" data-name="Rectangle 389" width="475.23" height="50.415" rx="17.493" transform="translate(102.223 453.069)" fill="#fff"/>
    <path id="Path_3538" data-name="Path 3538" d="M497.4,801.9l-1-.1a116.04,116.04,0,0,1-83.848-49.884,112.586,112.586,0,0,1-12.7-25.223l-.3-.85.9-.073c10.731-.864,21.755-2.684,26.652-3.551l-31.579-10.7-.2-.937a22.007,22.007,0,0,1,9.263-22.856,22.384,22.384,0,0,1,25.079-.424c3.438,2.2,7.034,4.371,10.512,6.475,11.95,7.228,24.308,14.7,33.572,24.931a70.14,70.14,0,0,1,16.759,58.007Z" transform="translate(-365.346 145.919)" fill="#f2f2f2"/>
    <path id="Path_3539" data-name="Path 3539" d="M171.305,665.233h15.563l7.405-60.034H171.3Z" transform="translate(75.54 266.879)" fill="#a0616a"/>
    <path id="Path_3540" data-name="Path 3540" d="M545.3,774l47.861,0V773.4a18.63,18.63,0,0,0-18.628-18.629h0l-8.742-6.633-16.311,6.634H545.3Z" transform="translate(-299 174.346)" fill="#2f2e41"/>
    <path id="Path_3541" data-name="Path 3541" d="M84.745,631.641l12.449,9.339L139.145,597.4l-18.375-13.784Z" transform="translate(37.371 257.363)" fill="#a0616a"/>
    <path id="Path_3542" data-name="Path 3542" d="M452.051,738.4l38.285,28.721.363-.484a18.63,18.63,0,0,0-3.722-26.081h0L483.964,730l-17.029-4.483-3.342-2.507Z" transform="translate(-340.119 163.267)" fill="#2f2e41"/>
    <path id="Path_3543" data-name="Path 3543" d="M505.813,574.069s.859,23.436,1.943,42.231c.178,3.082-7.044,6.431-6.857,9.784.124,2.225,1.481,4.388,1.608,6.707.133,2.448-1.741,4.615-1.608,7.147.13,2.474,2.268,5.31,2.4,7.842,1.388,27.248,6.419,59.867,1.381,68.986-2.483,4.494-34.13,66.753-34.13,66.753s17.633,26.449,22.671,17.633c6.654-11.645,57.936-66.123,57.936-76.526s11.864-88.264,11.864-88.264l8.273,46.085,3.794,9.131-1.192,5.36,2.451,7.234.132,7.159,2.387,13.295s-7.179,103.58-3.136,106.464,23.691,8.1,26.008,2.9,17.307-108.1,17.307-108.1,2.418-47.155,5.038-90.985c.151-2.544,1.94-5.617,2.078-8.124.164-2.909-.97-6.688-.819-9.509.164-3.237,1.6-5.516,1.738-8.615,1.071-23.943-4.939-53.1-6.853-55.97-5.781-8.665-10.983-15.592-10.983-15.592s-77.864-25.583-98.671.413Z" transform="translate(-331.962 76.32)" fill="#2f2e41"/>
    <path id="Path_3544" data-name="Path 3544" d="M572.351,393.95l-30.867-6.173-14.4,19.549h0c-26.878,26.428-27.283,49.753-22.485,87.141v52.474l-3.473,35.177s-12.294,25.715.386,31.7,95.967,5.477,103.919,3.087,1.059-5.324-1.029-16.462c-3.922-20.922-1.3-10.83-1.029-17.491,3.87-95.556-5.144-134.786-6.06-145.1l-15.7-28.472Z" transform="translate(-320.84 15.437)" fill="#044c98"/>
    <path id="Path_3545" data-name="Path 3545" d="M687.941,451.182a12.48,12.48,0,0,1-18.709,4.017l-66.66,42.326.192-23.045L667.519,436.9a12.547,12.547,0,0,1,20.422,14.28Z" transform="translate(-273.743 35.25)" fill="#a0616a"/>
    <path id="Path_3546" data-name="Path 3546" d="M541.094,410.861l-7.589-.8a20.081,20.081,0,0,0-18.127,7.912,19.567,19.567,0,0,0-3.422,7.193l0,.021a20.062,20.062,0,0,0,7.577,20.867l26.212,19.325c18.395,24.855,52.965,41.346,93.517,54.743l63.032-39.147-22.295-27L636.76,477.139l-64.265-49.748-.037-.03L548,411.6Z" transform="translate(-313.954 25.214)" fill="#044c98"/>
    <circle id="Ellipse_79" data-name="Ellipse 79" cx="35.995" cy="35.995" r="35.995" transform="translate(205.086 322.239)" fill="#a0616a"/>
    <path id="Path_3547" data-name="Path 3547" d="M542.647,381.548c-.29.01-.581.016-.872.024-.124.323-.258.642-.413.956Z" transform="translate(-300.734 12.69)" fill="#2f2e41"/>
    <path id="Path_3548" data-name="Path 3548" d="M549.109,357.256a6.372,6.372,0,0,0,.258,1.044A4.909,4.909,0,0,0,549.109,357.256Z" transform="translate(-297.318 1.978)" fill="#2f2e41"/>
    <path id="Path_3549" data-name="Path 3549" d="M593.458,335.161c-1.482,4.6-2.8-1.235-7.678-.185-5.863,1.263-12.686.829-17.488-2.765a27.093,27.093,0,0,0-24.818-3.783c-8.216,2.907-21.98,4.956-24.121,13.4-.744,2.936-1.04,6.123-2.843,8.557-1.577,2.128-4.066,3.341-6.147,4.979-7.028,5.53-1.656,21.24,1.67,29.541s10.957,14.348,19.346,17.446c8.117,3,16.926,3.526,25.585,3.29,1.506-3.906.855-8.417-.387-12.466-1.345-4.383-3.337-8.614-3.9-13.165s.672-9.72,4.488-12.263c3.507-2.337,9.215-.913,10.549,2.865-.779-4.724,4.007-9.3,8.941-10.1,5.3-.863,10.6,1.049,15.878,2S595.941,341.229,593.458,335.161Z" transform="translate(-315.923 -11.381)" fill="#2f2e41"/>
    <circle id="Ellipse_80" data-name="Ellipse 80" cx="120.008" cy="120.008" r="120.008" transform="translate(355.648 259.513)" fill="#007bff"/>
    <path id="Path_3550" data-name="Path 3550" d="M718.16,374.565l-31.524,31.524-31.525-31.524a13.067,13.067,0,0,0-18.479,18.479l31.524,31.524-31.524,31.524a13.067,13.067,0,1,0,18.479,18.479l31.524-31.524,31.525,31.524a13.067,13.067,0,1,0,18.479-18.479l-31.524-31.524,31.524-31.524a13.067,13.067,0,0,0-18.479-18.479Z" transform="translate(-210.978 -45.047)" fill="#fff"/>
    <path id="Path_3551" data-name="Path 3551" d="M648.492,353.355a12.48,12.48,0,0,1-10.053,16.282l-15.607,77.4-16.5-16.093,17.714-72.744a12.547,12.547,0,0,1,24.443-4.851Z" transform="translate(-272.083 -3.567)" fill="#a0616a"/>
    <path id="Path_3552" data-name="Path 3552" d="M524.461,441.722l-5.834,4.92a20.081,20.081,0,0,0-6.84,18.558,19.569,19.569,0,0,0,2.821,7.449l.012.018a20.062,20.062,0,0,0,20.3,8.979l32.092-5.536c30.671,3.934,66.5-9.6,104.245-29.584l15.389-72.586-34.919-2.605-13.211,47.239-80.389,11.933-.047.006-28.305,6.741Z" transform="translate(-313.892 8.186)" fill="#044c98"/>
    <path id="Path_3553" data-name="Path 3553" d="M767.675,768l-391.586.443a1.716,1.716,0,1,1,0-3.432l391.586-.443a1.716,1.716,0,0,1,0,3.431Z" transform="translate(-374.373 181.593)" fill="#cacaca"/>
  </g>
</svg>
