<svg xmlns="http://www.w3.org/2000/svg" width="971.991" height="639.896" viewBox="0 0 971.991 639.896">
  <g id="Group_721" data-name="Group 721" transform="translate(-796 -220.051)">
    <g id="undraw_Profile_data_re_v81r" transform="translate(795.989 220.051)">
      <path id="Path_3059" data-name="Path 3059" d="M748.372,409.458q-1.68,8.835-4.03,17.49c-.17.67-.36,1.33-.55,2H722a7.008,7.008,0,0,0-7,7v62.12c-.66,1.23-1.33,2.45-2,3.67-3.46,6.3-7.06,12.53-10.74,18.68a710.143,710.143,0,0,1-243.69,243.55l5.92-13.36-6.52-.45c-47.25-3.23-94.66-6.81-140.8-17.43-48.27-11.11-95.49-30.38-133.32-62.33s-65.58-77.6-69.43-126.98a144.883,144.883,0,0,1,5.07-50.41c8.87-31.52,28.25-59.88,56.21-76.66,43.92-26.35,101.21-20.98,147.51.94s83.97,58.18,120.76,93.82a466.421,466.421,0,0,0-150.91-157.52c-20.56-13.16-42.38-24.88-59.86-41.93s-30.36-40.93-27.27-65.14c3.51-27.46,26-48.3,48.53-64.37,9-6.42,18.29-12.51,27.87-18.11,27.03-15.84,56.27-27.79,87.15-32.22,41.83-6.01,87.01,3.11,119.08,30.63,36.13,31.01,50.95,81.02,49.54,128.86,22.26-32.36,56.59-57.13,95.36-58.18,40.25-1.08,78.51,24.35,98.67,59.21S755.9,369.908,748.372,409.458Z" transform="translate(-113.998 -130.052)" fill="#e6e6e6"/>
      <path id="Path_3075" data-name="Path 3075" d="M1077,426.948H722a9.014,9.014,0,0,0-9,9v228a9.014,9.014,0,0,0,9,9h355a9.013,9.013,0,0,0,9-9v-228A9.013,9.013,0,0,0,1077,426.948Zm7,237a7.008,7.008,0,0,1-7,7H722a7.008,7.008,0,0,1-7-7v-228a7.008,7.008,0,0,1,7-7h355a7.008,7.008,0,0,1,7,7Z" transform="translate(-113.998 -130.052)" fill="#3f3d56"/>
      <path id="Path_3060" data-name="Path 3060" d="M493.714,543.853c23.575-2.076,45.352-4.5,68.2-10.966,22.143-6.266,43.451-16.755,59.214-33.882,16.955-18.422,26.107-42.345,32.564-66.161,3.6-13.278,6.559-26.742,9.35-40.21q4.543-21.92,8.073-44.033,7.027-44.018,10.033-88.554.363-5.406.666-10.816c.125-2.225-3.335-2.218-3.46,0q-2.47,43.9-8.885,87.457c-4.221,28.53-9.621,56.936-16.472,84.955-5.8,23.736-13.32,47.843-28.206,67.6-13.959,18.529-34.122,30.638-55.892,37.877-22.153,7.367-45.51,10.308-68.659,12.5-2.84.268-3.681.524-6.522.774-2.2.194-2.221,3.656,0,3.46Z" transform="translate(-113.998 -130.052)" fill="#fff"/>
      <path id="Path_3061" data-name="Path 3061" d="M121.489,495.561a375.01,375.01,0,0,1,87.7,15.454,379.01,379.01,0,0,1,81.676,35.552,369.763,369.763,0,0,1,68.78,51.786,378.869,378.869,0,0,1,53.727,64.062,375.1,375.1,0,0,1,38.447,74.532q1.827,4.811,3.52,9.67c.729,2.089,4.073,1.19,3.336-.92a378.645,378.645,0,0,0-36.729-76.387,383.571,383.571,0,0,0-52.7-66.391,373.963,373.963,0,0,0-67.28-53.692,381.916,381.916,0,0,0-169.574-56.376q-5.446-.456-10.9-.751c-2.225-.122-2.218,3.339,0,3.46Z" transform="translate(-113.998 -130.052)" fill="#fff"/>
      <path id="Path_3062" data-name="Path 3062" d="M283.267,168.094a203.8,203.8,0,0,1,53.5,26.144A251.247,251.247,0,0,1,382.44,234.8a336.249,336.249,0,0,1,37.82,52.121,444.663,444.663,0,0,1,30.07,61.135,553.177,553.177,0,0,1,21.9,66.5,621.488,621.488,0,0,1,14,69.475,620.231,620.231,0,0,1,6.027,69.869,553.487,553.487,0,0,1-1.979,67.024,426.915,426.915,0,0,1-10.063,61.706,291.561,291.561,0,0,1-18.155,53.357q-2.7,5.841-5.722,11.521c-1.047,1.965,1.939,3.715,2.988,1.746a266.705,266.705,0,0,0,20.434-51.429,398.286,398.286,0,0,0,12.186-60.5,526.379,526.379,0,0,0,4.026-66.89,613.726,613.726,0,0,0-4.188-70.288,633.121,633.121,0,0,0-12.19-70.232,573.108,573.108,0,0,0-20.381-68.4,475.92,475.92,0,0,0-28.342-62.945,364.9,364.9,0,0,0-36.341-54.851,270.583,270.583,0,0,0-44.4-44,214.686,214.686,0,0,0-52.065-30.032q-6.846-2.725-13.882-4.929c-2.129-.67-3.04,2.669-.92,3.336Z" transform="translate(-113.998 -130.052)" fill="#fff"/>
      <ellipse id="Ellipse_303" data-name="Ellipse 303" cx="247.5" cy="10" rx="247.5" ry="10" transform="translate(127.004 619.896)" fill="#e6e6e6"/>
      <path id="Path_3063" data-name="Path 3063" d="M707.171,446.737a10.524,10.524,0,0,0-.239,1.64l-42.958,24.782-10.441-6.011L642.4,481.721l22.337,15.921,49.008-38.663a10.5,10.5,0,1,0-6.576-12.241Z" transform="translate(-113.998 -130.052)" fill="#ffb8b8"/>
      <path id="Path_3064" data-name="Path 3064" d="M609.338,461.942l33.824,24.107,15.128-18.967L625.41,440.7a13.324,13.324,0,0,0-19.189,2.659h0a13.324,13.324,0,0,0,3.117,18.584Z" transform="translate(-113.998 -130.052)" fill="#6c63ff"/>
      <path id="Path_3065" data-name="Path 3065" d="M425.519,606.957l11.86,3.107,17.63-44.264-17.5-4.587Z" fill="#ffb8b8"/>
      <path id="Path_3066" data-name="Path 3066" d="M535.348,737.595h38.531v14.887H550.235a14.887,14.887,0,0,1-14.887-14.887h0Z" transform="matrix(-0.967, -0.253, 0.253, -0.967, 788.271, 1476.272)" fill="#2f2e41"/>
      <path id="Path_3067" data-name="Path 3067" d="M530.942,615.4l12.069-2.156-2.572-47.577-17.812,3.182Z" fill="#ffb8b8"/>
      <path id="Path_3068" data-name="Path 3068" d="M642.747,738.963h38.531V753.85H657.634a14.887,14.887,0,0,1-14.887-14.887h0Z" transform="translate(1330.963 1234.719) rotate(169.872)" fill="#2f2e41"/>
      <path id="Path_3069" data-name="Path 3069" d="M621.175,395.561c2.974.724,5.393,3.754,6.846,7.265a50.678,50.678,0,0,1,2.7,11.414c1.142,7.257,2.238,15.113-.123,21.834-2.768,7.877-10.142,12-16.539,10.064s-11.484-9.217-13.222-17.594a42.609,42.609,0,0,1,2.924-25.084c1.817-4.137,4.322-7.954,7.65-9.82a7.55,7.55,0,0,1,10.068,2.1" transform="translate(-113.998 -130.052)" fill="#2f2e41"/>
      <path id="Path_3070" data-name="Path 3070" d="M638,526.948l22.977,205.794L642,739.948l-35-138L558.274,728.126,537.5,729.28S566,532.948,587.124,528.486Z" transform="translate(-113.998 -130.052)" fill="#2f2e41"/>
      <circle id="Ellipse_304" data-name="Ellipse 304" cx="24.561" cy="24.561" r="24.561" transform="translate(480.144 242.65)" fill="#ffb8b8"/>
      <path id="Path_3071" data-name="Path 3071" d="M629.244,432.128,602.7,428.666s-17.31,20.772-16.156,56.546-2.885,46.737-2.885,46.737l55.341,1C631,521.948,664.464,458.771,629.244,432.128Z" transform="translate(-113.998 -130.052)" fill="#6c63ff"/>
      <path id="Path_3072" data-name="Path 3072" d="M643.5,537.948a10.522,10.522,0,0,0-1.651.142L607.9,501.944l3.462-11.54-16.733-7.5-10.387,25.387L633.09,547.15a10.5,10.5,0,1,0,10.412-9.2Z" transform="translate(-113.998 -130.052)" fill="#ffb8b8"/>
      <path id="Path_3073" data-name="Path 3073" d="M606.312,446.191l-15.727,38.443,21.926,10.386,18.158-38.045a13.324,13.324,0,0,0-6.98-18.071h0a13.324,13.324,0,0,0-17.377,7.287Z" transform="translate(-113.998 -130.052)" fill="#6c63ff"/>
      <path id="Path_3074" data-name="Path 3074" d="M612.278,419.592c3.848-2.22,4.259-7.576,3.736-11.988s-1.4-9.331,1.2-12.938c3.1-4.306,9.314-4.391,14.615-4.532s11.756-1.693,13.129-6.814c.908-3.384-1.034-7.016-3.82-9.14s-6.272-3.064-9.66-3.956c-7.579-2-15.406-4.01-23.166-2.913a29.535,29.535,0,0,0-25.163,32.98c1.256,9.851,3.078,14.153,1.882,18.5C582.8,426.878,573.2,432.075,573,440.464c-.15,6.562,5.647,11.624,11.3,14.956,4.486,2.643,9.327,4.885,14.5,5.5s10.735-.566,14.586-4.07c4.967-4.519,6.2-12.069,4.771-18.631s-5.078-12.39-8.691-18.049" transform="translate(-113.998 -130.052)" fill="#2f2e41"/>
      <path id="Path_3076" data-name="Path 3076" d="M797.777,540.443h-56a8.51,8.51,0,0,1-8.5-8.5v-56a8.51,8.51,0,0,1,8.5-8.5h56a8.51,8.51,0,0,1,8.5,8.5v56A8.51,8.51,0,0,1,797.777,540.443Z" transform="translate(-113.998 -130.052)" fill="#6c63ff"/>
      <path id="Path_3077" data-name="Path 3077" d="M1058.51,599.953h-318a6.5,6.5,0,1,1,0-13h318a6.5,6.5,0,0,1,0,13Z" transform="translate(-113.998 -130.052)" fill="#ccc"/>
      <path id="Path_3078" data-name="Path 3078" d="M1058.73,568.453h-318a6.5,6.5,0,0,1,0-13h318a6.5,6.5,0,1,1,0,13Z" transform="translate(-113.998 -130.052)" fill="#ccc"/>
      <path id="Path_3079" data-name="Path 3079" d="M901.727,525.443h-47a6.5,6.5,0,0,1,0-13h47a6.5,6.5,0,1,1,0,13Z" transform="translate(-113.998 -130.052)" fill="#ccc"/>
      <path id="Path_3080" data-name="Path 3080" d="M1058.73,493.453h-204a6.5,6.5,0,0,1,0-13h204a6.5,6.5,0,1,1,0,13Z" transform="translate(-113.998 -130.052)" fill="#ccc"/>
      <path id="Path_3081" data-name="Path 3081" d="M893.727,631.953H740.513a6.5,6.5,0,0,1,0-13H893.727a6.5,6.5,0,0,1,0,13Z" transform="translate(-113.998 -130.052)" fill="#ccc"/>
    </g>
    <path id="Path_3095" data-name="Path 3095" d="M397.658,552.54a9.342,9.342,0,0,1,3.915-13.779l-2.862-33.074,15.167,8.22.393,30.147a9.392,9.392,0,0,1-16.612,8.486Z" transform="translate(769.069 105.699)" fill="#9f616a"/>
    <path id="Path_3096" data-name="Path 3096" d="M399.384,524.213l-.123-.312-16.733-42.272L379.873,401.5l.446-.032a24.587,24.587,0,0,1,26.31,23.33l2.454,43.082,6.957,55.408Z" transform="translate(770.217 113.104)" fill="#e5e5e5"/>
    <path id="Path_3097" data-name="Path 3097" d="M127.8,574.669l9.619,6.1,28.1-34.2-14.2-9Z" transform="translate(925.535 239.316)" fill="#9f616a"/>
    <path id="Path_3098" data-name="Path 3098" d="M284.714,718.718l18.944,12.01h0a14.3,14.3,0,0,1,4.418,19.726l-.249.392-31.016-19.663Z" transform="translate(768.159 90.574)" fill="#2f2e41"/>
    <path id="Path_3099" data-name="Path 3099" d="M225.692,591.793h11.39l5.418-43.931H225.69Z" transform="translate(927.96 238.586)" fill="#9f616a"/>
    <path id="Path_3100" data-name="Path 3100" d="M380.581,737.415h22.431a14.3,14.3,0,0,1,14.294,14.293v.465H380.582Z" transform="translate(770.166 89.246)" fill="#2f2e41"/>
    <path id="Path_3101" data-name="Path 3101" d="M349.019,542.6l26.813,161.277s-5.275,13.187,2.637,14.945,25.494-1.758,25.494-1.758,5.275-13.187-2.637-14.945L386.381,533.6Z" transform="translate(772.407 103.717)" fill="#2f2e41"/>
    <path id="Path_3102" data-name="Path 3102" d="M366.374,546.178,346.3,621.589l-51.176,68.765s-19,1.758-8.55,11.429,15.2,10.55,15.2,10.55,16.15-1.758,15.2-8.791l62.917-68.533,29.231-91.466Z" transform="translate(767.688 103.012)" fill="#2f2e41"/>
    <path id="Path_3103" data-name="Path 3103" d="M347.972,542.716l-4.486-25.6c-6.756-7.061,6.009-24.518,7.432-26.414l-.835-10.856a3.258,3.258,0,0,1-1.851-1.008c-4.191-4.274-3.909-21.136-3.9-21.852l-4.624-48.108,11.506-6.713,29.1-.938,14.21,12.315,13.687,125.742-.488.027Z" transform="translate(773.068 113.115)" fill="#6c63ff"/>
    <path id="Path_3104" data-name="Path 3104" d="M358,559.914a9.342,9.342,0,0,1-2.27-14.144L339.174,517l17.219,1.047,13.086,27.162A9.392,9.392,0,0,1,358,559.914Z" transform="translate(769.16 104.896)" fill="#9f616a"/>
    <path id="Path_3105" data-name="Path 3105" d="M342.383,524.921,328.1,491.808l-2.387-67.642a12.168,12.168,0,0,1,6.138-11.02l16.479-10.07,3.555,71.11,10.634,42.5Z" transform="translate(769.109 112.984)" fill="#6c63ff"/>
    <ellipse id="Ellipse_306" data-name="Ellipse 306" cx="20.446" cy="20.446" rx="20.446" ry="20.446" transform="translate(1119.101 467.031)" fill="#9f616a"/>
    <path id="Path_3106" data-name="Path 3106" d="M376.761,339.72c-20.591-5.938-26.436,11.129-26.436,11.129-9.925,6.585-3.711,14.841-3.711,14.841-2.5.556,2.5,15.212,4.173,14.841.891-.2,3.182,2.537,5.125,5.13a10.287,10.287,0,0,1,1.985.191l-3.77-13.947s12.707-1.947,16.6-8.068c3.728-5.857,16-7.706,19.491-3.794a8.83,8.83,0,0,1,1.245-3.162,6.318,6.318,0,0,1,1.831-1.836C390.21,341.923,376.761,339.72,376.761,339.72Z" transform="translate(770.334 117.57)" fill="#2f2e41"/>
    <path id="Path_3107" data-name="Path 3107" d="M196.137,305.381,195,346.082l14.16,29.845L196.137,304.3" transform="translate(926.343 255.879)" opacity="0.2"/>
    <circle id="Ellipse_307" data-name="Ellipse 307" cx="47.371" cy="47.371" r="47.371" transform="translate(1656.481 458.506)" fill="#6c63ff"/>
    <path id="Path_3118" data-name="Path 3118" d="M765.339,149.875l-14.178-18.231,8.245-6.413,6.713,8.632L788.8,109.922l7.584,7.185Z" transform="translate(934 376)" fill="#fff"/>
  </g>
</svg>
