<svg xmlns="http://www.w3.org/2000/svg" xmlns:xlink="http://www.w3.org/1999/xlink" width="879.285" height="606.994" viewBox="0 0 879.285 606.994">
  <defs>
    <linearGradient id="linear-gradient" y1="0.5" x2="1" y2="0.5" gradientUnits="objectBoundingBox">
      <stop offset="0" stop-color="gray" stop-opacity="0.251"/>
      <stop offset="0.54" stop-color="gray" stop-opacity="0.122"/>
      <stop offset="1" stop-color="gray" stop-opacity="0.102"/>
    </linearGradient>
  </defs>
  <g id="undraw_authentication_fsn5" transform="translate(0 0.006)">
    <path id="Path_2824" data-name="Path 2824" d="M514.258,130.1c-56.361.075-110.611-15.9-162.5-33.651S248.378,58.829,193.065,50.407c-35.573-5.414-76.025-4.916-103.832,14.741-26.767,18.91-34.518,50.208-38.257,79.124-2.812,21.753-4.109,44.583,6.424,64.481,7.314,13.813,19.83,25.2,28.652,38.363,30.793,45.8,12.275,104.3-17.651,151.16-14.032,21.986-30.469,43.06-41.077,66.306s-14.959,49.605-4.139,72.549c10.722,22.74,34.94,39.245,60.93,50.517,52.779,22.936,114.23,27.852,174.029,29.745,132.371,4.2,265-4.366,397.27-12.931,48.949-3.167,98.117-6.356,146.056-15.532,26.616-5.089,54.023-12.644,72.9-29.2,23.954-21.021,28.855-55.343,11.423-80.013-29.232-41.379-106.313-49.183-127.274-93.955-11.559-24.648-1.591-52.915,13.089-76.673,31.487-50.977,85.684-96.639,86.6-153.656.626-39.155-27.558-77.352-69.654-94.369-44.124-17.824-104.284-13.24-135.2,19.981C621.558,115.265,564.021,130.051,514.258,130.1Z" transform="translate(-16.91 -47.46)" fill="#197acf" opacity="0.1"/>
    <path id="Path_2825" data-name="Path 2825" d="M1003.42,691.735s-9.267-6.115-18.45-1.765c0,0,2.828,5.444,14.454,4.931Z" transform="translate(-255.062 -205.141)" fill="#197acf"/>
    <path id="Path_2826" data-name="Path 2826" d="M1009,693.25s2.82,10.737-4.253,18.043c0,0-4.252-4.426,0-15.268Z" transform="translate(-259.461 -206.332)" fill="#197acf"/>
    <path id="Path_2827" data-name="Path 2827" d="M1019.327,677.388s-.686-9.13-21.308-6.1c0,0-.1,5.888,7.14,8.678S1015.716,680.4,1019.327,677.388Z" transform="translate(-258.272 -200.778)" fill="#197acf"/>
    <path id="Path_2828" data-name="Path 2828" d="M1026.027,679.5s8.716,2.8.942,22.137c0,0-5.753-1.282-6.786-8.98S1022.212,682.3,1026.027,679.5Z" transform="translate(-263.675 -202.949)" fill="#197acf"/>
    <path id="Path_2829" data-name="Path 2829" d="M1036.94,657.883s1.184-15.027-19.89-13.489c0,0-1.508,13.572,16.173,17.1Z" transform="translate(-262.946 -194.285)" fill="#197acf"/>
    <path id="Path_2830" data-name="Path 2830" d="M1054.094,635.61s-2.888-17.033-23.954-11.958c0,0-.075,14.725,20.516,16.015Z" transform="translate(-266.174 -188.978)" fill="#197acf"/>
    <path id="Path_2831" data-name="Path 2831" d="M1067.021,612.464s-4.84-16.588-25.711-11.627c0,0,4.969,14.921,24.324,14.688Z" transform="translate(-268.922 -183.37)" fill="#197acf"/>
    <path id="Path_2832" data-name="Path 2832" d="M1080.112,589.59s-4.728-17.214-24.882-12.064c0,0,6.725,16.354,23.547,14.974Z" transform="translate(-272.346 -177.626)" fill="#197acf"/>
    <path id="Path_2833" data-name="Path 2833" d="M1089.174,566.692s-3.634-21.051-22.424-16.391c0,0,5.459,19.151,21.044,19.46Z" transform="translate(-275.18 -170.999)" fill="#197acf"/>
    <path id="Path_2834" data-name="Path 2834" d="M1096.614,540.906s-4.366-21.217-23.374-15.08c0,0,7.45,20.056,22.024,17.982Z" transform="translate(-276.777 -164.87)" fill="#197acf"/>
    <path id="Path_2835" data-name="Path 2835" d="M1101.945,515.188s-6.929-21.225-21.625-20.652c0,0,7.08,22.416,20.4,24.882Z" transform="translate(-278.518 -157.444)" fill="#197acf"/>
    <path id="Path_2836" data-name="Path 2836" d="M1105.718,490.522s-7.54-25.545-19.5-23.577c0,0,5.218,19.528,19.076,27.558Z" transform="translate(-279.97 -150.632)" fill="#197acf"/>
    <path id="Path_2837" data-name="Path 2837" d="M1107.669,462.777s-7.072-21.285-18.85-22.137c0,0,4.811,20.946,18.616,27.671Z" transform="translate(-280.61 -144.187)" fill="#197acf"/>
    <path id="Path_2838" data-name="Path 2838" d="M1110.3,436.53s-8.814-21.308-16.588-21.79c0,0,3.831,20.984,15.834,25.289Z" transform="translate(-281.812 -137.816)" fill="#197acf"/>
    <path id="Path_2839" data-name="Path 2839" d="M1112.69,410.943s-5.421-23.14-13.21-25.063c0,0,1.063,18.933,12.426,26.8Z" transform="translate(-283.232 -130.716)" fill="#197acf"/>
    <path id="Path_2840" data-name="Path 2840" d="M1116.982,380.063s-5.7-18.45-12.011-21.263c0,0,1.244,21.753,10.556,25.771Z" transform="translate(-284.583 -124.054)" fill="#197acf"/>
    <path id="Path_2841" data-name="Path 2841" d="M1122.582,355.387l1.146-32.527s-11.8,24.52-2,38.235Z" transform="translate(-287.748 -115.212)" fill="#197acf"/>
    <path id="Path_2842" data-name="Path 2842" d="M1134.712,314.908s8.5-23.751,10.556-25.078c0,0-16.663,15.412-15.034,35.234Z" transform="translate(-290.77 -107.087)" fill="#197acf"/>
    <path id="Path_2843" data-name="Path 2843" d="M1043.085,662.154s14.945-1.953,14.5,19.167c0,0-13.5,2.2-17.915-15.268Z" transform="translate(-268.518 -198.67)" fill="#197acf"/>
    <path id="Path_2844" data-name="Path 2844" d="M1061.726,639.06s17.267-.053,15.834,21.564c0,0-14.5,2.594-19.279-17.478Z" transform="translate(-273.097 -193)" fill="#197acf"/>
    <path id="Path_2845" data-name="Path 2845" d="M1075.177,617.953s15.676-7.351,25.7,11.626c0,0-14.476,6.122-27.091-8.558Z" transform="translate(-276.912 -187.463)" fill="#197acf"/>
    <path id="Path_2846" data-name="Path 2846" d="M1088.257,593.516s16.052-7.819,25.477,10.714c0,0-16.723,5.761-26.8-7.781Z" transform="translate(-280.145 -181.393)" fill="#197acf"/>
    <path id="Path_2847" data-name="Path 2847" d="M1095.989,570.746s15.449-14.756,27.777.166c0,0-15.781,12.147-28.486,3.121Z" transform="translate(-282.199 -174.593)" fill="#197acf"/>
    <path id="Path_2848" data-name="Path 2848" d="M1102.9,543.4s15.54-15.08,27.77.694c0,0-17.44,12.388-28.328,2.473Z" transform="translate(-283.935 -167.868)" fill="#197acf"/>
    <path id="Path_2849" data-name="Path 2849" d="M1106.93,516.153S1118.9,497.3,1133,501.51c0,0-12.426,19.958-25.937,19.069Z" transform="translate(-285.065 -159.011)" fill="#197acf"/>
    <path id="Path_2850" data-name="Path 2850" d="M1111.509,491.536s12.064-23.736,23.479-19.6c0,0-8.7,18.247-23.789,23.608Z" transform="translate(-286.115 -151.767)" fill="#197acf"/>
    <path id="Path_2851" data-name="Path 2851" d="M1112.326,462.946s12.4-18.684,24.022-16.4c0,0-10.141,18.948-25.229,21.805Z" transform="translate(-286.096 -145.593)" fill="#197acf"/>
    <path id="Path_2852" data-name="Path 2852" d="M1114,436.2s9.613-20.969,17.424-21.112c0,0-4.614,20.818-16.776,24.671Z" transform="translate(-286.804 -137.902)" fill="#197acf"/>
    <path id="Path_2853" data-name="Path 2853" d="M1116.5,411.578s10.685-21.232,18.714-21.278c0,0-5.467,18.156-18.36,23.14Z" transform="translate(-287.419 -131.803)" fill="#197acf"/>
    <path id="Path_2854" data-name="Path 2854" d="M1118.63,382.379s7.992-17.568,14.612-19.559c0,0-4,21.413-13.73,24.218Z" transform="translate(-287.943 -125.043)" fill="#197acf"/>
    <path id="Path_2855" data-name="Path 2855" d="M1124.539,356.272,1142.4,329.06s-4.576,26.842-20.471,32.422Z" transform="translate(-288.755 -116.738)" fill="#197acf"/>
    <path id="Path_2856" data-name="Path 2856" d="M1138.829,320.571s20.758-14.326,21.511-16.641c0,0-10.556,20.064-30.16,23.607Z" transform="translate(-290.784 -110.555)" fill="#197acf"/>
    <path id="Path_2857" data-name="Path 2857" d="M1143.113,309.981s23.834-22.914,29.919-22.891c0,0-19.656.9-30.492,21.67Z" transform="translate(-293.825 -106.413)" fill="#197acf"/>
    <path id="Path_2858" data-name="Path 2858" d="M1118.94,374l.867.113c4.479-35.053,11.008-55.8,18.382-58.336l-.287-.83C1130.084,317.664,1123.51,338.09,1118.94,374Z" transform="translate(-288.02 -113.266)" fill="#444053"/>
    <path id="Path_2859" data-name="Path 2859" d="M1110.2,476.25l1.313.105c.279-3.272.49-6.62.633-9.96,1.251-29.014,3.189-55.66,5.738-75.633l-.754-.942c-2.556,20.018-5.044,47.464-6.3,76.522C1110.69,469.66,1110.479,472.993,1110.2,476.25Z" transform="translate(-285.869 -131.685)" fill="#444053"/>
    <path id="Path_2860" data-name="Path 2860" d="M976.769,662.386c.226-.1,23.321-10.413,47.29-35.008a190.185,190.185,0,0,0,34.57-49.01c11.083-22.567,17.84-50.3,20.1-77.239l-1.365.641c-5.089,60.47-32.617,101.789-54.506,124.3-23.735,24.376-46.574,34.586-46.8,34.684Z" transform="translate(-252.87 -159.068)" fill="#444053"/>
    <path id="Path_2861" data-name="Path 2861" d="M817.819,132.69H93.324a6.454,6.454,0,0,0-6.454,6.454v18.8h737.4v-18.8A6.454,6.454,0,0,0,817.819,132.69Z" transform="translate(-34.121 -68.429)" fill="#3f3d56"/>
    <path id="Path_2862" data-name="Path 2862" d="M86.87,166.19V589.36a13.014,13.014,0,0,0,13.014,13.014H811.259a13.014,13.014,0,0,0,13.014-13.014V166.19Z" transform="translate(-34.121 -76.67)" fill="#fff"/>
    <circle id="Ellipse_229" data-name="Ellipse 229" cx="3.016" cy="3.016" r="3.016" transform="translate(61.413 73.686)" fill="#fa5959" opacity="0.8"/>
    <circle id="Ellipse_230" data-name="Ellipse 230" cx="3.016" cy="3.016" r="3.016" transform="translate(69.706 73.686)" fill="#fed253" opacity="0.8"/>
    <circle id="Ellipse_231" data-name="Ellipse 231" cx="3.016" cy="3.016" r="3.016" transform="translate(78 73.686)" fill="#8ccf4d" opacity="0.8"/>
    <rect id="Rectangle_1664" data-name="Rectangle 1664" width="592.637" height="260.594" transform="translate(121.295 160.078)" opacity="0.05"/>
    <rect id="Rectangle_1665" data-name="Rectangle 1665" width="583.589" height="254.849" transform="translate(125.818 162.054)" fill="#3f3d56"/>
    <path id="Path_2863" data-name="Path 2863" d="M375.837,349.38a58.057,58.057,0,1,0,58.057,58.057A58.057,58.057,0,0,0,375.837,349.38Zm10.413,59.452v27.49H365.726v-27.49a17,17,0,1,1,20.524,0Z" transform="translate(-90.927 -121.737)" fill="#197acf"/>
    <path id="Path_2864" data-name="Path 2864" d="M375.837,349.38a58.057,58.057,0,1,0,58.057,58.057A58.057,58.057,0,0,0,375.837,349.38Zm10.413,59.452v27.49H365.726v-27.49a17,17,0,1,1,20.524,0Z" transform="translate(-90.927 -121.737)" opacity="0.05"/>
    <path id="Path_2865" data-name="Path 2865" d="M370.425,327.38a74.645,74.645,0,1,0,74.645,74.645,74.645,74.645,0,0,0-74.645-74.645Zm13.383,76.44v35.34h-26.39V403.82a21.866,21.866,0,1,1,26.39,0Z" transform="translate(-85.515 -116.324)" fill="#197acf"/>
    <rect id="Rectangle_1666" data-name="Rectangle 1666" width="241.277" height="25.636" transform="translate(390.469 275.906)" fill="#fff"/>
    <rect id="Rectangle_1667" data-name="Rectangle 1667" width="52.025" height="25.636" transform="translate(579.721 322.654)" fill="#197acf"/>
    <path id="Path_2866" data-name="Path 2866" d="M562.713,428.158h-4.366l3.883-3.875a.384.384,0,0,0,0-.535.377.377,0,0,0-.535,0l-3.883,3.883v-4.373a.377.377,0,0,0-.377-.377.384.384,0,0,0-.377.377v4.373l-3.876-3.906a.377.377,0,0,0-.535,0,.385.385,0,0,0,0,.535l3.883,3.876h-4.373a.384.384,0,0,0-.377.377.377.377,0,0,0,.377.377h4.373l-3.883,3.883a.385.385,0,0,0,0,.535.392.392,0,0,0,.535,0l3.876-3.883v4.366a.377.377,0,0,0,.754,0v-4.366l3.883,3.883a.392.392,0,0,0,.535,0,.384.384,0,0,0,0-.535l-3.883-3.883h4.366a.366.366,0,1,0,0-.731Z" transform="translate(-148.493 -139.818)" fill="#197acf"/>
    <path id="Path_2867" data-name="Path 2867" d="M583.713,428.158h-4.366l3.883-3.875a.385.385,0,0,0,0-.535.377.377,0,0,0-.535,0l-3.883,3.883v-4.373a.377.377,0,0,0-.377-.377.384.384,0,0,0-.377.377v4.373l-3.876-3.906a.376.376,0,0,0-.535,0,.385.385,0,0,0,0,.535l3.883,3.876h-4.373a.385.385,0,0,0-.377.377.377.377,0,0,0,.377.377h4.373l-3.883,3.883a.385.385,0,0,0,0,.535.392.392,0,0,0,.535,0l3.876-3.883v4.366a.377.377,0,1,0,.754,0v-4.366l3.883,3.883a.392.392,0,0,0,.535,0,.385.385,0,0,0,0-.535l-3.883-3.883h4.366a.366.366,0,1,0,0-.731Z" transform="translate(-153.659 -139.818)" fill="#197acf"/>
    <path id="Path_2868" data-name="Path 2868" d="M604.713,428.158h-4.366l3.883-3.875a.384.384,0,0,0,0-.535.377.377,0,0,0-.535,0l-3.883,3.883v-4.373a.377.377,0,0,0-.377-.377.385.385,0,0,0-.377.377v4.373l-3.876-3.906a.377.377,0,0,0-.535,0,.384.384,0,0,0,0,.535l3.883,3.876h-4.373a.385.385,0,0,0-.377.377.377.377,0,0,0,.377.377h4.373l-3.883,3.883a.384.384,0,0,0,0,.535.392.392,0,0,0,.535,0l3.876-3.883v4.366a.377.377,0,0,0,.754,0v-4.366l3.883,3.883a.392.392,0,0,0,.535,0,.384.384,0,0,0,0-.535l-3.883-3.883h4.366a.366.366,0,1,0,0-.731Z" transform="translate(-158.825 -139.818)" fill="#197acf"/>
    <path id="Path_2869" data-name="Path 2869" d="M625.713,428.158h-4.365l3.883-3.875a.384.384,0,0,0,0-.535.377.377,0,0,0-.535,0l-3.883,3.883v-4.373a.377.377,0,0,0-.377-.377.384.384,0,0,0-.377.377v4.373l-3.876-3.906a.377.377,0,0,0-.536,0,.384.384,0,0,0,0,.535l3.883,3.876h-4.373a.384.384,0,0,0-.377.377.377.377,0,0,0,.377.377h4.373l-3.883,3.883a.384.384,0,0,0,0,.535.392.392,0,0,0,.536,0l3.876-3.883v4.366a.377.377,0,1,0,.754,0v-4.366l3.883,3.883a.392.392,0,0,0,.535,0,.384.384,0,0,0,0-.535l-3.883-3.883h4.365a.366.366,0,1,0,0-.731Z" transform="translate(-163.991 -139.818)" fill="#197acf"/>
    <path id="Path_2870" data-name="Path 2870" d="M646.713,428.158h-4.365l3.883-3.875a.385.385,0,0,0,0-.535.377.377,0,0,0-.535,0l-3.883,3.883v-4.373a.377.377,0,0,0-.377-.377.384.384,0,0,0-.377.377v4.373l-3.875-3.906a.377.377,0,0,0-.536,0,.384.384,0,0,0,0,.535l3.883,3.876h-4.373a.384.384,0,0,0-.377.377.377.377,0,0,0,.377.377h4.373l-3.883,3.883a.384.384,0,0,0,0,.535.392.392,0,0,0,.536,0l3.875-3.883v4.366a.377.377,0,0,0,.754,0v-4.366l3.883,3.883a.392.392,0,0,0,.535,0,.385.385,0,0,0,0-.535l-3.883-3.883h4.365a.366.366,0,1,0,0-.731Z" transform="translate(-169.158 -139.818)" fill="#197acf"/>
    <path id="Path_2871" data-name="Path 2871" d="M667.713,428.158h-4.366l3.883-3.875a.385.385,0,0,0,0-.535.378.378,0,0,0-.536,0l-3.883,3.883v-4.373a.377.377,0,0,0-.377-.377.385.385,0,0,0-.377.377v4.373l-3.876-3.906a.377.377,0,0,0-.535,0,.385.385,0,0,0,0,.535l3.883,3.876h-4.373a.384.384,0,0,0-.377.377.377.377,0,0,0,.377.377h4.373l-3.883,3.883a.385.385,0,0,0,0,.535.392.392,0,0,0,.535,0l3.876-3.883v4.366a.377.377,0,0,0,.754,0v-4.366l3.883,3.883a.393.393,0,0,0,.536,0,.385.385,0,0,0,0-.535l-3.883-3.883h4.366a.366.366,0,1,0,0-.731Z" transform="translate(-174.324 -139.818)" fill="#197acf"/>
    <path id="Path_2872" data-name="Path 2872" d="M688.713,428.158h-4.365l3.883-3.875a.384.384,0,0,0,0-.535.377.377,0,0,0-.535,0l-3.883,3.883v-4.373a.377.377,0,0,0-.377-.377.385.385,0,0,0-.377.377v4.373l-3.876-3.906a.377.377,0,0,0-.535,0,.384.384,0,0,0,0,.535l3.883,3.876h-4.373a.385.385,0,0,0-.377.377.377.377,0,0,0,.377.377h4.373l-3.883,3.883a.384.384,0,0,0,0,.535.392.392,0,0,0,.535,0l3.876-3.883v4.366a.377.377,0,0,0,.754,0v-4.366l3.883,3.883a.392.392,0,0,0,.535,0,.385.385,0,0,0,0-.535l-3.883-3.883h4.365a.366.366,0,1,0,0-.731Z" transform="translate(-179.49 -139.818)" fill="#197acf"/>
    <path id="Path_2873" data-name="Path 2873" d="M709.713,428.158h-4.366l3.883-3.875a.384.384,0,0,0,0-.535.377.377,0,0,0-.535,0l-3.883,3.883v-4.373a.377.377,0,0,0-.377-.377.384.384,0,0,0-.377.377v4.373l-3.876-3.906a.377.377,0,0,0-.535,0,.384.384,0,0,0,0,.535l3.883,3.876h-4.373a.385.385,0,0,0-.377.377.377.377,0,0,0,.377.377h4.373l-3.883,3.883a.384.384,0,0,0,0,.535.392.392,0,0,0,.535,0l3.876-3.883v4.366a.377.377,0,0,0,.754,0v-4.366l3.883,3.883a.392.392,0,0,0,.535,0,.384.384,0,0,0,0-.535l-3.883-3.883h4.366a.366.366,0,1,0,0-.731Z" transform="translate(-184.656 -139.818)" fill="#197acf"/>
    <path id="Path_2874" data-name="Path 2874" d="M730.713,428.158h-4.365l3.883-3.875a.385.385,0,0,0,0-.535.378.378,0,0,0-.536,0l-3.883,3.883v-4.373a.377.377,0,0,0-.377-.377.385.385,0,0,0-.377.377v4.373l-3.875-3.906a.377.377,0,0,0-.535,0,.385.385,0,0,0,0,.535l3.883,3.876h-4.373a.384.384,0,0,0-.377.377.377.377,0,0,0,.377.377h4.373l-3.883,3.883a.385.385,0,0,0,0,.535.392.392,0,0,0,.535,0l3.875-3.883v4.366a.377.377,0,0,0,.754,0v-4.366l3.883,3.883a.393.393,0,0,0,.536,0,.385.385,0,0,0,0-.535l-3.883-3.883h4.365a.366.366,0,1,0,0-.731Z" transform="translate(-189.823 -139.818)" fill="#197acf"/>
    <path id="Path_2875" data-name="Path 2875" d="M751.713,428.158h-4.366l3.883-3.875a.385.385,0,0,0,0-.535.377.377,0,0,0-.535,0l-3.883,3.883v-4.373a.377.377,0,0,0-.377-.377.385.385,0,0,0-.377.377v4.373l-3.875-3.906a.377.377,0,0,0-.536,0,.385.385,0,0,0,0,.535l3.883,3.876h-4.373a.384.384,0,0,0-.377.377.377.377,0,0,0,.377.377h4.373l-3.883,3.883a.385.385,0,0,0,0,.535.392.392,0,0,0,.536,0l3.875-3.883v4.366a.377.377,0,0,0,.754,0v-4.366l3.883,3.883a.392.392,0,0,0,.535,0,.385.385,0,0,0,0-.535l-3.883-3.883h4.366a.366.366,0,1,0,0-.731Z" transform="translate(-194.989 -139.818)" fill="#197acf"/>
    <path id="Path_2876" data-name="Path 2876" d="M772.713,428.158h-4.366l3.883-3.875a.385.385,0,0,0,0-.535.377.377,0,0,0-.536,0l-3.883,3.883v-4.373a.377.377,0,0,0-.377-.377.385.385,0,0,0-.377.377v4.373l-3.876-3.906a.376.376,0,0,0-.535,0,.384.384,0,0,0,0,.535l3.883,3.876h-4.373a.385.385,0,0,0-.377.377.377.377,0,0,0,.377.377h4.373l-3.883,3.883a.384.384,0,0,0,0,.535.392.392,0,0,0,.535,0l3.876-3.883v4.366a.377.377,0,1,0,.754,0v-4.366l3.883,3.883a.392.392,0,0,0,.536,0,.385.385,0,0,0,0-.535l-3.883-3.883h4.366a.366.366,0,1,0,0-.731Z" transform="translate(-200.155 -139.818)" fill="#197acf"/>
    <path id="Path_2877" data-name="Path 2877" d="M899.92,530.822a13.478,13.478,0,0,0-.339-2.707c-.679-2.549-2.209-5.632-4.727-6.4a39.706,39.706,0,0,1-7.495-3.167c-.453-8.083,1.4-16.354-.618-24.188-.754-2.865-2-5.61-2.33-8.543-.415-3.649.581-7.54-.874-10.9a10.761,10.761,0,0,0-6.371-5.5,33.951,33.951,0,0,0-8.5-1.508c-3.619-.294-15.336-1.681-19.423,1.553h0a4.27,4.27,0,0,0-.754.754h0a3,3,0,0,0-.241.392l-.038.06a3.07,3.07,0,0,0-.2.49h0a3.8,3.8,0,0,0-.128.566v1.357c.053.679.151,1.357.151,2.028a4.358,4.358,0,0,1-.091,1,6.962,6.962,0,0,1-1.251,2.443h0l-.136.2c-.083.121-.166.234-.241.354s-.136.211-.2.317-.121.173-.174.271a3.63,3.63,0,0,0-.2.385c0,.075-.083.143-.113.219a3.725,3.725,0,0,0-.226.633,4.21,4.21,0,0,0-.045,2.006,7.464,7.464,0,0,0,1.033,2.375c.188.309.392.611.6.912l.528.716a16.262,16.262,0,0,0-.158,2.111,15.6,15.6,0,0,0,5.954,12.258,46.194,46.194,0,0,1-.1,9.57c-.068.663-.151,1.335-.241,2s-.159,1.1-.249,1.651a7.651,7.651,0,0,1-3.3-.249,15.518,15.518,0,0,0-1.508-.581c-2.194-.55-4.434,1.636-6.605.973a.89.89,0,0,1-.1.3,2.954,2.954,0,0,0-1.508-.445,5.5,5.5,0,0,1-3.272-1.877l-2.873-2.707a3.17,3.17,0,0,1-.5-.558,3.921,3.921,0,0,1-.347-.927,10.685,10.685,0,0,0-2.782-3.989,1.89,1.89,0,0,0-.822-.6,1.27,1.27,0,0,0-.377,0,3.28,3.28,0,0,0-.249-.3,7.076,7.076,0,0,0-.626-.633c-1.372-1.267-1.508-2.352-2.7-3.77a36.235,36.235,0,0,1-2.82-4.26c-.1-.792-.234-1.606-.4-2.428a31.247,31.247,0,0,0-1.651-5.5l-1.508-3.34-.173.173c-1.093-1.629-2.262-2.518-3.31-2.307-1.757.362-2.624,3.77-2.345,8.226l.6,4.524a1.386,1.386,0,0,0,.083.339,8.364,8.364,0,0,0-.166,1.629c0,.633.588,1.1.9,1.666a4.713,4.713,0,0,1,.754,2.571c-.038.324-.136.633-.151.95a3.654,3.654,0,0,0,.709,1.96l3.77,6.333.754,1.327.045.06a3.22,3.22,0,0,0,1.01,1.161,13.82,13.82,0,0,0,1.244,4.577c.128.286.271.558.423.829a26.654,26.654,0,0,0,3.559,4.622l1.794,2.013c1.772,1.975,3.544,3.958,5.466,5.783a7.322,7.322,0,0,0,2.443,1.711,2.766,2.766,0,0,0,2.744-.4v2.8a1.576,1.576,0,0,1,1.191,2.481,62.18,62.18,0,0,1-5.579,11.807,25.142,25.142,0,0,1,4.675,3.566,21.018,21.018,0,0,1,2.435,3.295c.068.558.121,1.108.151,1.659.558,8.988-2.918,17.907-6.032,26.472-.9,2.428-1.877,4.969-1.8,7.495a14.672,14.672,0,0,0-1.689,1.214c.618,1.613.377,3.054.309,4.78a8.461,8.461,0,0,1-.626,3.016A21.163,21.163,0,0,1,830.9,601.9c-1.953,3.446-2.383,7.54-2.775,11.476-.234,2.375.686,5.278-.392,7.4-1.862,3.649-3.514,7.54-3.77,11.6a11.628,11.628,0,0,1-.347,2.707c-.234.754-.648,1.395-.86,2.134a9.135,9.135,0,0,0-.151,3.016,28.86,28.86,0,0,1-1.583,10.639c-.942,2.692-1.983,5.572-1.244,8.339a11.755,11.755,0,0,0-3.189,7,11.047,11.047,0,0,1-.241,2,9.713,9.713,0,0,1-.9,1.923,16.83,16.83,0,0,0-2.051,9.048,25.175,25.175,0,0,0-4.064,10.616c-.671,3.762-.965,7.593-1.824,11.31-1.146,4.916-3.22,9.885-3.627,14.921-2.443,1.561-3.5,4.584-3.966,7.442s-.543,5.859-1.742,8.5c-.618,1.372-1.508,2.6-2.1,4a18.389,18.389,0,0,0-.9,3.446,13.441,13.441,0,0,0-.234,5.655,8.526,8.526,0,0,1-2.209,1.682c.121-.468.219-.935.3-1.41-1.945,1.764-5.474,1.146-7.027,3.265a3.182,3.182,0,0,0,.754,4.366,6.037,6.037,0,0,0,1.561.671c3.77,1.206,7.645,2.42,11.521,1.779a3.44,3.44,0,0,0,1.3-.415,4.2,4.2,0,0,0,1.214-1.4q.871-1.38,1.734-2.76a35.823,35.823,0,0,0,4.23.988c.143,1.207.249,2.413.3,3.619.754.151,1.764.2,2.119-.506a1.831,1.831,0,0,0,.128-.837c0-.536.076-1.244.121-1.968h.151a14.326,14.326,0,0,0,6.673-1.35c-.807-6.68,1.855-13.21,4.162-19.529,2.435-6.65,4.524-13.421,6.628-20.192,1.508-4.765,3.174-9.38,4.652-14.152q2.79-9.048,5.6-18.1c.814-2.654,1.636-5.278,2.571-7.917a123.364,123.364,0,0,1,6.99-15.555c.754-1.425,1.508-2.835,2.126-4.313.754-1.8,1.29-3.687,1.893-5.549a85.982,85.982,0,0,1,4.735-11.144c.053-.1.091-.189.143-.279.611,2.5,1.222,5.029,1.629,7.54a28.645,28.645,0,0,1,.128,9.319c-.362,2.1-1.048,4.185-.965,6.319.113,2.948,1.689,5.625,2.466,8.467a32.238,32.238,0,0,1,.845,6.484c.211,3.393,2.051,7.2.754,10.345-4.034,9.96-2.081,21.21-4.381,31.667-1.184,5.369-4.81,10.413-4.524,15.9q.3,5.844,1.025,11.657a11.089,11.089,0,0,0,.943,3.536A12.985,12.985,0,0,0,856.264,747c-.332.128-.611.467-.852,1.183a4.652,4.652,0,0,0,1.674,5.278,7.33,7.33,0,0,0,2.179.754,11.476,11.476,0,0,0,3.152.437,7.407,7.407,0,0,0,.988-.12,35.938,35.938,0,0,0,3.566,1.281,7.759,7.759,0,0,0,.1.928,1.155,1.155,0,0,0,.392.852,1.178,1.178,0,0,0,.6.106h4.094v-1.025a3.37,3.37,0,0,0,2.6-.845,4.023,4.023,0,0,0,.754-1.568q1.673-5.678,3.325-11.363a36.327,36.327,0,0,0,1.621-12.969c-1.455-13.9,1.742-27.837.7-41.771a100.064,100.064,0,0,1,1.282-25.063c.339-1.87.754-3.77.9-5.632.332-3.514-.075-7.065.173-10.556.083-1.221.249-2.435.4-3.649a175.275,175.275,0,0,0,1.621-22.733,71.741,71.741,0,0,0-.467-7.54,4.307,4.307,0,0,0,2.058-1.206c.671-.875.5-2.1.49-3.219,0-2.669,1.124-5.187,2.029-7.706a91.558,91.558,0,0,0,2.85-10.6,37.02,37.02,0,0,0,1.267-8.859q0-.452-.045-.9a2.339,2.339,0,0,0,.694-.754,4.386,4.386,0,0,0,.362-1.4c.271-1.923.55-3.853.822-5.783q.3-2.073.6-4.139l2.4-16.731c.2-1.455.415-2.9.618-4.351l.626-4.328c.068-.513.143-1.025.2-1.508C901.872,538.422,900.116,534.321,899.92,530.822Zm-20,62.642a13.785,13.785,0,0,1-1.508-6.552h-.083a3.364,3.364,0,0,0-.1-2.126c-.234-.55-.641-1.018-.89-1.568a5.745,5.745,0,0,1-.407-2.111,57.541,57.541,0,0,1,1.078-13.678c.1-.528.2-1.063.3-1.591a3.955,3.955,0,0,0,.86-.671,6.124,6.124,0,0,0,.972-1.508c.852-1.711,1.629-3.453,2.345-5.225.234-.573.573-1.237,1.154-1.38-.121,4.411.332,8.912-1.463,12.893a8.131,8.131,0,0,0-.754,2.036c-.166,1.123.3,2.262.136,3.378-.083.581-.332,1.116-.43,1.689a1.651,1.651,0,0,0,.437,1.6,1.309,1.309,0,0,0,.324.166c-.045.3-.083.611-.113.9-.06.618-.09,1.2-.128,1.561a48.585,48.585,0,0,0-.2,5.549c0,2,.075,4,.045,6.032a4.1,4.1,0,0,1-.286,1.712,2.98,2.98,0,0,1-.573.754A19.559,19.559,0,0,0,879.916,593.464Z" transform="translate(-205.977 -150.759)" fill="url(#linear-gradient)"/>
    <ellipse id="Ellipse_232" data-name="Ellipse 232" cx="4.253" cy="12.041" rx="4.253" ry="12.041" transform="matrix(0.98, -0.201, 0.201, 0.98, 605.426, 332.479)" fill="#fbbebe"/>
    <path id="Path_2878" data-name="Path 2878" d="M878.324,838.92A4.565,4.565,0,0,0,880,844.145a7.462,7.462,0,0,0,2.164.754,11.425,11.425,0,0,0,3.144.43c1.3-.06,2.556-.573,3.86-.754a.605.605,0,0,1,.445.06.641.641,0,0,1,.166.528,20.054,20.054,0,0,0,.166,2.217,1.141,1.141,0,0,0,.392.852,1.179,1.179,0,0,0,.6.105h4.087a39.869,39.869,0,0,0-1.168-10.662,2.4,2.4,0,0,0-.3-.754,2.5,2.5,0,0,0-1.3-.754,7.288,7.288,0,0,0-3.159-.55,9.247,9.247,0,0,0-3.544,1.734,5.4,5.4,0,0,1-4.019.972C880.163,837.962,879.025,836.823,878.324,838.92Z" transform="translate(-228.768 -241.353)" fill="#3f3d56"/>
    <path id="Path_2879" data-name="Path 2879" d="M797.169,835.1a11.3,11.3,0,0,1-4.124,2.8l-.694.332a.482.482,0,0,0-.234.188.406.406,0,0,0,.076.339,4.878,4.878,0,0,0,5.534,2.013,2.928,2.928,0,0,0,1.214-.633,3.981,3.981,0,0,0,.935-2.428,4.967,4.967,0,0,0-.113-2.782C798.714,832.578,798.33,833.649,797.169,835.1Z" transform="translate(-207.616 -240.848)" fill="#fbbebe"/>
    <path id="Path_2880" data-name="Path 2880" d="M811.33,844.536a1.826,1.826,0,0,1-.128.837c-.354.694-1.342.656-2.111.505a50.733,50.733,0,0,0-.928-7.615c-1.463-.068-2.518,1.32-3.3,2.563l-2.021,3.2a4.176,4.176,0,0,1-1.207,1.4,3.58,3.58,0,0,1-1.3.415c-3.861.641-7.759-.573-11.484-1.78a6.1,6.1,0,0,1-1.56-.663,3.19,3.19,0,0,1-.754-4.358c1.561-2.111,5.067-1.508,7.012-3.257a17.557,17.557,0,0,1-1,3.6c2.6-.392,4.35-2.775,6.447-4.366a3.964,3.964,0,0,1,1.84-.875,4.044,4.044,0,0,1,1.508.158,17.694,17.694,0,0,1,6.635,3.265,7.155,7.155,0,0,1,2.375,2.473C811.722,841.2,811.33,843.306,811.33,844.536Z" transform="translate(-206.109 -240.99)" fill="#3f3d56"/>
    <circle id="Ellipse_233" data-name="Ellipse 233" cx="15.577" cy="15.577" r="15.577" transform="translate(641.511 323.619)" fill="#fbbebe"/>
    <path id="Path_2881" data-name="Path 2881" d="M923.82,617.708a36.931,36.931,0,0,1-1.259,8.814,90.915,90.915,0,0,1-2.85,10.556c-.9,2.511-2.021,5.029-2.013,7.691,0,1.108.181,2.337-.5,3.212a4.693,4.693,0,0,1-2.2,1.259,2.751,2.751,0,0,0-1.855,1.651,11.649,11.649,0,0,1-1.568-3.453q-2.028-6.213-3.77-12.494a1.622,1.622,0,0,1,.105-1.508,1.868,1.868,0,0,1,.656-.369,6.789,6.789,0,0,0,2.089-1.342,3.043,3.043,0,0,0,.693-.9,4.058,4.058,0,0,0,.294-1.7c0-2,0-3.989-.053-5.987a50.168,50.168,0,0,1,.211-5.527c0-.362.068-.943.128-1.561.113-1.184.339-2.556.98-3.016.958-.641,3.823.219,4.909.37,1.87.256,3.77.558,5.594.912A14.944,14.944,0,0,1,923.82,617.708Z" transform="translate(-236.045 -186.54)" fill="#3f3d56"/>
    <path id="Path_2882" data-name="Path 2882" d="M840.1,515.368c-.6,1.207-2.051,1.787-3.167,2.549l-3.823,2.624a2.549,2.549,0,0,1-1.892.648,2.489,2.489,0,0,1-1.41-1.319.265.265,0,0,0,0-.061l-.791-1.327-3.77-6.318a3.6,3.6,0,0,1-.7-1.945c0-.324.113-.626.143-.95a4.563,4.563,0,0,0-.754-2.563c-.3-.566-.905-1.033-.89-1.666a6.034,6.034,0,0,1,.422-2.435,4.934,4.934,0,0,1,1.651-1.764c.354-.256.716-.5,1.094-.754a2.15,2.15,0,0,1,.656-.3c.626-.128,1.244.392,1.878.415,2.722,1.825,3.77,5.278,5.911,7.766,1.206,1.417,1.327,2.5,2.691,3.77.219.2.43.407.634.626a4.381,4.381,0,0,1,.679.98C838.913,513.989,840.413,514.75,840.1,515.368Z" transform="translate(-215.226 -158.732)" fill="#3f3d56"/>
    <path id="Path_2883" data-name="Path 2883" d="M878.839,514.26a14.037,14.037,0,0,1,1.674,7.593,4.753,4.753,0,0,1-.656,2c-1.086,1.666-3.363,1.968-5.346,2.066a3.152,3.152,0,0,0-2.322.754,2.111,2.111,0,0,0,.144,2.579,5.817,5.817,0,0,0,2.307,1.508c3.137,1.38,6.522,2.518,9.93,2.2,1.584-.151,3.122-.611,4.7-.844a49.319,49.319,0,0,1,5.172-.287c2.051-.075,4.094-.279,6.138-.482l5.413-.535a1.207,1.207,0,0,0,.807-.294c.4-.467-.113-1.154-.611-1.508-2.873-2.126-6.53-3.589-8.166-6.786a39.945,39.945,0,0,1-1.546-4.931,41.539,41.539,0,0,1-1.795-4.758,31.559,31.559,0,0,1-.249-4.388,5.89,5.89,0,0,0-1.508-4.011,6.288,6.288,0,0,0-4.1-1.32c-3.6-.158-7.442.7-10,3.242-.686.686-1.274,1.508-1.983,2.126s-1.674.8-1.206,1.613,1.387,1.319,1.885,2.036A17.316,17.316,0,0,1,878.839,514.26Z" transform="translate(-227.225 -159.478)" fill="#fbbebe"/>
    <path id="Path_2884" data-name="Path 2884" d="M904.222,540.766a85.643,85.643,0,0,1-4.614,16.987,63.932,63.932,0,0,0-2.714,7.615c-.581,2.338-.468,4.841-1,7.186-.664,2.918-1.327,5.843-1.862,8.784a57.588,57.588,0,0,0-1.071,13.647,5.706,5.706,0,0,0,.407,2.1c.249.543.648,1.01.882,1.568a3.77,3.77,0,0,1-.211,3.016,8.732,8.732,0,0,1-1.553,2.353c-7.027,2.1-14.545,1.41-21.866,1.855-6.748.407-13.572,1.794-20.222.641-.754-3.016.505-6.175,1.583-9.115,3.129-8.543,6.59-17.44,6.032-26.39a27.374,27.374,0,0,0-.354-3.114c-1.093-6.341.1-12.908,2.005-19.053,1.184-3.83,1.131-7.909.86-11.9a21.741,21.741,0,0,1-.053-3.9,6.85,6.85,0,0,1,1.418-3.642c0-.053.068-.105.105-.158a1.034,1.034,0,0,1,.566,0h0a.485.485,0,0,0,.377,0l.083-.053a.188.188,0,0,1,.219,0c.173.105.271.467.649.535a15,15,0,0,0,1.681.158,9.073,9.073,0,0,1,2.006.286h.09a5.889,5.889,0,0,0,2.926-.249,7.789,7.789,0,0,0,1.794-.694c.166-.181,1.207-.347,1.418-.475.686-.415.535-2.36.679-3.159a8.681,8.681,0,0,1,.566-2.337,3.981,3.981,0,0,1,3.227-1.878,17.174,17.174,0,0,1,3.868.347c2.812.4,5.693.332,8.452.98,1.387.324,2.9.814,4.177.181.347.083.4.385.4.754a4.807,4.807,0,0,1-.211,1.033c-.483,2.081,1.154,4,2.662,5.5a8.529,8.529,0,0,0,2.224,1.772c.754.347,1.508.49,2.262.867a4.118,4.118,0,0,1,1.508,1.38,5.76,5.76,0,0,1,.859,2.194A13.127,13.127,0,0,1,904.222,540.766Z" transform="translate(-221.898 -164.051)" fill="#3f3d56"/>
    <path id="Path_2885" data-name="Path 2885" d="M906.538,543.3a85.647,85.647,0,0,1-4.614,16.988,63.949,63.949,0,0,0-2.714,7.615c-.581,2.337-.468,4.841-1,7.186-.664,2.918-1.327,5.843-1.862,8.784-.159.091-.324.173-.49.249a11.574,11.574,0,0,1-2.956.95,18.094,18.094,0,0,1-5.519-.181l-10.759-1.44c-4.3-.58-8.875-1.282-12.064-4.192a25.747,25.747,0,0,1-4.207-5.745,27.292,27.292,0,0,0-.354-3.114c-1.093-6.341.1-12.908,2.006-19.053,1.184-3.83,1.131-7.909.859-11.9a21.766,21.766,0,0,1-.053-3.9,6.858,6.858,0,0,1,1.418-3.642,5.371,5.371,0,0,1,.671-.151h0a3.346,3.346,0,0,1,.46-.06h.219a3.282,3.282,0,0,1,.754.091,13.631,13.631,0,0,1,1.508.581h.091a5.777,5.777,0,0,0,2.005.287c1,0,2.021-.158,3.016-.226a5.562,5.562,0,0,1,3.574.641,21.4,21.4,0,0,1,1.99,1.817,8.555,8.555,0,0,0,2.511,1.365,26.684,26.684,0,0,0,20.071-.422,3.931,3.931,0,0,1,2.013-.513,3.777,3.777,0,0,1,1.448.619c.453.264.9.52,1.357.754a5.757,5.757,0,0,1,.86,2.194A13.111,13.111,0,0,1,906.538,543.3Z" transform="translate(-224.214 -166.589)" opacity="0.1"/>
    <path id="Path_2886" data-name="Path 2886" d="M910.98,537.841a40.25,40.25,0,0,1-8.6-3.77,3.853,3.853,0,0,0-1.448-.618,4.051,4.051,0,0,0-2.021.513,26.668,26.668,0,0,1-20.064.422,8.717,8.717,0,0,1-2.511-1.365,22.6,22.6,0,0,0-1.99-1.817c-2.481-1.606-5.912.279-8.686-.754a15.326,15.326,0,0,0-1.508-.581c-2.194-.551-4.426,1.636-6.582.973a36.7,36.7,0,0,0-1.772,6.726,73.282,73.282,0,0,0-.49,7.932c0,1.591-.076,3.182,0,4.773a1.566,1.566,0,0,1,1.191,2.473,61.814,61.814,0,0,1-5.564,11.77,25.583,25.583,0,0,1,4.66,3.559c2.639,2.79,3.936,6.7,6.786,9.282,3.212,2.9,7.789,3.612,12.064,4.185l10.759,1.44a18.4,18.4,0,0,0,5.527.188,11.628,11.628,0,0,0,2.948-.958,5.284,5.284,0,0,0,1.644-1.086,6.031,6.031,0,0,0,.972-1.508c.852-1.7,1.629-3.446,2.345-5.21.249-.626.626-1.357,1.3-1.41,4-3.6,7.766-7.3,11.762-10.9a26.061,26.061,0,0,0,4.29-4.524c1.983-2.933.181-7.088,0-10.631a13.419,13.419,0,0,0-.339-2.692C915.014,541.678,913.491,538.6,910.98,537.841Z" transform="translate(-222.089 -166.117)" fill="#197acf"/>
    <path id="Path_2887" data-name="Path 2887" d="M842.31,519.433c-.6,1.206-2.051,1.787-3.167,2.548l-3.823,2.624a2.548,2.548,0,0,1-1.892.648,2.487,2.487,0,0,1-1.41-1.319v-.543a5.042,5.042,0,0,1,.242-1.8,5.615,5.615,0,0,1,1.688-2.172A13.83,13.83,0,0,1,838.9,516.4a1.691,1.691,0,0,1,.905-.091,1.185,1.185,0,0,1,.331.143,4.356,4.356,0,0,1,.679.98C841.119,518.054,842.619,518.815,842.31,519.433Z" transform="translate(-217.433 -162.797)" opacity="0.1"/>
    <path id="Path_2888" data-name="Path 2888" d="M851.618,527.539a5.491,5.491,0,0,1-3.265-1.87l-2.857-2.654a2.668,2.668,0,0,1-.5-.558,3.93,3.93,0,0,1-.347-.927,10.636,10.636,0,0,0-2.774-3.981,1.811,1.811,0,0,0-.822-.588,1.655,1.655,0,0,0-.913.091,13.794,13.794,0,0,0-4.954,3.016,5.633,5.633,0,0,0-1.689,2.171,5.017,5.017,0,0,0-.241,1.8,13.85,13.85,0,0,0,1.312,5.761c.128.279.271.558.422.829a26.113,26.113,0,0,0,3.544,4.607l1.795,2.006c1.764,1.975,3.529,3.951,5.444,5.768a7.188,7.188,0,0,0,2.443,1.7,2.73,2.73,0,0,0,2.8-.452,4.056,4.056,0,0,0,.8-1.433,28.2,28.2,0,0,0,2.33-9.4,35.433,35.433,0,0,0-.166-3.9C853.872,528.158,852.9,527.622,851.618,527.539Z" transform="translate(-217.738 -162.956)" fill="#197acf"/>
    <path id="Path_2889" data-name="Path 2889" d="M888.679,659.664a174.235,174.235,0,0,1-1.614,22.672c-.151,1.214-.317,2.428-.4,3.642-.249,3.521.158,7.057-.173,10.556-.174,1.893-.566,3.77-.9,5.617a99.876,99.876,0,0,0-1.282,24.995c1.041,13.9-2.149,27.8-.7,41.658a33.688,33.688,0,0,1-.445,8.06A34.119,34.119,0,0,1,882,781.735q-1.651,5.663-3.318,11.31a3.915,3.915,0,0,1-.754,1.568,3.571,3.571,0,0,1-2.827.837c-4.351-.135-8.445-2.013-12.4-3.845a4.318,4.318,0,0,1-1.244-.754c-.822-.852-.754-2.194-1.116-3.318a31.633,31.633,0,0,0-1.9-3.333,10.879,10.879,0,0,1-.822-3.43q-.754-5.791-1.026-11.627c-.286-5.474,3.333-10.51,4.524-15.834,2.262-10.466.347-21.685,4.366-31.615,1.266-3.137-.573-6.937-.754-10.315a32.7,32.7,0,0,0-.845-6.469c-.754-2.835-2.345-5.5-2.458-8.445-.083-2.126.6-4.2.958-6.3a28.3,28.3,0,0,0-.128-9.3c-.4-2.534-1.01-5.067-1.621-7.54l-.136.279a85.17,85.17,0,0,0-4.727,11.121c-.6,1.847-1.131,3.732-1.885,5.527-.618,1.508-1.38,2.888-2.126,4.305a123.619,123.619,0,0,0-6.974,15.495c-.935,2.609-1.757,5.278-2.571,7.894l-5.587,18.1c-1.508,4.758-3.159,9.357-4.637,14.107-2.089,6.786-4.177,13.511-6.6,20.146-2.262,6.3-4.954,12.818-4.147,19.468a14.328,14.328,0,0,1-6.658,1.35,38.987,38.987,0,0,1-11.31-2.745,8.8,8.8,0,0,1-3.906-2.322c-1.674-2.043-1.259-5.037-.754-7.638a18.48,18.48,0,0,1,.9-3.438c.573-1.387,1.508-2.616,2.1-3.988,1.184-2.632,1.259-5.61,1.727-8.467s1.508-5.874,3.951-7.427c.415-5.021,2.481-9.975,3.619-14.884.86-3.717,1.146-7.54,1.825-11.31s1.772-7.54,4.049-10.594a16.792,16.792,0,0,1,2.051-9.048,9.9,9.9,0,0,0,.9-1.922,11.043,11.043,0,0,0,.241-1.991,11.77,11.77,0,0,1,3.182-6.99c-.754-2.752.294-5.625,1.237-8.294a28.821,28.821,0,0,0,1.583-10.609,9.31,9.31,0,0,1,.143-3.016c.211-.754.626-1.395.867-2.119a12.034,12.034,0,0,0,.339-2.707c.294-4.079,1.945-7.924,3.77-11.566,1.086-2.126.166-5.014.392-7.382.392-3.936.822-8.007,2.775-11.438.362-.648.754-1.266,1.078-1.938a8.389,8.389,0,0,0,.626-3.016c.068-1.726.309-3.159-.309-4.765,4.034-3.355,9.538-4.3,14.786-4.524s10.556.249,15.69-.867c1.508-.339,3.016-.807,4.607-1.033,3.612-.528,7.276.294,10.842,1.108a12.917,12.917,0,0,0,1.508,6.537,70.171,70.171,0,0,1,5.587,26.932Z" transform="translate(-209.107 -189.522)" fill="#33313f"/>
    <path id="Path_2890" data-name="Path 2890" d="M891.26,673.29,882.6,692.773c-.4-2.533-1.01-5.067-1.621-7.54l-.136.279v-.407l4.72-10.383Z" transform="translate(-229.445 -201.421)" opacity="0.1"/>
    <path id="Path_2891" data-name="Path 2891" d="M925.193,617.708a3.261,3.261,0,0,1-1.719.641,8.356,8.356,0,0,1-2.82-.385l-6.786-1.7a3.332,3.332,0,0,1-.618-.219c.113-1.184.339-2.556.98-3.016.958-.641,3.823.219,4.909.369,1.87.256,3.77.558,5.594.912A14.916,14.916,0,0,1,925.193,617.708Z" transform="translate(-237.417 -186.54)" opacity="0.1"/>
    <path id="Path_2892" data-name="Path 2892" d="M930.7,559.025c.143.626.347,1.244.468,1.878a14.335,14.335,0,0,1-.158,4.667l-.618,4.312-.619,4.336-2.39,16.686-.589,4.132-.829,5.768a4.156,4.156,0,0,1-.362,1.387,2.888,2.888,0,0,1-2.36,1.395,8.545,8.545,0,0,1-2.82-.384l-6.786-1.7a2.132,2.132,0,0,1-.829-.34,1.636,1.636,0,0,1-.437-1.591c.1-.573.347-1.108.43-1.682.166-1.116-.3-2.262-.136-3.37a8.39,8.39,0,0,1,.754-2.028c2.262-5,.95-10.835,1.719-16.263a24.655,24.655,0,0,1,5.233-11.641,33.4,33.4,0,0,1,5.776-5.67c.844-.656,2.186-2.005,3.25-2.262C930.762,556.363,930.475,558.075,930.7,559.025Z" transform="translate(-237.188 -172.719)" fill="#197acf"/>
    <path id="Path_2893" data-name="Path 2893" d="M866.295,472.421c-.5,1.583.279,3.325-.076,4.938-.385,1.78-2.058,3.016-2.533,4.8-.754,2.722,1.553,5.2,3.242,7.465,6.258,8.4,5.436,20.026,3.295,30.273a156.361,156.361,0,0,1-7.125,24.128,18.494,18.494,0,0,1-3.838,6.733c3.468-1,7.155-2,10.631-1.033,4.4,1.221,8.2,5.5,12.667,4.524,2.684-.6,4.569-2.978,6.982-4.3,4.524-2.435,9.975-.9,15.019-.121a5.9,5.9,0,0,0,3.28-.166,5.447,5.447,0,0,0,1.99-1.832,18.593,18.593,0,0,0,3.876-10.028,12.863,12.863,0,0,0-3.7-9.9,21.155,21.155,0,0,1-3.174-3.016,9.366,9.366,0,0,1-1.244-4.569c-.6-8.294,1.425-16.761-.656-24.784-.754-2.858-1.983-5.595-2.315-8.52-.415-3.642.573-7.54-.874-10.873a10.663,10.663,0,0,0-6.356-5.489,34.819,34.819,0,0,0-8.475-1.508C882.777,468.8,868.021,467.03,866.295,472.421Z" transform="translate(-224.136 -151.064)" fill="#33313f"/>
    <g id="Group_714" data-name="Group 714" transform="translate(635.124 319.63)" opacity="0.1">
      <path id="Path_2894" data-name="Path 2894" d="M871.488,523.557a156.018,156.018,0,0,1-7.088,24.03c.52-1.033.958-2.119,1.372-3.2a155.474,155.474,0,0,0,7.125-24.128c2.149-10.254,2.971-21.866-3.287-30.273-1.508-2.006-3.446-4.177-3.378-6.529a8.04,8.04,0,0,0-1.282,2.367c-.754,2.722,1.554,5.2,3.242,7.465C874.451,501.684,873.629,513.31,871.488,523.557Z" transform="translate(-860.525 -474.352)"/>
      <path id="Path_2895" data-name="Path 2895" d="M868.545,477.284a7.336,7.336,0,0,0,1.327-2.541,12.921,12.921,0,0,0-.091-3.363,3.629,3.629,0,0,0-1.252,1.727C868.086,474.441,868.6,475.889,868.545,477.284Z" transform="translate(-861.496 -471.38)"/>
      <path id="Path_2896" data-name="Path 2896" d="M911.248,568.426a5.432,5.432,0,0,1-1.991,1.825,5.759,5.759,0,0,1-3.28.166c-5.045-.754-10.556-2.307-15.02.128-2.42,1.312-4.3,3.695-6.989,4.3-4.456,1-8.257-3.28-12.66-4.524-3.122-.867-6.409-.151-9.553.754a13.186,13.186,0,0,1-2.5,3.6c3.468-1,7.155-2,10.631-1.033,4.4,1.222,8.2,5.5,12.667,4.524,2.684-.6,4.569-2.978,6.982-4.3,4.524-2.435,9.975-.9,15.02-.121a5.9,5.9,0,0,0,3.28-.166,5.446,5.446,0,0,0,1.991-1.832,20.278,20.278,0,0,0,3.122-5.972A21.947,21.947,0,0,1,911.248,568.426Z" transform="translate(-859.26 -494.603)"/>
    </g>
  </g>
</svg>
