<svg xmlns="http://www.w3.org/2000/svg" width="1001.126" height="691.322" viewBox="0 0 1001.126 691.322">
  <g id="Group_716" data-name="Group 716" transform="translate(-711.032 -195.073)">
    <path id="Path_3059" data-name="Path 3059" d="M599.569,334.115q-1.286,6.453-3.085,12.774c-.13.489-.275.971-.421,1.461H579.385a5.245,5.245,0,0,0-5.358,5.112v45.369c-.505.9-1.018,1.789-1.531,2.68-2.648,4.6-5.4,9.151-8.221,13.643-45.931,73-109.992,134.092-186.527,177.876l4.532-9.757-4.991-.329c-36.167-2.359-72.456-4.974-107.773-12.73-36.947-8.114-73.091-22.188-102.047-45.522s-50.2-56.675-53.144-92.739a101.189,101.189,0,0,1,3.881-36.817c6.789-23.021,21.623-43.733,43.025-55.988,33.618-19.245,77.469-15.323,112.908.687s64.273,42.491,92.433,68.521A348.257,348.257,0,0,0,251.062,293.311c-15.737-9.611-32.439-18.171-45.819-30.623S182,232.794,184.37,215.112c2.686-20.055,19.9-35.276,37.146-47.012,6.889-4.689,14-9.137,21.333-13.227,20.689-11.569,43.071-20.3,66.707-23.532,32.018-4.389,66.6,2.271,91.147,22.37,27.655,22.648,39,59.173,37.919,94.112,17.038-23.634,43.315-41.725,72.991-42.492,30.809-.789,60.094,17.784,75.525,43.244S605.333,305.23,599.569,334.115Z" transform="translate(1109.812 293.366)" fill="#e6e6e6"/>
    <path id="Path_3060" data-name="Path 3060" d="M493.6,434.964c21.906-1.313,42.142-2.847,63.37-6.936,20.576-3.963,40.376-10.6,55.024-21.43,15.755-11.651,24.259-26.783,30.26-41.846,3.346-8.4,6.094-16.914,8.688-25.433q4.221-13.864,7.5-27.851a431.565,431.565,0,0,0,9.323-56.009q.337-3.419.619-6.841c.116-1.407-3.1-1.4-3.215,0A432.458,432.458,0,0,1,641.6,357.668c-5.394,15.013-12.377,30.26-26.21,42.758-12.971,11.72-31.707,19.378-51.936,23.957-20.585,4.659-42.289,6.52-63.8,7.9-2.639.17-3.42.331-6.061.49-2.045.123-2.064,2.312,0,2.188Z" transform="translate(978.556 246.897)" fill="#fff"/>
    <path id="Path_3061" data-name="Path 3061" d="M120.945,494.237a273.394,273.394,0,0,1,59.082,9.546,267.82,267.82,0,0,1,55.023,21.961,248.483,248.483,0,0,1,46.335,31.989,240.269,240.269,0,0,1,36.195,39.573,225.342,225.342,0,0,1,25.9,46.04q1.231,2.972,2.371,5.974c.491,1.29,2.744.735,2.248-.568a226.087,226.087,0,0,0-24.743-47.186,241.567,241.567,0,0,0-35.5-41.011,249.578,249.578,0,0,0-45.325-33.167,273.439,273.439,0,0,0-114.237-34.824q-3.669-.282-7.345-.464a1.07,1.07,0,1,0,0,2.137Z" transform="translate(1111.605 214.607)" fill="#fff"/>
    <path id="Path_3062" data-name="Path 3062" d="M282.959,166.9a161.712,161.712,0,0,1,39.832,17.018,181.449,181.449,0,0,1,34,26.4,222.7,222.7,0,0,1,28.157,33.926,276.246,276.246,0,0,1,22.388,39.794,329.223,329.223,0,0,1,16.3,43.283,360.156,360.156,0,0,1,10.425,45.222,354.264,354.264,0,0,1,4.488,45.479,315.2,315.2,0,0,1-1.474,43.627,245.961,245.961,0,0,1-7.492,40.165,174.038,174.038,0,0,1-13.517,34.731q-2.008,3.8-4.26,7.5c-.779,1.279,1.444,2.418,2.224,1.137A161.53,161.53,0,0,0,429.251,511.7a230.854,230.854,0,0,0,9.072-39.38,300.146,300.146,0,0,0,3-43.539,349.919,349.919,0,0,0-3.118-45.751,365.258,365.258,0,0,0-9.076-45.715A338.594,338.594,0,0,0,413.953,292.8a292.28,292.28,0,0,0-21.1-40.972,237.661,237.661,0,0,0-27.057-35.7,191.248,191.248,0,0,0-33.053-28.637,166.806,166.806,0,0,0-38.763-19.549q-5.1-1.774-10.335-3.208a1.142,1.142,0,1,0-.685,2.172Z" transform="translate(1054.507 301.748)" fill="#fff"/>
  </g>
  <g id="undraw_Work_time_re_hdyv_1_" data-name="undraw_Work_time_re_hdyv (1)" transform="translate(0 50.713)">
    <path id="Path_2897" data-name="Path 2897" d="M341.7,359.882a164.956,164.956,0,0,1,13.652-52.061q3.081-6.883,6.783-13.463a1.005,1.005,0,0,0-1.735-1.014,167.237,167.237,0,0,0-18.609,51.338q-1.4,7.547-2.1,15.2c-.119,1.287,1.891,1.279,2.009,0Z" transform="translate(-190.975 -235.661)" fill="#e6e6e6"/>
    <circle id="Ellipse_234" data-name="Ellipse 234" cx="12.725" cy="12.725" r="12.725" transform="translate(163.299 36.468)" fill="#e6e6e6"/>
    <path id="Path_2898" data-name="Path 2898" d="M342.476,354.008a107.017,107.017,0,0,1,8.857-33.775q2-4.465,4.4-8.734a.652.652,0,0,0-1.125-.658,108.493,108.493,0,0,0-12.073,33.306q-.906,4.9-1.362,9.861c-.077.835,1.227.83,1.3,0Z" transform="translate(-190.452 -229.45)" fill="#e6e6e6"/>
    <circle id="Ellipse_235" data-name="Ellipse 235" cx="8.255" cy="8.255" r="8.255" transform="translate(160.183 67.629)" fill="#e6e6e6"/>
    <path id="Path_2899" data-name="Path 2899" d="M345.339,353.1a107.017,107.017,0,0,1-13.79-32.078q-1.17-4.75-1.9-9.593a.652.652,0,0,0-1.292.174,108.5,108.5,0,0,0,10.966,33.686q2.3,4.418,4.991,8.613c.453.706,1.478-.1,1.028-.8Z" transform="translate(-194.96 -229.326)" fill="#e6e6e6"/>
    <circle id="Ellipse_236" data-name="Ellipse 236" cx="8.255" cy="8.255" r="8.255" transform="translate(125.129 67.05)" fill="#e6e6e6"/>
    <path id="Path_2900" data-name="Path 2900" d="M322.169,353.328v-16.22a6.089,6.089,0,0,1,6.082-6.082H366.1a6.089,6.089,0,0,1,6.082,6.082v16.22a6.089,6.089,0,0,1-6.082,6.082H328.251a6.089,6.089,0,0,1-6.082-6.082Z" transform="translate(-197.133 -222.245)" fill="#f2f2f2"/>
    <path id="Path_2901" data-name="Path 2901" d="M359.471,291.421h-16.22a6.089,6.089,0,0,1-6.082-6.082v-66.23a6.089,6.089,0,0,1,6.082-6.082h16.22a6.089,6.089,0,0,1,6.082,6.082v66.23A6.089,6.089,0,0,1,359.471,291.421Z" transform="translate(-191.859 -263.739)" fill="#f2f2f2"/>
    <rect id="Rectangle_1668" data-name="Rectangle 1668" width="27.033" height="5.407" transform="translate(145.987 -37.872)" fill="#ccc"/>
    <rect id="Rectangle_1669" data-name="Rectangle 1669" width="27.033" height="5.407" transform="translate(145.987 4.028)" fill="#ccc"/>
    <path id="Path_2902" data-name="Path 2902" d="M389.471,291.421h-16.22a6.089,6.089,0,0,1-6.082-6.082v-66.23a6.089,6.089,0,0,1,6.082-6.082h16.22a6.089,6.089,0,0,1,6.082,6.082v66.23A6.089,6.089,0,0,1,389.471,291.421Z" transform="translate(-181.309 -263.739)" fill="#f2f2f2"/>
    <rect id="Rectangle_1670" data-name="Rectangle 1670" width="27.033" height="5.407" transform="translate(186.536 -37.872)" fill="#ccc"/>
    <rect id="Rectangle_1671" data-name="Rectangle 1671" width="27.033" height="5.407" transform="translate(186.536 4.028)" fill="#ccc"/>
    <path id="Path_2903" data-name="Path 2903" d="M419.471,291.421h-16.22a6.089,6.089,0,0,1-6.082-6.082v-66.23a6.089,6.089,0,0,1,6.082-6.082h16.22a6.089,6.089,0,0,1,6.082,6.082v66.23A6.089,6.089,0,0,1,419.471,291.421Z" transform="translate(-170.76 -263.739)" fill="#f2f2f2"/>
    <rect id="Rectangle_1672" data-name="Rectangle 1672" width="27.033" height="5.407" transform="translate(227.085 -37.872)" fill="#ccc"/>
    <rect id="Rectangle_1673" data-name="Rectangle 1673" width="27.033" height="5.407" transform="translate(227.085 4.028)" fill="#ccc"/>
    <path id="Path_2904" data-name="Path 2904" d="M435.471,372.421h-16.22a6.089,6.089,0,0,1-6.082-6.082v-66.23a6.089,6.089,0,0,1,6.082-6.082h16.22a6.089,6.089,0,0,1,6.082,6.082v66.23A6.089,6.089,0,0,1,435.471,372.421Z" transform="translate(-165.134 -235.256)" fill="#f2f2f2"/>
    <rect id="Rectangle_1674" data-name="Rectangle 1674" width="27.033" height="5.407" transform="translate(248.711 71.61)" fill="#ccc"/>
    <rect id="Rectangle_1675" data-name="Rectangle 1675" width="27.033" height="5.407" transform="translate(248.711 113.511)" fill="#ccc"/>
    <path id="Path_2905" data-name="Path 2905" d="M465.471,372.421h-16.22a6.089,6.089,0,0,1-6.082-6.082v-66.23a6.089,6.089,0,0,1,6.082-6.082h16.22a6.089,6.089,0,0,1,6.082,6.082v66.23A6.089,6.089,0,0,1,465.471,372.421Z" transform="translate(-154.585 -235.256)" fill="#f2f2f2"/>
    <rect id="Rectangle_1676" data-name="Rectangle 1676" width="27.033" height="5.407" transform="translate(289.26 71.61)" fill="#ccc"/>
    <rect id="Rectangle_1677" data-name="Rectangle 1677" width="27.033" height="5.407" transform="translate(289.26 113.511)" fill="#ccc"/>
    <path id="Path_2906" data-name="Path 2906" d="M495.471,372.421h-16.22a6.089,6.089,0,0,1-6.082-6.082v-66.23a6.089,6.089,0,0,1,6.082-6.082h16.22a6.089,6.089,0,0,1,6.082,6.082v66.23A6.089,6.089,0,0,1,495.471,372.421Z" transform="translate(-144.036 -235.256)" fill="#f2f2f2"/>
    <rect id="Rectangle_1678" data-name="Rectangle 1678" width="27.033" height="5.407" transform="translate(329.81 71.61)" fill="#ccc"/>
    <rect id="Rectangle_1679" data-name="Rectangle 1679" width="27.033" height="5.407" transform="translate(329.81 113.511)" fill="#ccc"/>
    <path id="Path_2907" data-name="Path 2907" d="M356.471,453.421h-16.22a6.089,6.089,0,0,1-6.082-6.082v-66.23a6.089,6.089,0,0,1,6.082-6.082h16.22a6.089,6.089,0,0,1,6.082,6.082v66.23A6.089,6.089,0,0,1,356.471,453.421Z" transform="translate(-192.914 -206.773)" fill="#f2f2f2"/>
    <rect id="Rectangle_1680" data-name="Rectangle 1680" width="27.033" height="5.407" transform="translate(141.932 181.093)" fill="#ccc"/>
    <rect id="Rectangle_1681" data-name="Rectangle 1681" width="27.033" height="5.407" transform="translate(141.932 222.994)" fill="#ccc"/>
    <path id="Path_2908" data-name="Path 2908" d="M386.471,453.421h-16.22a6.089,6.089,0,0,1-6.082-6.082v-66.23a6.089,6.089,0,0,1,6.082-6.082h16.22a6.089,6.089,0,0,1,6.082,6.082v66.23A6.089,6.089,0,0,1,386.471,453.421Z" transform="translate(-182.364 -206.773)" fill="#f2f2f2"/>
    <rect id="Rectangle_1682" data-name="Rectangle 1682" width="27.033" height="5.407" transform="translate(182.481 181.093)" fill="#ccc"/>
    <rect id="Rectangle_1683" data-name="Rectangle 1683" width="27.033" height="5.407" transform="translate(182.481 222.994)" fill="#ccc"/>
    <path id="Path_2909" data-name="Path 2909" d="M416.471,453.421h-16.22a6.089,6.089,0,0,1-6.082-6.082v-66.23a6.089,6.089,0,0,1,6.082-6.082h16.22a6.089,6.089,0,0,1,6.082,6.082v66.23A6.089,6.089,0,0,1,416.471,453.421Z" transform="translate(-171.815 -206.773)" fill="#f2f2f2"/>
    <rect id="Rectangle_1684" data-name="Rectangle 1684" width="27.033" height="5.407" transform="translate(223.03 181.093)" fill="#ccc"/>
    <rect id="Rectangle_1685" data-name="Rectangle 1685" width="27.033" height="5.407" transform="translate(223.03 222.994)" fill="#ccc"/>
    <path id="Path_2910" data-name="Path 2910" d="M449.471,291.421h-16.22a6.089,6.089,0,0,1-6.082-6.082v-66.23a6.089,6.089,0,0,1,6.082-6.082h16.22a6.089,6.089,0,0,1,6.082,6.082v66.23A6.089,6.089,0,0,1,449.471,291.421Z" transform="translate(-160.211 -263.739)" fill="#f2f2f2"/>
    <rect id="Rectangle_1686" data-name="Rectangle 1686" width="27.033" height="5.407" transform="translate(267.634 -37.872)" fill="#ccc"/>
    <rect id="Rectangle_1687" data-name="Rectangle 1687" width="27.033" height="5.407" transform="translate(267.634 4.028)" fill="#ccc"/>
    <path id="Path_2911" data-name="Path 2911" d="M479.471,291.421h-16.22a6.089,6.089,0,0,1-6.082-6.082v-66.23a6.089,6.089,0,0,1,6.082-6.082h16.22a6.089,6.089,0,0,1,6.082,6.082v66.23A6.089,6.089,0,0,1,479.471,291.421Z" transform="translate(-149.662 -263.739)" fill="#f2f2f2"/>
    <rect id="Rectangle_1688" data-name="Rectangle 1688" width="27.033" height="5.407" transform="translate(308.183 -37.872)" fill="#ccc"/>
    <rect id="Rectangle_1689" data-name="Rectangle 1689" width="27.033" height="5.407" transform="translate(308.183 4.028)" fill="#ccc"/>
    <path id="Path_2912" data-name="Path 2912" d="M509.471,291.421h-16.22a6.089,6.089,0,0,1-6.082-6.082v-66.23a6.089,6.089,0,0,1,6.082-6.082h16.22a6.089,6.089,0,0,1,6.082,6.082v66.23a6.089,6.089,0,0,1-6.082,6.082Z" transform="translate(-139.113 -263.739)" fill="#f2f2f2"/>
    <rect id="Rectangle_1690" data-name="Rectangle 1690" width="27.033" height="5.407" transform="translate(348.733 -37.872)" fill="#ccc"/>
    <rect id="Rectangle_1691" data-name="Rectangle 1691" width="27.033" height="5.407" transform="translate(348.733 4.028)" fill="#ccc"/>
    <path id="Path_2913" data-name="Path 2913" d="M539.471,291.421h-16.22a6.089,6.089,0,0,1-6.083-6.082v-66.23a6.089,6.089,0,0,1,6.082-6.082h16.22a6.089,6.089,0,0,1,6.082,6.082v66.23A6.089,6.089,0,0,1,539.471,291.421Z" transform="translate(-128.563 -263.739)" fill="#f2f2f2"/>
    <rect id="Rectangle_1692" data-name="Rectangle 1692" width="27.033" height="5.407" transform="translate(389.282 -37.872)" fill="#ccc"/>
    <rect id="Rectangle_1693" data-name="Rectangle 1693" width="27.033" height="5.407" transform="translate(389.282 4.028)" fill="#ccc"/>
    <path id="Path_2914" data-name="Path 2914" d="M679.179,273.229H293.962a1.352,1.352,0,1,1,0-2.7H679.179a1.352,1.352,0,1,1,0,2.7Z" transform="translate(-207.527 -243.519)" fill="#ccc"/>
    <path id="Path_2915" data-name="Path 2915" d="M679.179,354.229H293.962a1.352,1.352,0,1,1,0-2.7H679.179a1.352,1.352,0,1,1,0,2.7Z" transform="translate(-207.527 -215.036)" fill="#ccc"/>
    <path id="Path_2916" data-name="Path 2916" d="M679.179,435.229H293.962a1.352,1.352,0,1,1,0-2.7H679.179a1.352,1.352,0,1,1,0,2.7Z" transform="translate(-207.527 -186.554)" fill="#ccc"/>
    <path id="Path_2917" data-name="Path 2917" d="M607.445,596.431c0-10.451-39.335-18.923-87.857-18.923s-87.857,8.472-87.857,18.923c0,6.7,16.172,12.579,40.549,15.942V716.051a8.786,8.786,0,0,0,17.571,0V614.24c9.289.72,19.3,1.114,29.736,1.114s20.447-.394,29.736-1.114V716.051a8.786,8.786,0,0,0,17.571,0V612.372C591.274,609.009,607.445,603.128,607.445,596.431Z" transform="translate(-158.606 -84.859)" fill="#ccc"/>
    <path id="Path_2918" data-name="Path 2918" d="M319.564,477.534h16.571l7.883-63.916H319.561Z" transform="translate(112.37 145.445)" fill="#a0616a"/>
    <path id="Path_2919" data-name="Path 2919" d="M0,0H52.08V20.122H20.122A20.122,20.122,0,0,1,0,0H0Z" transform="translate(480.46 638.368) rotate(179.997)" fill="#2f2e41"/>
    <path id="Path_2920" data-name="Path 2920" d="M343.68,471.834l15.81-4.962-11.613-63.345-23.335,7.322Z" transform="translate(114.122 141.897)" fill="#a0616a"/>
    <path id="Path_2921" data-name="Path 2921" d="M0,0H52.08V20.122H20.122A20.122,20.122,0,0,1,0,0H0Z" transform="translate(508.711 613.885) rotate(162.577)" fill="#2f2e41"/>
    <path id="Path_2922" data-name="Path 2922" d="M591.208,679.072,560.895,599.5c-6.8,1.6-63.833,14.217-82.935-6.121-6.546-6.971-7.823-17.07-3.795-30.017l11.148-14.009.346.018c4.215.222,103.313,5.776,110.106,35.668,5.728,25.2,16.188,72.185,19.257,85.985a6.1,6.1,0,0,1-3.8,7.006L599.028,682.6a6.03,6.03,0,0,1-2.125.387,6.1,6.1,0,0,1-5.695-3.916Z" transform="translate(-144.493 -94.76)" fill="#2f2e41"/>
    <path id="Path_2923" data-name="Path 2923" d="M578.208,686.072,547.895,606.5c-6.8,1.6-63.833,14.216-82.935-6.121-6.546-6.971-7.823-17.07-3.795-30.017l11.148-14.009.346.018c4.215.222,103.313,5.776,110.106,35.668,5.728,25.2,16.188,72.185,19.257,85.985a6.1,6.1,0,0,1-3.8,7.006L586.028,689.6a6.033,6.033,0,0,1-2.125.387,6.1,6.1,0,0,1-5.695-3.916Z" transform="translate(-149.064 -92.298)" fill="#2f2e41"/>
    <path id="Path_2924" data-name="Path 2924" d="M603.278,512.663a14.217,14.217,0,0,0-1.2,1.894l-66.663,7.023-9.6-13.157-21.749,11.887,18.848,31.927,81.757-20.846a14.187,14.187,0,1,0-1.4-18.73Z" transform="translate(-133.168 -109.636)" fill="#a0616a"/>
    <path id="Path_2925" data-name="Path 2925" d="M462.277,603.843a6.092,6.092,0,0,1-2.458-5.878c3.761-24.793-.566-60.309-4.859-85.738a33.514,33.514,0,0,1,37.25-38.875,107.943,107.943,0,0,1,13.4,2.641h0a33.246,33.246,0,0,1,25.116,33.072c-.642,24.538,4.341,55.155,6.513,67.178a6.108,6.108,0,0,1-1.127,4.745,5.936,5.936,0,0,1-4.184,2.365c-24.07,2.456-50.027,14.195-63.357,20.973a6.084,6.084,0,0,1-2.77.677A5.986,5.986,0,0,1,462.277,603.843Z" transform="translate(-150.606 -121.578)" fill="#6c63ff"/>
    <path id="Path_2926" data-name="Path 2926" d="M513.017,537.076a6.043,6.043,0,0,1-3.343-3.241l-13.424-31.01a15.544,15.544,0,0,1,28.529-12.348l13.424,31.01a6.09,6.09,0,0,1-3.166,8L517.672,537a6.04,6.04,0,0,1-4.655.074Z" transform="translate(-136.37 -118.759)" fill="#6c63ff"/>
    <path id="Path_2927" data-name="Path 2927" d="M556.278,510.663a14.222,14.222,0,0,0-1.2,1.894l-66.663,7.023-9.6-13.157-21.749,11.887,18.848,31.927,81.757-20.846a14.187,14.187,0,1,0-1.4-18.73Z" transform="translate(-149.695 -110.339)" fill="#a0616a"/>
    <path id="Path_2928" data-name="Path 2928" d="M466.017,538.076a6.043,6.043,0,0,1-3.343-3.24l-13.424-31.01a15.543,15.543,0,1,1,28.529-12.348l13.424,31.01a6.09,6.09,0,0,1-3.166,8L470.672,538a6.04,6.04,0,0,1-4.655.074Z" transform="translate(-152.898 -118.407)" fill="#6c63ff"/>
    <circle id="Ellipse_237" data-name="Ellipse 237" cx="33.198" cy="33.198" r="33.198" transform="translate(305.937 274.829)" fill="#a0616a"/>
    <path id="Path_2929" data-name="Path 2929" d="M467.254,475.721a2.886,2.886,0,0,1,2.509-3.81,6.664,6.664,0,0,1,4.7,2.318,18.7,18.7,0,0,0,4.151,3.564c1.606.81,3.784.694,4.7-.849.86-1.449.271-3.39-.25-5.073a49.889,49.889,0,0,1-2.2-13.206c-.15-5,.556-10.221,3.325-14.122,3.574-5.035,9.964-6.946,16.011-6.807s12,2.005,17.986,3.185c2.068.407,4.5.616,5.882-.987,1.471-1.7.931-4.462.3-6.763-1.623-5.971-3.345-12.144-7.117-16.966a25.544,25.544,0,0,0-16.3-9.178,39.115,39.115,0,0,0-18.2,2.066,48.789,48.789,0,0,0-23.9,16.65,39.516,39.516,0,0,0-7.54,29.2,36.045,36.045,0,0,0,13.362,22.781Z" transform="translate(-151.855 -144.911)" fill="#2f2e41"/>
    <path id="Path_2930" data-name="Path 2930" d="M369.752,534.335A164.958,164.958,0,0,1,383.4,482.273q3.081-6.883,6.783-13.463a1.005,1.005,0,0,0-1.735-1.014,167.235,167.235,0,0,0-18.609,51.338q-1.4,7.547-2.1,15.2c-.119,1.287,1.891,1.279,2.009,0Z" transform="translate(-181.109 -123.603)" fill="#3f3d56"/>
    <circle id="Ellipse_238" data-name="Ellipse 238" cx="12.725" cy="12.725" r="12.725" transform="translate(201.219 322.979)" fill="#6c63ff"/>
    <path id="Path_2931" data-name="Path 2931" d="M370.531,528.461a107.015,107.015,0,0,1,8.857-33.775q2-4.466,4.4-8.734a.652.652,0,0,0-1.126-.658A108.5,108.5,0,0,0,370.59,518.6q-.906,4.9-1.362,9.861C369.15,529.3,370.454,529.291,370.531,528.461Z" transform="translate(-180.587 -117.392)" fill="#3f3d56"/>
    <circle id="Ellipse_239" data-name="Ellipse 239" cx="8.255" cy="8.255" r="8.255" transform="translate(198.104 354.141)" fill="#6c63ff"/>
    <path id="Path_2932" data-name="Path 2932" d="M373.394,527.559A107.017,107.017,0,0,1,359.6,495.48q-1.17-4.75-1.9-9.593a.652.652,0,0,0-1.292.174,108.493,108.493,0,0,0,10.966,33.686q2.3,4.418,4.991,8.613c.453.706,1.477-.1,1.028-.8Z" transform="translate(-185.094 -117.268)" fill="#3f3d56"/>
    <circle id="Ellipse_240" data-name="Ellipse 240" cx="8.255" cy="8.255" r="8.255" transform="translate(163.049 353.561)" fill="#6c63ff"/>
    <path id="Path_2933" data-name="Path 2933" d="M350.224,527.781v-16.22a6.089,6.089,0,0,1,6.082-6.082h37.846a6.089,6.089,0,0,1,6.082,6.082v16.22a6.089,6.089,0,0,1-6.082,6.082H356.306A6.089,6.089,0,0,1,350.224,527.781Z" transform="translate(-187.268 -110.188)" fill="#ccc"/>
    <rect id="Rectangle_1694" data-name="Rectangle 1694" width="116.241" height="9.461" rx="3.5" transform="translate(390.719 412.902)" fill="#ccc"/>
    <path id="Path_2934" data-name="Path 2934" d="M687.814,547.31h-120.3a8.8,8.8,0,0,1-8.786-8.786v-66.23a8.8,8.8,0,0,1,8.786-8.786h120.3a8.8,8.8,0,0,1,8.786,8.786v66.23a8.8,8.8,0,0,1-8.786,8.786Z" transform="translate(-113.948 -124.946)" fill="#ccc"/>
    <circle id="Ellipse_241" data-name="Ellipse 241" cx="8.11" cy="8.11" r="8.11" transform="translate(505.608 372.352)" fill="#fff"/>
    <path id="Path_2935" data-name="Path 2935" d="M926.445,596.431c0-10.451-39.335-18.923-87.857-18.923s-87.857,8.472-87.857,18.923c0,6.7,16.172,12.579,40.549,15.942V716.051a8.786,8.786,0,0,0,17.571,0V614.24c9.289.72,19.3,1.114,29.736,1.114s20.448-.394,29.736-1.114V716.051a8.786,8.786,0,0,0,17.571,0V612.372C910.274,609.009,926.445,603.128,926.445,596.431Z" transform="translate(-46.433 -84.859)" fill="#ccc"/>
    <circle id="Ellipse_242" data-name="Ellipse 242" cx="37.846" cy="37.846" r="37.846" transform="translate(764.024 262.678)" fill="#2f2e41"/>
    <path id="Path_2936" data-name="Path 2936" d="M529.939,478.534H513.368l-7.883-63.916h24.457Z" transform="translate(177.749 145.796)" fill="#ffb8b8"/>
    <path id="Path_2937" data-name="Path 2937" d="M507.795,458.4h31.958v20.122h-52.08A20.122,20.122,0,0,1,507.795,458.4Z" transform="translate(171.485 161.193)" fill="#2f2e41"/>
    <path id="Path_2938" data-name="Path 2938" d="M508.552,472.835l-15.81-4.962,11.613-63.345,23.335,7.322Z" transform="translate(173.268 142.248)" fill="#ffb8b8"/>
    <path id="Path_2939" data-name="Path 2939" d="M20.122,0H52.08V20.122H0A20.122,20.122,0,0,1,20.122,0Z" transform="translate(636.931 596.035) rotate(17.423)" fill="#2f2e41"/>
    <path id="Path_2940" data-name="Path 2940" d="M742.84,683.988a6.03,6.03,0,0,1-2.125-.387l-12.191-4.571a6.1,6.1,0,0,1-3.8-7.006c3.069-13.8,13.53-60.784,19.257-85.985,6.793-29.892,105.891-35.446,110.106-35.668l.346-.018,11.148,14.008c4.028,12.948,2.751,23.047-3.795,30.017-19.1,20.338-76.134,7.718-82.935,6.121l-30.314,79.573A6.1,6.1,0,0,1,742.84,683.988Z" transform="translate(-55.629 -94.408)" fill="#2f2e41"/>
    <path id="Path_2941" data-name="Path 2941" d="M755.84,690.988a6.031,6.031,0,0,1-2.125-.387l-12.191-4.571a6.1,6.1,0,0,1-3.8-7.006c3.069-13.8,13.53-60.784,19.257-85.985,6.793-29.892,105.891-35.446,110.106-35.668l.346-.018,11.148,14.009c4.028,12.948,2.751,23.047-3.795,30.017-19.1,20.337-76.134,7.718-82.935,6.121l-30.313,79.573A6.1,6.1,0,0,1,755.84,690.988Z" transform="translate(-51.058 -91.947)" fill="#2f2e41"/>
    <path id="Path_2942" data-name="Path 2942" d="M731.627,513.663a14.226,14.226,0,0,1,1.2,1.894l66.663,7.023,9.6-13.157,21.749,11.887-18.848,31.927-81.757-20.846a14.187,14.187,0,1,1,1.4-18.73Z" transform="translate(-62.115 -109.284)" fill="#ffb8b8"/>
    <path id="Path_2943" data-name="Path 2943" d="M858.218,606a6.083,6.083,0,0,1-2.77-.677c-13.33-6.778-39.287-18.516-63.358-20.973a5.936,5.936,0,0,1-4.184-2.365,6.107,6.107,0,0,1-1.127-4.745c2.172-12.024,7.155-42.64,6.513-67.178a33.245,33.245,0,0,1,25.116-33.072h0a107.952,107.952,0,0,1,13.4-2.641,33.514,33.514,0,0,1,37.25,38.875c-4.292,25.429-8.62,60.945-4.859,85.738a6.092,6.092,0,0,1-2.458,5.878A5.986,5.986,0,0,1,858.218,606Z" transform="translate(-33.791 -121.227)" fill="#6c63ff"/>
    <path id="Path_2944" data-name="Path 2944" d="M798.586,538.505a6.077,6.077,0,0,1-2.415-.5L778.8,530.484a6.09,6.09,0,0,1-3.165-8l13.424-31.01a15.543,15.543,0,0,1,28.529,12.348l-13.424,31.01a6.1,6.1,0,0,1-5.583,3.671Z" transform="translate(-37.85 -118.407)" fill="#6c63ff"/>
    <circle id="Ellipse_243" data-name="Ellipse 243" cx="33.198" cy="33.198" r="33.198" transform="translate(767.29 276.181)" fill="#ffb8b8"/>
    <path id="Path_2945" data-name="Path 2945" d="M796.893,435.815a119.742,119.742,0,0,0,51.8,17.068l-5.46-6.543a40.126,40.126,0,0,0,12.4,2.461c4.231-.066,8.664-1.695,11.065-5.179a12.626,12.626,0,0,0,.845-11.664,23.914,23.914,0,0,0-7.524-9.408,44.793,44.793,0,0,0-41.691-7.451,26.772,26.772,0,0,0-12.452,7.987c-3.147,3.882-9.206,7.341-7.594,12.072Z" transform="translate(-30.201 -142.746)" fill="#2f2e41"/>
    <path id="Path_2946" data-name="Path 2946" d="M857.38,417.369a102.03,102.03,0,0,0-37.12-24c-8.973-3.324-18.74-5.378-28.121-3.49s-18.253,8.378-20.87,17.582c-2.14,7.526.07,15.63,3.391,22.715s7.755,13.655,10.441,21a47.94,47.94,0,0,1-48.239,64.287c9.217,1.236,17.714,5.567,26.723,7.873s19.643,2.149,26.338-4.305c7.084-6.829,7.226-17.932,6.883-27.766l-1.527-43.854c-.26-7.455-.481-15.149,2.207-22.107s9.078-13.051,16.537-12.988c5.653.048,10.657,3.473,15.191,6.85s9.332,6.981,14.964,7.483,12.061-3.665,11.639-9.3" transform="translate(-51.311 -151.092)" fill="#2f2e41"/>
    <path id="Path_2947" data-name="Path 2947" d="M482.2,281.087l76.439,1.8,11.074,81.715-70.592,1.584Z" transform="translate(169.56 98.841)" fill="#f6f1f1"/>
    <path id="Path_2948" data-name="Path 2948" d="M778.627,511.663a14.214,14.214,0,0,1,1.2,1.894l66.663,7.023,9.6-13.157,21.749,11.887-18.848,31.927-81.757-20.846a14.187,14.187,0,1,1,1.4-18.73Z" transform="translate(-45.588 -109.988)" fill="#ffb8b8"/>
    <path id="Path_2949" data-name="Path 2949" d="M845.586,539.505a6.077,6.077,0,0,1-2.415-.5l-17.366-7.517a6.09,6.09,0,0,1-3.166-8l13.424-31.01a15.543,15.543,0,0,1,28.529,12.348l-13.424,31.01a6.1,6.1,0,0,1-5.583,3.671Z" transform="translate(-21.323 -118.056)" fill="#6c63ff"/>
    <path id="Path_2950" data-name="Path 2950" d="M865.47,524.508H327.518a8.786,8.786,0,0,0,0,17.571h15.544V733.337a8.786,8.786,0,1,0,17.571,0V558.961l98.5,178.522a8.786,8.786,0,0,0,15.217-8.786L371.384,542.079H841.817v.114l-102.9,186.5a8.785,8.785,0,1,0,15.216,8.786L841.817,578.56V733.337a8.786,8.786,0,0,0,17.571,0V546.712l2.556-4.633h3.526a8.786,8.786,0,1,0,0-17.571Z" transform="translate(-198.342 -103.496)" fill="#3f3d56"/>
    <path id="Path_2951" data-name="Path 2951" d="M1229.179,687.811H231.272a1.609,1.609,0,0,1,0-3.219h997.908a1.609,1.609,0,0,1,0,3.219Z" transform="translate(-229.662 -47.204)" fill="#cdccd4"/>
  </g>
  <path id="Path_2997" data-name="Path 2997" d="M634.449,426.6V246.454a20.863,20.863,0,0,0-20.834-20.834H330.525a20.863,20.863,0,0,0-20.834,20.834V426.6a20.863,20.863,0,0,0,20.834,20.834H613.616A20.863,20.863,0,0,0,634.449,426.6ZM330.525,444.986A18.4,18.4,0,0,1,312.143,426.6V246.454a18.4,18.4,0,0,1,18.383-18.383H613.616A18.4,18.4,0,0,1,632,246.454V426.6a18.4,18.4,0,0,1-18.383,18.383Z" transform="translate(190.872 -225.621)" fill="#6c63ff"/>
  <path id="Path_2998" data-name="Path 2998" d="M632.259,264.4H312.4a1.225,1.225,0,0,1,0-2.451H632.259a1.225,1.225,0,1,1,0,2.451Z" transform="translate(190.611 -231.99)" fill="#6c63ff"/>
  <ellipse id="Ellipse_249" data-name="Ellipse 249" cx="6.128" cy="6.128" rx="6.128" ry="6.128" transform="translate(517.72 11.031)" fill="#6c63ff"/>
  <ellipse id="Ellipse_250" data-name="Ellipse 250" cx="6.128" cy="6.128" rx="6.128" ry="6.128" transform="translate(538.553 11.031)" fill="#6c63ff"/>
  <ellipse id="Ellipse_251" data-name="Ellipse 251" cx="6.128" cy="6.128" rx="6.128" ry="6.128" transform="translate(559.388 11.031)" fill="#6c63ff"/>
  <path id="Path_2999" data-name="Path 2999" d="M499.379,331.169h-9.9a5.773,5.773,0,0,1,0-11.546h9.9a5.773,5.773,0,1,1,0,11.546Z" transform="translate(160.364 -242.1)" fill="#ccc"/>
  <path id="Path_3000" data-name="Path 3000" d="M581.379,360.669h-9.9a5.773,5.773,0,1,1,0-11.546h9.9a5.773,5.773,0,1,1,0,11.546Z" transform="translate(145.989 -247.272)" fill="#ccc"/>
  <path id="Path_3001" data-name="Path 3001" d="M619.379,360.669h-9.9a5.773,5.773,0,0,1,0-11.546h9.9a5.773,5.773,0,1,1,0,11.546Z" transform="translate(139.327 -247.272)" fill="#ccc"/>
  <path id="Path_3002" data-name="Path 3002" d="M657.379,360.669h-9.9a5.773,5.773,0,0,1,0-11.546h9.9a5.773,5.773,0,1,1,0,11.546Z" transform="translate(132.665 -247.272)" fill="#ccc"/>
  <path id="Path_3003" data-name="Path 3003" d="M574.665,331.669H528.483a5.773,5.773,0,0,1,0-11.546h46.182a5.773,5.773,0,1,1,0,11.546Z" transform="translate(153.527 -242.188)" fill="#ccc"/>
  <path id="Path_3004" data-name="Path 3004" d="M535.665,359.669H489.483a5.773,5.773,0,0,1,0-11.546h46.183a5.773,5.773,0,0,1,0,11.546Z" transform="translate(160.364 -247.097)" fill="#ccc"/>
  <path id="Path_3005" data-name="Path 3005" d="M647.944,331.669H612.483a5.773,5.773,0,0,1,0-11.546h35.462a5.773,5.773,0,1,1,0,11.546Z" transform="translate(138.801 -242.188)" fill="#ccc"/>
  <path id="Path_3006" data-name="Path 3006" d="M499.379,390.169h-9.9a5.773,5.773,0,0,1,0-11.546h9.9a5.773,5.773,0,1,1,0,11.546Z" transform="translate(160.364 -252.444)" fill="#ccc"/>
  <path id="Path_3007" data-name="Path 3007" d="M574.665,390.669H528.483a5.773,5.773,0,0,1,0-11.546h46.182a5.773,5.773,0,1,1,0,11.546Z" transform="translate(153.527 -252.531)" fill="#ccc"/>
  <path id="Path_3008" data-name="Path 3008" d="M647.944,390.669H612.483a5.773,5.773,0,0,1,0-11.546h35.462a5.773,5.773,0,0,1,0,11.546Z" transform="translate(138.801 -252.531)" fill="#ccc"/>
  <path id="Path_3009" data-name="Path 3009" d="M637.71,415.4a5.779,5.779,0,0,1,5.773-5.773h9.9a5.773,5.773,0,0,1,0,11.546h-9.9A5.779,5.779,0,0,1,637.71,415.4Z" transform="translate(133.366 -257.878)" fill="#ccc"/>
  <path id="Path_3010" data-name="Path 3010" d="M554.71,415.9a5.779,5.779,0,0,1,5.773-5.773h46.183a5.773,5.773,0,0,1,0,11.546H560.483A5.779,5.779,0,0,1,554.71,415.9Z" transform="translate(147.917 -257.966)" fill="#ccc"/>
  <path id="Path_3011" data-name="Path 3011" d="M483.71,415.9a5.779,5.779,0,0,1,5.773-5.773h35.462a5.773,5.773,0,1,1,0,11.546H489.483a5.779,5.779,0,0,1-5.773-5.773Z" transform="translate(160.364 -257.966)" fill="#ccc"/>
  <g id="Group_715" data-name="Group 715" transform="translate(3698.955 20097.442)">
    <path id="Path_3018" data-name="Path 3018" d="M381.909,225.734c0,8.764-3.062,16.247-8.889,21.816-4.135,3.953-10.5,9.495-10.5,15.353v4.847H343.123V262.9c0-5.92-6.394-11.473-10.5-15.353-5.7-5.373-8.889-13.364-8.889-21.816v-.179a29.09,29.09,0,1,1,58.18.179Z" transform="translate(-3477.026 -20204.609)" fill="none"/>
    <path id="Path_2546" data-name="Path 2546" d="M360.2,266.419a.68.68,0,0,1-.681-.68v-4.848c0-5.7,5.62-11.019,9.724-14.9.34-.323.672-.635.99-.94,5.677-5.427,8.678-12.8,8.678-21.324a28.106,28.106,0,0,0-28.408-28.408h-.08A28.359,28.359,0,0,0,322.1,223.563v.159c0,8.347,3.162,16.119,8.675,21.323.279.264.569.535.867.814,4.157,3.892,9.85,9.222,9.85,15.033v4.848a.68.68,0,1,1-1.361,0v-4.848c0-5.22-5.444-10.317-9.419-14.04l-.871-.818c-5.784-5.46-9.1-13.592-9.1-22.311v-.163a29.723,29.723,0,0,1,29.686-29.605h.084a29.613,29.613,0,0,1,29.767,29.459q0,.155,0,.311c0,8.9-3.146,16.618-9.1,22.308-.32.306-.652.621-.995.945-3.924,3.715-9.3,8.8-9.3,13.915v4.848a.68.68,0,0,1-.68.68Z" transform="translate(-3474.713 -20202.598)" fill="#6c63ff"/>
    <path id="Path_2547" data-name="Path 2547" d="M432.544,544.2H419.615a1.134,1.134,0,1,1,0-2.268h12.929a1.134,1.134,0,1,1,0,2.268Z" transform="translate(-3550.285 -20471.652)" fill="#6c63ff"/>
    <path id="Path_3019" data-name="Path 3019" d="M438.2,578.7H435.42a5.318,5.318,0,0,1-2.743-.76.634.634,0,0,1-.288-.729.655.655,0,0,1,.635-.486H440.6a.655.655,0,0,1,.635.486.634.634,0,0,1-.288.729A5.317,5.317,0,0,1,438.2,578.7Z" transform="translate(-3561.018 -20498.553)" fill="#6c63ff"/>
    <path id="Path_3020" data-name="Path 3020" d="M435.919,562.863H422.913l-.04-.086a1.072,1.072,0,0,1,.2-.92,1.1,1.1,0,0,1,.867-.419h11.014a1.1,1.1,0,0,1,.867.419,1.066,1.066,0,0,1,.207.909l-.02.088Z" transform="translate(-3553.658 -20486.727)" fill="#6c63ff"/>
    <path id="Path_2548" data-name="Path 2548" d="M282.317,170.631a1.13,1.13,0,0,1-.745-.28l-9.739-8.5a1.134,1.134,0,1,1,1.492-1.709l9.739,8.5a1.134,1.134,0,0,1-.746,1.989Z" transform="translate(-3436.599 -20176.24)" fill="#6c63ff"/>
    <path id="Path_2549" data-name="Path 2549" d="M573.591,170.628a1.134,1.134,0,0,1-.746-1.989l9.739-8.5a1.134,1.134,0,1,1,1.492,1.709l-9.74,8.5A1.13,1.13,0,0,1,573.591,170.628Z" transform="translate(-3669.336 -20176.236)" fill="#6c63ff"/>
    <path id="Path_2550" data-name="Path 2550" d="M424.756,526.458H405.363a1.134,1.134,0,1,1,0-2.268h19.393a1.134,1.134,0,1,1,0,2.268Z" transform="translate(-3539.266 -20457.932)" fill="#6c63ff"/>
    <path id="Path_3021" data-name="Path 3021" d="M428.285,399.067l-4.033,24.24h-2.3l4.1-24.612a1.135,1.135,0,0,1,2.239.372Z" transform="translate(-3552.967 -20360.168)" fill="#6c63ff"/>
    <path id="Path_3022" data-name="Path 3022" d="M462.4,423.308h-2.3l-4.033-24.24a1.135,1.135,0,0,1,2.239-.372Z" transform="translate(-3579.334 -20360.168)" fill="#6c63ff"/>
    <path id="Path_2551" data-name="Path 2551" d="M419.485,396.134A1.134,1.134,0,0,1,420.619,395h12.474a1.134,1.134,0,0,1,0,2.268H420.619A1.134,1.134,0,0,1,419.485,396.134Z" transform="translate(-3551.062 -20358.043)" fill="#6c63ff"/>
    <path id="Path_2553" data-name="Path 2553" d="M448.115,83.592a1.134,1.134,0,0,1-1.134-1.134V63.065a1.134,1.134,0,0,1,2.268,0V82.458A1.134,1.134,0,0,1,448.115,83.592Z" transform="translate(-3572.321 -20100.521)" fill="#6c63ff"/>
    <path id="Path_2549-2" data-name="Path 2549" d="M573.591,170.628a1.134,1.134,0,0,1-.746-1.989l9.739-8.5a1.134,1.134,0,1,1,1.492,1.709l-9.74,8.5A1.13,1.13,0,0,1,573.591,170.628Z" transform="matrix(0.956, -0.292, 0.292, 0.956, -3705.148, -20010.398)" fill="#6c63ff"/>
    <path id="Path_2549-3" data-name="Path 2549" d="M573.591,170.628a1.134,1.134,0,0,1-.746-1.989l9.739-8.5a1.134,1.134,0,1,1,1.492,1.709l-9.74,8.5A1.13,1.13,0,0,1,573.591,170.628Z" transform="matrix(0.156, -0.988, 0.988, 0.156, -3397.402, -19476.145)" fill="#6c63ff"/>
  </g>
</svg>
