<svg xmlns="http://www.w3.org/2000/svg" xmlns:xlink="http://www.w3.org/1999/xlink" width="352.096" height="271" viewBox="0 0 352.096 271">
  <defs>
    <linearGradient id="linear-gradient" x1="0.531" y1="1.017" x2="0.531" y2="-0.007" gradientUnits="objectBoundingBox">
      <stop offset="0" stop-color="gray" stop-opacity="0.251"/>
      <stop offset="0.54" stop-color="gray" stop-opacity="0.122"/>
      <stop offset="1" stop-color="gray" stop-opacity="0.102"/>
    </linearGradient>
    <linearGradient id="linear-gradient-2" x1="0.5" y1="1" x2="0.5" y2="0.001" xlink:href="#linear-gradient"/>
  </defs>
  <g id="undraw_co-working_825n" transform="translate(0.007 0)">
    <path id="Path_3119" data-name="Path 3119" d="M369.6,172.15c-12.973,19.515-9.69,46.64-3.158,68.125,2.2,7.192,4.685,14.792,3.208,22.742-1.807,9.721-9.171,17.209-16.722,21.4-13.759,7.644-29.729,7.016-41.578-1.631-10.24-7.475-17.2-20.228-27.65-27.335-17.466-11.852-40.789-5.511-60.929,4.675-14.249,7.2-29.893,16.379-43.4,10.62-9.5-4.053-15.66-14.968-18.72-26.754-1.477-5.69-2.444-11.889-5.593-16.279a20.877,20.877,0,0,0-7-5.854c-23.788-13.429-55.173-3.5-78.188-18.6-15.531-10.18-24.771-30.647-28.221-52.374s-1.75-44.836.556-67.578c1.637-16.159,3.984-33.446,13-46.4A41.488,41.488,0,0,1,93.854,19.01c13.643,1.643,25.639,9.781,36.079,19.606,13.049,12.254,24.938,27.794,41.506,32.048,11.283,2.906,23.442.179,35.3-1.257,19.826-2.372,39.473-1.053,58.988.515,18.685,1.5,37.49,3.265,55.038,9.668,12.417,4.531,22.1,13.555,33.742,19.556,7.588,3.912,16.04,4.6,23.15,9.74,8.76,6.331,16.5,17.812,13.457,32C388.22,154.392,376.488,161.782,369.6,172.15Z" transform="translate(-39.7 -18.74)" fill="#6c63ff" opacity="0.1"/>
    <rect id="Rectangle_1697" data-name="Rectangle 1697" width="12.848" height="19.449" transform="translate(276.742 80.567)" fill="#6c63ff" opacity="0.1"/>
    <rect id="Rectangle_1698" data-name="Rectangle 1698" width="10.35" height="15.666" transform="translate(277.989 82.458)" fill="#6c63ff" opacity="0.1"/>
    <rect id="Rectangle_1699" data-name="Rectangle 1699" width="19.732" height="19.449" transform="translate(250.663 67.056)" fill="#6c63ff" opacity="0.1"/>
    <rect id="Rectangle_1700" data-name="Rectangle 1700" width="15.895" height="15.666" transform="translate(252.58 68.948)" fill="#6c63ff" opacity="0.1"/>
    <rect id="Rectangle_1701" data-name="Rectangle 1701" width="60.31" height="1.606" transform="translate(20.299 38.118)" fill="#6c63ff" opacity="0.1"/>
    <rect id="Rectangle_1702" data-name="Rectangle 1702" width="60.31" height="1.606" transform="translate(20.299 45.97)" fill="#6c63ff" opacity="0.1"/>
    <rect id="Rectangle_1703" data-name="Rectangle 1703" width="6.161" height="68.854" transform="translate(122.04 142.216)" fill="#d6d6e3"/>
    <path id="Path_3120" data-name="Path 3120" d="M930.254,341.186V277.674A6.677,6.677,0,0,1,936.931,271h0a6.677,6.677,0,0,1,6.664,6.674v76.866a6.677,6.677,0,0,1-6.677,6.677H895.567a6.677,6.677,0,0,1-6.677-6.677h0a6.677,6.677,0,0,1,6.677-6.677h28.011a6.677,6.677,0,0,0,6.677-6.677Z" transform="translate(-622.08 -191.74)" fill="#aebee1"/>
    <path id="Path_3121" data-name="Path 3121" d="M930.254,341.186V277.674A6.677,6.677,0,0,1,936.931,271h0a6.677,6.677,0,0,1,6.664,6.674v76.866a6.677,6.677,0,0,1-6.677,6.677H895.567a6.677,6.677,0,0,1-6.677-6.677h0a6.677,6.677,0,0,1,6.677-6.677h28.011a6.677,6.677,0,0,0,6.677-6.677Z" transform="translate(-622.08 -191.74)" fill="#535461"/>
    <path id="Path_3122" data-name="Path 3122" d="M888.92,354.181a6.677,6.677,0,0,1,6.667-6.319H923.6a6.677,6.677,0,0,0,6.677-6.677V277.674A6.677,6.677,0,0,1,936.631,271v83.181Z" transform="translate(-622.101 -191.74)" fill="#d6d6e3"/>
    <path id="Path_3123" data-name="Path 3123" d="M203.088,348V284.487a6.677,6.677,0,0,0-6.661-6.677h0a6.677,6.677,0,0,0-6.677,6.677v76.866a6.677,6.677,0,0,0,6.677,6.692h41.349a6.677,6.677,0,0,0,6.677-6.677h0a6.677,6.677,0,0,0-6.677-6.677H209.768a6.677,6.677,0,0,1-6.68-6.692Z" transform="translate(-142.609 -196.411)" fill="#aebee1"/>
    <path id="Path_3124" data-name="Path 3124" d="M203.088,348V284.487a6.677,6.677,0,0,0-6.661-6.677h0a6.677,6.677,0,0,0-6.677,6.677v76.866a6.677,6.677,0,0,0,6.677,6.692h41.349a6.677,6.677,0,0,0,6.677-6.677h0a6.677,6.677,0,0,0-6.677-6.677H209.768a6.677,6.677,0,0,1-6.68-6.692Z" transform="translate(-142.609 -196.411)" fill="#535461"/>
    <path id="Path_3125" data-name="Path 3125" d="M259.7,361.015a6.677,6.677,0,0,0-6.667-6.319H225.027a6.677,6.677,0,0,1-6.68-6.677V284.507A6.676,6.676,0,0,0,212,277.84v83.175Z" transform="translate(-157.868 -196.431)" fill="#d6d6e3"/>
    <rect id="Rectangle_1704" data-name="Rectangle 1704" width="6.161" height="70.459" transform="translate(243.939 142.216)" fill="#d6d6e3"/>
    <rect id="Rectangle_1705" data-name="Rectangle 1705" width="6.161" height="5.09" transform="translate(122.04 142.216)" opacity="0.1"/>
    <rect id="Rectangle_1706" data-name="Rectangle 1706" width="6.161" height="5.09" transform="translate(243.939 142.216)" opacity="0.1"/>
    <path id="Path_3126" data-name="Path 3126" d="M495.454,337.92q-.148,1.628-.374,3.3h-.87v-3.3Z" transform="translate(-351.408 -237.634)" opacity="0.1"/>
    <path id="Path_3127" data-name="Path 3127" d="M520.7,372.2a1.9,1.9,0,0,1-1.781,2.03h-18.8v-1.961h15.647a.983.983,0,0,0,.757-1.47l-14.189-28.859a1.257,1.257,0,0,0-1.1-.71H494.21v-3.3h8.864a.88.88,0,0,1,.77.5l16.266,31.42A5.342,5.342,0,0,1,520.7,372.2Z" transform="translate(-351.408 -237.641)" fill="#535461"/>
    <path id="Path_3128" data-name="Path 3128" d="M462.778,302.637l-.258.434-2.41-1.609,7.456-57.332h1.92s.079.264.207.767C470.978,249.852,477.29,277.913,462.778,302.637Z" transform="translate(-328.022 -173.313)" fill="#535461"/>
    <path id="Path_3129" data-name="Path 3129" d="M469.69,244.9l-6.912,57.74-.258.434-2.41-1.609,7.456-57.332h1.92S469.561,244.4,469.69,244.9Z" transform="translate(-328.022 -173.313)" opacity="0.1"/>
    <rect id="Rectangle_1707" data-name="Rectangle 1707" width="59.475" height="4.556" transform="translate(129.906 129.276) rotate(-83.17)" fill="#d6d6e3"/>
    <path id="Path_3130" data-name="Path 3130" d="M399.725,445.9a.54.54,0,0,1-.537.537h-.8a.537.537,0,0,1-.537-.537.264.264,0,0,1,0-.063.537.537,0,0,1,.531-.471h.8a.54.54,0,0,1,.518.408A.494.494,0,0,1,399.725,445.9Z" transform="translate(-285.32 -311.324)" fill="#e3edf9"/>
    <path id="Path_3131" data-name="Path 3131" d="M407.4,445.9a.54.54,0,0,1-.537.537h-.8a.537.537,0,0,1-.537-.537.529.529,0,0,1,.022-.148.506.506,0,0,1,.135-.229.525.525,0,0,1,.377-.157h.8a.54.54,0,0,1,.493.314.553.553,0,0,1,.047.22Z" transform="translate(-290.584 -311.324)" fill="#e3edf9"/>
    <path id="Path_3132" data-name="Path 3132" d="M414.219,445.9a.54.54,0,0,1-.537.537h-.8a.537.537,0,0,1-.537-.537.509.509,0,0,1,.047-.223.547.547,0,0,1,.487-.314h.8a.534.534,0,0,1,.537.537Z" transform="translate(-295.261 -311.317)" fill="#e3edf9"/>
    <path id="Path_3133" data-name="Path 3133" d="M421.9,445.9a.54.54,0,0,1-.537.537h-.8a.537.537,0,0,1-.44-.845l.063-.069a.525.525,0,0,1,.377-.157h.8a.54.54,0,0,1,.39.173A.518.518,0,0,1,421.9,445.9Z" transform="translate(-300.529 -311.324)" fill="#e3edf9"/>
    <path id="Path_3134" data-name="Path 3134" d="M399.709,446.66a.493.493,0,0,1,.016.129.54.54,0,0,1-.537.537h-.8a.537.537,0,0,1-.537-.537.264.264,0,0,1,0-.063Z" transform="translate(-285.32 -312.208)" opacity="0.1"/>
    <path id="Path_3135" data-name="Path 3135" d="M407.355,446.39a.553.553,0,0,1,.044.211.541.541,0,0,1-.537.537h-.8a.537.537,0,0,1-.537-.537.528.528,0,0,1,.022-.148Z" transform="translate(-290.584 -312.023)" opacity="0.1"/>
    <path id="Path_3136" data-name="Path 3136" d="M414.147,446.16a.536.536,0,0,1-.456.82h-.8a.537.537,0,0,1-.537-.537.508.508,0,0,1,.047-.223Z" transform="translate(-295.268 -311.865)" opacity="0.1"/>
    <path id="Path_3137" data-name="Path 3137" d="M421.9,446.274a.54.54,0,0,1-.537.537h-.8a.537.537,0,0,1-.44-.845l1.634-.057a.518.518,0,0,1,.148.364Z" transform="translate(-300.529 -311.694)" opacity="0.1"/>
    <path id="Path_3138" data-name="Path 3138" d="M407.427,448.765H391.89v-.707a1.21,1.21,0,0,1,1.169-1.21l12.461-.43a1.848,1.848,0,0,1,1.91,1.844Z" transform="translate(-281.237 -312.041)" fill="#d6d6e3"/>
    <path id="Path_3139" data-name="Path 3139" d="M685.309,372.2a1.9,1.9,0,0,0,1.782,2.03h18.814v-1.961H690.239a.983.983,0,0,1-.757-1.47l14.189-28.859a1.257,1.257,0,0,1,1.1-.71h7.022v-3.3h-8.857a.88.88,0,0,0-.757.493l-16.266,31.42a5.341,5.341,0,0,0-.6,2.356Z" transform="translate(-482.464 -237.641)" fill="#535461"/>
    <path id="Path_3140" data-name="Path 3140" d="M774.742,302.637l.258.434,2.41-1.609-7.456-57.332h-1.92s-.079.264-.207.767C766.538,249.852,760.213,277.913,774.742,302.637Z" transform="translate(-537.357 -173.313)" fill="#535461"/>
    <path id="Path_3141" data-name="Path 3141" d="M773.23,244.9l6.912,57.74.258.434,2.41-1.609-7.453-57.332h-1.92S773.359,244.4,773.23,244.9Z" transform="translate(-542.76 -173.313)" opacity="0.1"/>
    <rect id="Rectangle_1708" data-name="Rectangle 1708" width="4.556" height="59.475" transform="translate(230.638 70.761) rotate(-6.83)" fill="#d6d6e3"/>
    <path id="Path_3142" data-name="Path 3142" d="M860,445.9a.54.54,0,0,0,.537.537h.8a.537.537,0,0,0,.537-.537.27.27,0,0,0,0-.063.537.537,0,0,0-.531-.471h-.8a.54.54,0,0,0-.518.408A.491.491,0,0,0,860,445.9Z" transform="translate(-602.267 -311.324)" fill="#e3edf9"/>
    <path id="Path_3143" data-name="Path 3143" d="M852.328,445.9a.54.54,0,0,0,.537.537h.8a.537.537,0,0,0,.537-.537.528.528,0,0,0-.022-.148.506.506,0,0,0-.135-.229.525.525,0,0,0-.377-.157h-.82a.54.54,0,0,0-.493.314A.551.551,0,0,0,852.328,445.9Z" transform="translate(-597.005 -311.324)" fill="#e3edf9"/>
    <path id="Path_3144" data-name="Path 3144" d="M845.51,445.9a.54.54,0,0,0,.537.537h.8a.537.537,0,0,0,.537-.537.509.509,0,0,0-.047-.223.547.547,0,0,0-.487-.314h-.8a.534.534,0,0,0-.537.537Z" transform="translate(-592.33 -311.317)" fill="#e3edf9"/>
    <path id="Path_3145" data-name="Path 3145" d="M837.83,445.9a.54.54,0,0,0,.537.537h.8a.537.537,0,0,0,.44-.845l-.063-.069a.524.524,0,0,0-.377-.157h-.8a.541.541,0,0,0-.39.173A.519.519,0,0,0,837.83,445.9Z" transform="translate(-587.063 -311.324)" fill="#e3edf9"/>
    <path id="Path_3146" data-name="Path 3146" d="M860.016,446.66a.493.493,0,0,0-.016.129.54.54,0,0,0,.537.537h.8a.537.537,0,0,0,.537-.537.264.264,0,0,0,0-.063Z" transform="translate(-602.267 -312.208)" opacity="0.1"/>
    <path id="Path_3147" data-name="Path 3147" d="M852.374,446.39a.555.555,0,0,0-.044.211.54.54,0,0,0,.537.537h.8a.537.537,0,0,0,.537-.537.531.531,0,0,0-.022-.148Z" transform="translate(-597.007 -312.023)" opacity="0.1"/>
    <path id="Path_3148" data-name="Path 3148" d="M845.582,446.16a.536.536,0,0,0,.456.82h.8a.537.537,0,0,0,.537-.537.509.509,0,0,0-.047-.223Z" transform="translate(-592.323 -311.865)" opacity="0.1"/>
    <path id="Path_3149" data-name="Path 3149" d="M837.83,446.274a.54.54,0,0,0,.537.537h.8a.537.537,0,0,0,.44-.845l-1.634-.057A.518.518,0,0,0,837.83,446.274Z" transform="translate(-587.063 -311.694)" opacity="0.1"/>
    <path id="Path_3150" data-name="Path 3150" d="M822.483,448.765H838.02v-.707a1.21,1.21,0,0,0-1.169-1.21l-12.461-.43a1.848,1.848,0,0,0-1.91,1.844Z" transform="translate(-576.536 -312.041)" fill="#d6d6e3"/>
    <path id="Path_3151" data-name="Path 3151" d="M861.18,290.393c7.249-12.295,4.622-37.094,4.914-37.569.261-.418-.738-12.1-7.4-14.95-1.2-2.385-2.388-5.071-2.388-5.071a2.119,2.119,0,0,1-.383.286q-.079-.214-.154-.434c-.085-.248-.163-.5-.242-.757a4.883,4.883,0,0,0,.569.145,2.37,2.37,0,0,0,1.521-.135,1.7,1.7,0,0,0,.437-.336A3.311,3.311,0,0,0,859.112,230l1.939-4.644a36.152,36.152,0,0,0,2.218-6.425,18.091,18.091,0,0,0-.773-10.01,6.387,6.387,0,0,0-2.171-3.167c-2.159-1.464-5.162-.452-7.629-1.31-.811-.283-1.543-.76-2.353-1.049a7.237,7.237,0,0,0-5.411.49,25.748,25.748,0,0,0-4.521,3.142c-.726.556-1.885,1.131-2.74,1.885a2.76,2.76,0,0,0-1.345,2.46c.138,1.178,1.379,1.885,2.536,2.162.192.044.39.079.584.113a11.311,11.311,0,0,0,4.829,18.789,26.5,26.5,0,0,1,1.527,3.434q.085.242.166.487a19.609,19.609,0,0,0-3.692,1.238c-.9.748.987,7.3.987,7.3-.481.61-.971,1.3-1.467,2.049a44.161,44.161,0,0,0-6.963,19.031c-.314,2.485-.723,5.027-1.241,7.443L811.074,268.9l-.047.556-.537-.132h0l-1.69-.418-.066.38-.258-.123c-4.188-1.964-11.245-4.471-16.024-1.885-5.043,2.715,5.841,6.322,12.826,8.241a11.347,11.347,0,0,0-6.284,1.97c-5.065,3.8,9.259,5.772,16.024,6.473l.273.028v.145l2.344.217.55.05.053.836s3.356.55,7.839,1.216a136.737,136.737,0,0,1-15.836,2.683,11.587,11.587,0,0,0-9.872,8.311,7.39,7.39,0,0,0-.113,4c1.307,4.565-.289,38.15-.65,45.383l-8.279,4.766s-12.882,1.571-4.3,4.59a17.63,17.63,0,0,0,2.366.628c-1.131.729-1.034,1.681,2.3,2.85,8.587,3.01,28.548-.132,28.548-.132s-.437-3.538-1.147-6.479l.22.019s-2.061-7.67,1.065-11.537-.525-33.305-.525-33.305,5.473-2.265,21.834-2.413c13.2,3.387,19.628-8.738,19.537-15.006A3.339,3.339,0,0,1,861.18,290.393Z" transform="translate(-550.2 -145.152)" fill="url(#linear-gradient)"/>
    <path id="Path_3152" data-name="Path 3152" d="M830.068,410.064l-1.4,5.656s-1.257-.283-3.142-.767c-6.385-1.653-19.851-5.621-14.453-8.534,4.653-2.514,11.506-.069,15.575,1.838,1.489.7,2.608,1.329,3.107,1.624C829.968,410,830.068,410.064,830.068,410.064Z" transform="translate(-567.858 -283.876)" fill="#f8b9bf"/>
    <path id="Path_3153" data-name="Path 3153" d="M863.947,418.068l-1.005,4.085s-1.257-.283-3.142-.767l1.134-6.7c1.489.7,2.608,1.329,3.107,1.624Z" transform="translate(-602.13 -290.283)" opacity="0.1"/>
    <path id="Path_3154" data-name="Path 3154" d="M824.792,403.216l-3.9-.965L822.1,395.1l3.12.77Z" transform="translate(-562.972 -270.96)" fill="#d9dfe8"/>
    <path id="Path_3155" data-name="Path 3155" d="M829.634,404.1l-1.684-.415.635-7.3,1.48.364Z" transform="translate(-567.814 -271.845)" opacity="0.1"/>
    <path id="Path_3156" data-name="Path 3156" d="M907.975,343.805s-7.494-4.33-10.824,8.091-3.645,18.142-3.645,18.142l-23.666-4.732-.751,8.644s25.3,8.169,28.485,7.575,13.511-17.909,13.511-17.909S920.474,350.2,907.975,343.805Z" transform="translate(-608.501 -241.169)" fill="#6c63ff"/>
    <g id="Group_717" data-name="Group 717" transform="translate(241.968 102.219)" opacity="0.1">
      <path id="Path_3157" data-name="Path 3157" d="M830.068,410.064l-1.4,5.656s-1.257-.283-3.142-.767c-6.385-1.653-19.851-5.621-14.453-8.534,4.653-2.514,11.506-.069,15.575,1.838,1.489.7,2.608,1.329,3.107,1.624C829.968,410,830.068,410.064,830.068,410.064Z" transform="translate(-809.826 -386.096)"/>
      <path id="Path_3158" data-name="Path 3158" d="M863.947,418.068l-1.005,4.085s-1.257-.283-3.142-.767l1.134-6.7c1.489.7,2.608,1.329,3.107,1.624Z" transform="translate(-844.098 -392.503)" opacity="0.1"/>
      <path id="Path_3159" data-name="Path 3159" d="M824.792,403.216l-3.9-.965L822.1,395.1l3.12.77Z" transform="translate(-804.94 -373.18)"/>
      <path id="Path_3160" data-name="Path 3160" d="M829.634,404.1l-1.684-.415.635-7.3,1.48.364Z" transform="translate(-809.782 -374.064)" opacity="0.1"/>
      <path id="Path_3161" data-name="Path 3161" d="M907.975,344.805s-7.494-4.33-10.824,8.091-3.645,18.142-3.645,18.142l-23.666-4.732-.751,8.644s25.3,8.169,28.485,7.575,13.511-17.909,13.511-17.909S920.474,351.2,907.975,344.805Z" transform="translate(-850.469 -344.075)"/>
    </g>
    <path id="Path_3162" data-name="Path 3162" d="M804.687,650.464l-9.662,5.564s-12.518,1.533-4.179,4.455,27.725-.129,27.725-.129-1.078-8.71-2.58-9.926S804.687,650.464,804.687,650.464Z" transform="translate(-552.877 -451.589)" fill="#68739d"/>
    <path id="Path_3163" data-name="Path 3163" d="M875.117,452.686a67.241,67.241,0,0,1-13.347,4.685,133.753,133.753,0,0,1-15.6,2.658,11.251,11.251,0,0,0-9.589,8.053,7.176,7.176,0,0,0-.11,3.9c1.423,4.974-.7,45.4-.7,45.4l14.673,1.357s-2-7.45,1.037-11.2-.509-32.334-.509-32.334,5.316-2.2,21.2-2.344c14.717,3.77,20.781-12.339,18.51-16.854S875.117,452.686,875.117,452.686Z" transform="translate(-585.65 -316.243)" fill="#6394e2"/>
    <g id="Group_718" data-name="Group 718" transform="translate(235.105 136.3)" opacity="0.1">
      <path id="Path_3164" data-name="Path 3164" d="M804.687,650.464l-9.662,5.564s-12.518,1.533-4.179,4.455,27.725-.129,27.725-.129-1.078-8.71-2.58-9.926S804.687,650.464,804.687,650.464Z" transform="translate(-787.982 -587.889)"/>
      <path id="Path_3165" data-name="Path 3165" d="M875.117,452.686a67.241,67.241,0,0,1-13.347,4.685,133.753,133.753,0,0,1-15.6,2.658,11.251,11.251,0,0,0-9.589,8.053,7.176,7.176,0,0,0-.11,3.9c1.423,4.974-.7,45.4-.7,45.4l14.673,1.357s-2-7.45,1.037-11.2-.509-32.334-.509-32.334,5.316-2.2,21.2-2.344c14.717,3.77,20.781-12.339,18.51-16.854S875.117,452.686,875.117,452.686Z" transform="translate(-820.755 -452.543)"/>
    </g>
    <path id="Path_3166" data-name="Path 3166" d="M819.113,661.214l-9.662,5.564s-12.511,1.521-4.179,4.455S833,671.105,833,671.105s-1.078-8.71-2.58-9.926S819.113,661.214,819.113,661.214Z" transform="translate(-562.772 -458.962)" fill="#68739d"/>
    <path id="Path_3167" data-name="Path 3167" d="M886.543,483.6c-15.886.145-21.2,2.344-21.2,2.344s3.547,28.592.509,32.334-1.037,11.2-1.037,11.2l-14.673-1.357s.025-.478.066-1.332c.352-7.025,1.9-39.639.628-44.073a7.177,7.177,0,0,1,.11-3.884,11.255,11.255,0,0,1,9.586-8.072,129.962,129.962,0,0,0,15.6-2.658l.245-.063a66.681,66.681,0,0,0,13.1-4.622s13.294-1.194,15.565,3.321a5.341,5.341,0,0,1,.465,2.278C905.618,475.109,899.366,486.886,886.543,483.6Z" transform="translate(-595.505 -323.603)" fill="#6394e2"/>
    <path id="Path_3168" data-name="Path 3168" d="M851.2,436.9l-.537,5.813s-1.291-.091-3.211-.292c-6.557-.682-20.467-2.6-15.55-6.284,4.229-3.167,11.368-1.785,15.675-.5,1.571.471,2.778.927,3.315,1.144C851.087,436.852,851.2,436.9,851.2,436.9Z" transform="translate(-582.288 -303.663)" fill="#f8b9bf"/>
    <path id="Path_3169" data-name="Path 3169" d="M983.131,290.012s-1.967,1.54-4.37,3.23c-2.636.6-5.7,1.09-7.9,1.411a12.544,12.544,0,0,0-.575-7.82,29.437,29.437,0,0,0-3.943-7.252l13.3-4.151c-1.043,2.642-.572,5.656.314,8.276A27.29,27.29,0,0,0,983.131,290.012Z" transform="translate(-675.195 -194.779)" fill="#f8b9bf"/>
    <path id="Path_3170" data-name="Path 3170" d="M887.238,441.656l-.386,4.176s-1.291-.091-3.211-.292l.126-6.79c1.571.471,2.777.927,3.315,1.144Z" transform="translate(-618.48 -306.784)" opacity="0.1"/>
    <path id="Path_3171" data-name="Path 3171" d="M848.783,426.692l-4-.371.132-7.252,3.2.3Z" transform="translate(-579.356 -287.399)" fill="#d9dfe8"/>
    <path id="Path_3172" data-name="Path 3172" d="M991.738,308.042s-1.967,1.54-4.371,3.23c-2.636.6-5.7,1.09-7.9,1.411a12.545,12.545,0,0,0-.575-7.82c3.249-.943,7.9-2.162,9.671-3.142a27.281,27.281,0,0,0,3.177,6.322Z" transform="translate(-683.802 -212.808)" opacity="0.1"/>
    <path id="Path_3173" data-name="Path 3173" d="M981.086,302.22s2.225,5.049,3.626,7.33-16.282,4.4-16.282,4.4-1.835-6.356-.958-7.085S979.607,303.7,981.086,302.22Z" transform="translate(-675.809 -213.151)" fill="#d9dfe8"/>
    <path id="Path_3174" data-name="Path 3174" d="M962.815,469.02a15.908,15.908,0,0,1-2.752,3.563c-7.811,7.421-20.615-.314-26.393-4.543a66.677,66.677,0,0,0,13.1-4.622s13.294-1.194,15.565,3.321A5.341,5.341,0,0,1,962.815,469.02Z" transform="translate(-652.79 -323.603)" opacity="0.1"/>
    <path id="Path_3175" data-name="Path 3175" d="M953.735,371.022c-8.879,8.433-24.193-2.734-28.322-6.023-.669-.534-1.043-.864-1.043-.864,1.631-1.527,3.063-4.763,4.2-8.722a76.521,76.521,0,0,0,2.284-11.556,42.887,42.887,0,0,1,6.762-18.484c.481-.723.943-1.4,1.423-1.989,3.352-4.264,8.986-6.972,8.986-6.972,11.889-3.475,13.489,14.161,13.171,14.67S964.057,361.216,953.735,371.022Z" transform="translate(-646.412 -222.573)" fill="#6c63ff"/>
    <path id="Path_3176" data-name="Path 3176" d="M954.885,371.983s-7.644,18.663-10.7,19.729c-1.75.606-11.1-.544-18.77-1.64-.669-.534-1.043-.864-1.043-.864,1.631-1.527,3.063-4.763,4.2-8.722l9.882.471s-.55-5.7.9-18.481,9.5-9.614,9.5-9.614C962.162,357.319,954.885,371.983,954.885,371.983Z" transform="translate(-646.412 -247.642)" opacity="0.1"/>
    <path id="Path_3177" data-name="Path 3177" d="M852.747,427.035l-1.728-.16-.459-7.305,1.518.138Z" transform="translate(-583.32 -287.742)" opacity="0.1"/>
    <path id="Path_3178" data-name="Path 3178" d="M926.348,350.242s-8.047-3.164-9.5,9.615-.9,18.481-.9,18.481l-24.108-1.153.544,8.659s26.239,4.308,29.3,3.246,10.7-19.729,10.7-19.729S939.648,354.7,926.348,350.242Z" transform="translate(-624.103 -245.847)" fill="#6c63ff"/>
    <path id="Path_3179" data-name="Path 3179" d="M979.517,282.742c-.352-1.91,1.643-1.885,2.359-3.682l-13.3,4.151a29.359,29.359,0,0,1,2.463,3.918,11.033,11.033,0,0,0,2.115.408C976.328,287.839,977.318,284.719,979.517,282.742Z" transform="translate(-676.732 -197.268)" opacity="0.1"/>
    <circle id="Ellipse_308" data-name="Ellipse 308" cx="10.984" cy="10.984" r="10.984" transform="translate(284.774 88.111) rotate(-84.72)" fill="#f8b9bf"/>
    <path id="Path_3180" data-name="Path 3180" d="M949.568,218.9c.135,1.144,1.342,1.841,2.463,2.1a10.791,10.791,0,0,1,3.321.87c1.571.968,2,3.117,1.8,4.964-.11,1.043-.267,2.322.588,2.928a2.277,2.277,0,0,0,.88.314,8.252,8.252,0,0,0,2.708.094,3.851,3.851,0,0,1,1.571-.041,2.39,2.39,0,0,1,1.47,1.945c.16.839.072,1.712.2,2.558a5.31,5.31,0,0,0,4.185,4.317,2.3,2.3,0,0,0,1.477-.132,2.952,2.952,0,0,0,1.159-1.609l1.885-4.512a35.154,35.154,0,0,0,2.156-6.24,17.57,17.57,0,0,0-.751-9.721,6.229,6.229,0,0,0-2.108-3.076c-2.1-1.423-5.027-.44-7.409-1.257-.789-.273-1.5-.738-2.284-1.018a7.035,7.035,0,0,0-5.256.478,24.857,24.857,0,0,0-4.4,3.063C951.974,215.9,949.332,216.927,949.568,218.9Z" transform="translate(-663.683 -150.641)" opacity="0.1"/>
    <path id="Path_3181" data-name="Path 3181" d="M950.489,218.133c.135,1.144,1.342,1.841,2.463,2.1a10.791,10.791,0,0,1,3.321.87c1.571.968,2,3.117,1.8,4.964-.11,1.043-.267,2.322.588,2.928a2.278,2.278,0,0,0,.88.314,8.251,8.251,0,0,0,2.708.094,3.851,3.851,0,0,1,1.571-.041,2.391,2.391,0,0,1,1.47,1.945c.16.839.072,1.712.2,2.558a5.31,5.31,0,0,0,4.185,4.317,2.3,2.3,0,0,0,1.477-.132,2.952,2.952,0,0,0,1.159-1.609l1.885-4.512a35.163,35.163,0,0,0,2.156-6.24,17.57,17.57,0,0,0-.751-9.721,6.23,6.23,0,0,0-2.108-3.076c-2.1-1.423-5.027-.44-7.409-1.257-.789-.273-1.5-.738-2.284-1.018a7.035,7.035,0,0,0-5.257.478,24.855,24.855,0,0,0-4.4,3.063C952.9,215.13,950.256,216.157,950.489,218.133Z" transform="translate(-664.315 -150.113)" fill="#b96b6b"/>
    <path id="Path_3182" data-name="Path 3182" d="M955.236,373.34s-4.195,16.294-8.37,17.8-2.331,1.935-2.331,1.935" transform="translate(-659.963 -261.925)" opacity="0.1"/>
    <rect id="Rectangle_1709" data-name="Rectangle 1709" width="4.559" height="29.965" transform="translate(290.912 171.106)" fill="#d6d6e3"/>
    <rect id="Rectangle_1710" data-name="Rectangle 1710" width="4.559" height="2.221" transform="translate(290.912 171.106)" opacity="0.1"/>
    <path id="Path_3183" data-name="Path 3183" d="M936.57,559.6v.628a1.474,1.474,0,0,0,1.474,1.474h19.851a1.474,1.474,0,0,0,1.474-1.474V559.6a1.474,1.474,0,0,0-1.474-1.474H938.044A1.474,1.474,0,0,0,936.57,559.6Z" transform="translate(-654.779 -388.655)" fill="#d6d6e3"/>
    <path id="Path_3184" data-name="Path 3184" d="M937.65,558.667h22.123a1.467,1.467,0,0,0-1.137-.537H938.784A1.467,1.467,0,0,0,937.65,558.667Z" transform="translate(-655.52 -388.655)" opacity="0.1"/>
    <rect id="Rectangle_1711" data-name="Rectangle 1711" width="37.456" height="3.582" rx="1.791" transform="translate(274.467 199.441)" fill="#d6d6e3"/>
    <circle id="Ellipse_309" data-name="Ellipse 309" cx="2.281" cy="2.281" r="2.281" transform="translate(307.524 203.022)" fill="#535461"/>
    <circle id="Ellipse_310" data-name="Ellipse 310" cx="2.281" cy="2.281" r="2.281" transform="translate(274.3 203.022)" fill="#535461"/>
    <circle id="Ellipse_311" data-name="Ellipse 311" cx="2.281" cy="2.281" r="2.281" transform="translate(290.912 203.022)" fill="#535461"/>
    <rect id="Rectangle_1712" data-name="Rectangle 1712" width="35.828" height="5.536" rx="2.768" transform="translate(288.348 134.301)" fill="#d6d6e3"/>
    <path id="Path_3185" data-name="Path 3185" d="M970.159,653.5s-1.791,1.769-4.559,0" transform="translate(-674.688 -454.059)" opacity="0.1"/>
    <path id="Path_3186" data-name="Path 3186" d="M993.268,455.17v.437a2.278,2.278,0,0,1-2.278,2.278H959.718a2.278,2.278,0,0,1-2.278-2.278v-.437Z" transform="translate(-669.092 -318.045)" opacity="0.1"/>
    <rect id="Rectangle_1713" data-name="Rectangle 1713" width="6.161" height="78.506" transform="translate(258.405 142.216)" fill="#d6d6e3"/>
    <rect id="Rectangle_1714" data-name="Rectangle 1714" width="6.161" height="5.09" transform="translate(258.405 142.216)" opacity="0.1"/>
    <rect id="Rectangle_1715" data-name="Rectangle 1715" width="4.559" height="29.965" transform="translate(73.185 173.249)" fill="#d6d6e3"/>
    <rect id="Rectangle_1716" data-name="Rectangle 1716" width="4.559" height="2.221" transform="translate(73.185 173.249)" opacity="0.1"/>
    <path id="Path_3187" data-name="Path 3187" d="M266.408,566.461v.628a1.474,1.474,0,0,1-1.474,1.474H245.084a1.474,1.474,0,0,1-1.474-1.474v-.628A1.474,1.474,0,0,1,245.084,565h19.851a1.474,1.474,0,0,1,1.474,1.474Z" transform="translate(-179.546 -393.366)" fill="#d6d6e3"/>
    <path id="Path_3188" data-name="Path 3188" d="M266.806,565.521H244.68a1.467,1.467,0,0,1,1.137-.522h19.851A1.467,1.467,0,0,1,266.806,565.521Z" transform="translate(-180.28 -393.366)" opacity="0.1"/>
    <rect id="Rectangle_1717" data-name="Rectangle 1717" width="37.456" height="3.582" rx="1.791" transform="translate(56.737 201.583)" fill="#d6d6e3"/>
    <circle id="Ellipse_312" data-name="Ellipse 312" cx="2.281" cy="2.281" r="2.281" transform="translate(56.573 205.165)" fill="#535461"/>
    <circle id="Ellipse_313" data-name="Ellipse 313" cx="2.281" cy="2.281" r="2.281" transform="translate(89.793 205.165)" fill="#535461"/>
    <circle id="Ellipse_314" data-name="Ellipse 314" cx="2.281" cy="2.281" r="2.281" transform="translate(73.182 205.165)" fill="#535461"/>
    <path id="Path_3189" data-name="Path 3189" d="M272.64,660.32s1.791,1.769,4.559,0" transform="translate(-199.455 -458.737)" opacity="0.1"/>
    <path id="Path_3190" data-name="Path 3190" d="M628.539,303.755s-5.115-9.3-3.246-17.378a16.078,16.078,0,0,0-.9-10.13,27.045,27.045,0,0,0-2.4-4.317" transform="translate(-439.047 -192.378)" fill="none" stroke="#535461" stroke-miterlimit="10" stroke-width="2"/>
    <path id="Path_3191" data-name="Path 3191" d="M615.762,251.446c.267,1.219-1.162,5.238-1.162,5.238s-2.982-3.048-3.252-4.267a2.259,2.259,0,1,1,4.4-.971Z" transform="translate(-431.674 -176.997)" fill="#6c63ff"/>
    <path id="Path_3192" data-name="Path 3192" d="M632.433,267.786c-.437,1.169-3.821,3.77-3.821,3.77s-.848-4.179-.409-5.341a2.259,2.259,0,1,1,4.232,1.571Z" transform="translate(-443.214 -187.389)" fill="#6c63ff"/>
    <path id="Path_3193" data-name="Path 3193" d="M638.15,302.686c-.968.789-5.2,1.32-5.2,1.32s1.379-4.034,2.347-4.823a2.259,2.259,0,1,1,2.853,3.5Z" transform="translate(-446.556 -210.72)" fill="#6c63ff"/>
    <path id="Path_3194" data-name="Path 3194" d="M638.252,332.3c-.82.943-4.9,2.181-4.9,2.181s.675-4.21,1.5-5.15a2.259,2.259,0,1,1,3.4,2.969Z" transform="translate(-446.83 -231.174)" fill="#6c63ff"/>
    <path id="Path_3195" data-name="Path 3195" d="M612.751,281.371c1.062.657,5.326.628,5.326.628s-1.885-3.824-2.947-4.481a2.259,2.259,0,1,0-2.378,3.84Z" transform="translate(-431.935 -195.956)" fill="#6c63ff"/>
    <path id="Path_3196" data-name="Path 3196" d="M611.484,315.035c1.21.314,5.272-.98,5.272-.98s-2.944-3.085-4.154-3.393a2.259,2.259,0,0,0-1.119,4.374Z" transform="translate(-430.73 -218.906)" fill="#6c63ff"/>
    <path id="Path_3197" data-name="Path 3197" d="M616.41,348.422c1.137.509,5.363-.075,5.363-.075s-2.382-3.538-3.519-4.047a2.259,2.259,0,0,0-1.844,4.125Z" transform="translate(-434.295 -241.874)" fill="#6c63ff"/>
    <path id="Path_3198" data-name="Path 3198" d="M615.762,251.446c.267,1.219-1.162,5.238-1.162,5.238s-2.982-3.048-3.252-4.267a2.259,2.259,0,1,1,4.4-.971Z" transform="translate(-431.674 -176.997)" fill="#6c63ff"/>
    <path id="Path_3199" data-name="Path 3199" d="M632.433,267.786c-.437,1.169-3.821,3.77-3.821,3.77s-.848-4.179-.409-5.341a2.259,2.259,0,1,1,4.232,1.571Z" transform="translate(-443.214 -187.389)" fill="#6c63ff"/>
    <path id="Path_3200" data-name="Path 3200" d="M638.15,302.686c-.968.789-5.2,1.32-5.2,1.32s1.379-4.034,2.347-4.823a2.259,2.259,0,1,1,2.853,3.5Z" transform="translate(-446.556 -210.72)" fill="#6c63ff"/>
    <path id="Path_3201" data-name="Path 3201" d="M638.252,332.3c-.82.943-4.9,2.181-4.9,2.181s.675-4.21,1.5-5.15a2.259,2.259,0,1,1,3.4,2.969Z" transform="translate(-446.83 -231.174)" fill="#6c63ff"/>
    <path id="Path_3202" data-name="Path 3202" d="M612.751,281.371c1.062.657,5.326.628,5.326.628s-1.885-3.824-2.947-4.481a2.259,2.259,0,1,0-2.378,3.84Z" transform="translate(-431.935 -195.956)" fill="#6c63ff"/>
    <path id="Path_3203" data-name="Path 3203" d="M611.484,315.035c1.21.314,5.272-.98,5.272-.98s-2.944-3.085-4.154-3.393a2.259,2.259,0,0,0-1.119,4.374Z" transform="translate(-430.73 -218.906)" fill="#6c63ff"/>
    <path id="Path_3204" data-name="Path 3204" d="M616.41,348.422c1.137.509,5.363-.075,5.363-.075s-2.382-3.538-3.519-4.047a2.259,2.259,0,0,0-1.844,4.125Z" transform="translate(-434.295 -241.874)" fill="#6c63ff"/>
    <path id="Path_3205" data-name="Path 3205" d="M624.433,390.742h0a5.385,5.385,0,0,1-5.376-5.725l1.505-23.848H628.3l1.505,23.848a5.385,5.385,0,0,1-5.376,5.725Z" transform="translate(-437.021 -253.579)" fill="#6c63ff"/>
    <rect id="Rectangle_1718" data-name="Rectangle 1718" width="4.399" height="18.224" transform="translate(26.262 19.926)" fill="#6c63ff" opacity="0.1"/>
    <rect id="Rectangle_1719" data-name="Rectangle 1719" width="4.399" height="18.224" transform="translate(31.918 19.926)" fill="#6c63ff" opacity="0.1"/>
    <rect id="Rectangle_1720" data-name="Rectangle 1720" width="4.399" height="18.224" transform="translate(37.574 19.926)" fill="#6c63ff" opacity="0.1"/>
    <rect id="Rectangle_1721" data-name="Rectangle 1721" width="4.399" height="18.224" transform="translate(43.229 19.926)" fill="#6c63ff" opacity="0.1"/>
    <rect id="Rectangle_1722" data-name="Rectangle 1722" width="4.399" height="18.224" transform="translate(54.54 19.926)" fill="#6c63ff" opacity="0.1"/>
    <rect id="Rectangle_1723" data-name="Rectangle 1723" width="4.399" height="18.224" transform="translate(60.196 19.926)" fill="#6c63ff" opacity="0.1"/>
    <rect id="Rectangle_1724" data-name="Rectangle 1724" width="4.399" height="0.943" transform="translate(26.262 23.382)" fill="#6c63ff" opacity="0.1"/>
    <rect id="Rectangle_1725" data-name="Rectangle 1725" width="4.399" height="0.943" transform="translate(26.262 34.694)" fill="#6c63ff" opacity="0.1"/>
    <rect id="Rectangle_1726" data-name="Rectangle 1726" width="4.399" height="0.943" transform="translate(31.918 23.382)" fill="#6c63ff" opacity="0.1"/>
    <rect id="Rectangle_1727" data-name="Rectangle 1727" width="4.399" height="0.943" transform="translate(31.918 34.694)" fill="#6c63ff" opacity="0.1"/>
    <rect id="Rectangle_1728" data-name="Rectangle 1728" width="4.399" height="0.943" transform="translate(37.574 23.382)" fill="#6c63ff" opacity="0.1"/>
    <rect id="Rectangle_1729" data-name="Rectangle 1729" width="4.399" height="0.943" transform="translate(37.574 34.694)" fill="#6c63ff" opacity="0.1"/>
    <rect id="Rectangle_1730" data-name="Rectangle 1730" width="4.399" height="0.943" transform="translate(43.229 23.382)" fill="#6c63ff" opacity="0.1"/>
    <rect id="Rectangle_1731" data-name="Rectangle 1731" width="4.399" height="0.943" transform="translate(43.229 34.694)" fill="#6c63ff" opacity="0.1"/>
    <rect id="Rectangle_1732" data-name="Rectangle 1732" width="4.399" height="0.943" transform="translate(48.885 23.382)" fill="#6c63ff" opacity="0.1"/>
    <rect id="Rectangle_1733" data-name="Rectangle 1733" width="4.399" height="0.943" transform="translate(48.885 34.694)" fill="#6c63ff" opacity="0.1"/>
    <rect id="Rectangle_1734" data-name="Rectangle 1734" width="4.399" height="0.943" transform="translate(54.54 23.382)" fill="#6c63ff" opacity="0.1"/>
    <rect id="Rectangle_1735" data-name="Rectangle 1735" width="4.399" height="0.943" transform="translate(54.54 34.694)" fill="#6c63ff" opacity="0.1"/>
    <rect id="Rectangle_1736" data-name="Rectangle 1736" width="4.399" height="0.943" transform="translate(60.196 23.382)" fill="#6c63ff" opacity="0.1"/>
    <rect id="Rectangle_1737" data-name="Rectangle 1737" width="4.399" height="0.943" transform="translate(60.196 34.694)" fill="#6c63ff" opacity="0.1"/>
    <rect id="Rectangle_1738" data-name="Rectangle 1738" width="4.399" height="18.224" transform="translate(48.885 19.926)" fill="#6c63ff" opacity="0.1"/>
    <rect id="Rectangle_1739" data-name="Rectangle 1739" width="4.399" height="18.224" transform="translate(64.739 21.69) rotate(-24.84)" fill="#6c63ff" opacity="0.1"/>
    <rect id="Rectangle_1740" data-name="Rectangle 1740" width="4.399" height="0.943" transform="translate(66.192 24.83) rotate(-24.84)" fill="#6c63ff" opacity="0.1"/>
    <rect id="Rectangle_1741" data-name="Rectangle 1741" width="4.399" height="0.943" transform="translate(70.942 35.093) rotate(-24.84)" fill="#6c63ff" opacity="0.1"/>
    <path id="Path_3206" data-name="Path 3206" d="M277.148,348.547l-7.984-5.093c-.041-7.173-.154-40.475,1.338-44.93a7.318,7.318,0,0,0,.063-3.962,11.47,11.47,0,0,0-9.4-8.653,135.144,135.144,0,0,1-15.553-3.346c4.465-.462,7.811-.861,7.811-.861l.088-.826,2.875-.138v-.123l.273-.016c6.714-.4,20.973-1.728,16.128-5.706a11.173,11.173,0,0,0-6.117-2.225c6.994-1.6,17.925-4.688,13.052-7.594-4.631-2.759-11.723-.591-15.955,1.172l-.261.11-.047-.38-1.69.339h0l-.537.107-.025-.553-23.719,3.664a80.962,80.962,0,0,0-.968-8.109c.531-3.538,3-8.7,2.13-11.465-1.012-3.214-5.165-4.267-6.912-7.17-.459-.757-.914-1.467-1.36-2.089a21.993,21.993,0,0,0-3.346-3.616,15.271,15.271,0,0,1,1.232-5.42,26.261,26.261,0,0,1,1.659-3.331,11.185,11.185,0,0,0,8.307-12.882c1.5.644,3.327.71,4.267-.547l-.446-.173a1.412,1.412,0,0,0,.126-.148,8.433,8.433,0,0,1-2.6-1.379,3.047,3.047,0,0,1-.456-.676c-.434-.88-.383-1.935-.8-2.828a3.27,3.27,0,0,0-.814-1.062,5.6,5.6,0,0,0-2.658-1.521,33.6,33.6,0,0,1-3.415-.943,11.547,11.547,0,0,0-12.288-3.456l-.393.135a5.124,5.124,0,1,0-10-2.262,5.112,5.112,0,0,1,1.371-3.06c-.082.069-.167.135-.245.207a5.128,5.128,0,0,0-.223,7.249l.091.088a5.15,5.15,0,0,0,1.285,1.125,5.128,5.128,0,0,1-3.381-4.2c0,.107,0,.214,0,.314a5.128,5.128,0,0,0,5.451,4.82l.141-.016-.075.1A11.534,11.534,0,0,0,214.2,221.5a5.341,5.341,0,0,0,.823,1.32,4.278,4.278,0,0,0,.38.383,4.873,4.873,0,0,0,3.286,1.514q.314.374.669.72a18.706,18.706,0,0,1-.811,2.589,27.445,27.445,0,0,1-2.488,4.8c-6.787,1.929-7.384,13.454-7.139,13.891.292.522-1.012,18.619,4.015,40.481-.207,6.249,3.437,16.583,16.376,13.859,16.181.864,21.488,3.343,21.488,3.343s-1.536,28.143.657,32.24c1.373,2.567.4,6.337-.628,9a9.889,9.889,0,0,0-.9,2.086c-.314.663-.544,1.065-.544,1.065h.22c-.829,2.881-1.417,6.359-1.417,6.359s19.615,3.981,28.243,1.376c3.349-1.012,3.488-1.948,2.4-2.721a17.459,17.459,0,0,0,2.369-.518C289.835,350.681,277.148,348.547,277.148,348.547Z" transform="translate(-154.885 -140.714)" fill="url(#linear-gradient-2)"/>
    <path id="Path_3207" data-name="Path 3207" d="M243.622,230.311A11.311,11.311,0,1,1,232.311,219,11.311,11.311,0,0,1,243.622,230.311Z" transform="translate(-164.04 -156.079)" fill="#fa595f"/>
    <path id="Path_3208" data-name="Path 3208" d="M374.09,415.219l1.147,5.725s1.276-.229,3.164-.628c6.451-1.367,20.08-4.741,14.8-7.89-4.54-2.705-11.493-.578-15.641,1.15-1.521.628-2.664,1.213-3.177,1.486C374.194,415.159,374.09,415.219,374.09,415.219Z" transform="translate(-269.03 -287.846)" fill="#f8b9bf"/>
    <path id="Path_3209" data-name="Path 3209" d="M375.058,422.158l.823,4.11s1.276-.229,3.164-.628l-.839-6.74c-1.521.628-2.664,1.213-3.177,1.486Z" transform="translate(-269.674 -293.17)" opacity="0.1"/>
    <path id="Path_3210" data-name="Path 3210" d="M334.557,407.307l3.94-.789-.892-7.2-3.155.632Z" transform="translate(-229.371 -273.854)" fill="#d9dfe8"/>
    <path id="Path_3211" data-name="Path 3211" d="M334.557,408.034l1.7-.342-.311-7.311-1.5.3Z" transform="translate(-229.371 -274.581)" opacity="0.1"/>
    <path id="Path_3212" data-name="Path 3212" d="M243.773,342.68s7.67-4,10.457,8.562,2.828,18.283,2.828,18.283l23.854-3.686.371,8.669s-25.639,7.047-28.79,6.312-12.719-18.491-12.719-18.491S231.007,348.521,243.773,342.68Z" transform="translate(-174.902 -240.484)" fill="#6c63ff"/>
    <g id="Group_719" data-name="Group 719" transform="translate(62.564 102.22)" opacity="0.1">
      <path id="Path_3213" data-name="Path 3213" d="M374.09,415.219l1.147,5.725s1.276-.229,3.164-.628c6.451-1.367,20.08-4.741,14.8-7.89-4.54-2.705-11.493-.578-15.641,1.15-1.521.628-2.664,1.213-3.177,1.486C374.194,415.159,374.09,415.219,374.09,415.219Z" transform="translate(-331.594 -390.066)"/>
      <path id="Path_3214" data-name="Path 3214" d="M375.058,422.158l.823,4.11s1.276-.229,3.164-.628l-.839-6.74c-1.521.628-2.664,1.213-3.177,1.486Z" transform="translate(-332.239 -395.39)" opacity="0.1"/>
      <path id="Path_3215" data-name="Path 3215" d="M334.557,407.307l3.94-.789-.892-7.2-3.155.632Z" transform="translate(-291.935 -376.074)"/>
      <path id="Path_3216" data-name="Path 3216" d="M334.557,408.034l1.7-.342-.311-7.311-1.5.3Z" transform="translate(-291.935 -376.801)" opacity="0.1"/>
      <path id="Path_3217" data-name="Path 3217" d="M245.773,344.68s7.67-4,10.457,8.562,2.828,18.283,2.828,18.283l23.854-3.686.371,8.669s-25.639,7.047-28.79,6.312-12.719-18.491-12.719-18.491S233.007,350.521,245.773,344.68Z" transform="translate(-238.838 -344.076)"/>
    </g>
    <path id="Path_3218" data-name="Path 3218" d="M365.775,654.653l9.407,5.97s12.439,2.083,3.978,4.638-27.69-1.351-27.69-1.351,1.461-8.653,3.016-9.8S365.775,654.653,365.775,654.653Z" transform="translate(-253.517 -454.204)" fill="#f37291"/>
    <path id="Path_3219" data-name="Path 3219" d="M250.467,452.127a67.163,67.163,0,0,0,13.127,5.269,130.936,130.936,0,0,0,15.465,3.346,11.252,11.252,0,0,1,9.222,8.483,7.177,7.177,0,0,1-.06,3.883c-1.64,4.908-1.307,45.392-1.307,45.392l-14.717.707s2.328-7.355-.54-11.239,1.935-32.278,1.935-32.278-5.213-2.432-21.08-3.277c-14.871,3.142-20.216-13.243-17.746-17.655S250.467,452.127,250.467,452.127Z" transform="translate(-173.085 -315.714)" fill="#96a2d0"/>
    <g id="Group_720" data-name="Group 720" transform="translate(61.103 136.058)" opacity="0.1">
      <path id="Path_3220" data-name="Path 3220" d="M365.775,654.653l9.407,5.97s12.439,2.083,3.978,4.638-27.69-1.351-27.69-1.351,1.461-8.653,3.016-9.8S365.775,654.653,365.775,654.653Z" transform="translate(-314.62 -590.262)"/>
      <path id="Path_3221" data-name="Path 3221" d="M250.467,452.127a67.163,67.163,0,0,0,13.127,5.269,130.936,130.936,0,0,0,15.465,3.346,11.252,11.252,0,0,1,9.222,8.483,7.177,7.177,0,0,1-.06,3.883c-1.64,4.908-1.307,45.392-1.307,45.392l-14.717.707s2.328-7.355-.54-11.239,1.935-32.278,1.935-32.278-5.213-2.432-21.08-3.277c-14.871,3.142-20.216-13.243-17.746-17.655S250.467,452.127,250.467,452.127Z" transform="translate(-234.188 -451.772)"/>
    </g>
    <path id="Path_3222" data-name="Path 3222" d="M350.855,664.763l9.407,5.97s12.439,2.083,3.978,4.638-27.69-1.351-27.69-1.351,1.461-8.653,3.016-9.8S350.855,664.763,350.855,664.763Z" transform="translate(-243.285 -461.137)" fill="#f37291"/>
    <path id="Path_3223" data-name="Path 3223" d="M242.594,483.213c15.867.845,21.08,3.277,21.08,3.277s-1.505,27.593.628,31.608c2.278,4.26-2.036,11.908-2.036,11.908l14.717-.707v-1.332c-.044-7.032-.151-39.683,1.31-44.06a7.176,7.176,0,0,0,.06-3.883,11.255,11.255,0,0,0-9.222-8.483,130.14,130.14,0,0,1-15.465-3.343l-.242-.075a65.894,65.894,0,0,1-12.882-5.194s-9.8-.679-12.254,3.733c-.314.572-1.668,1.7-1.725,2.6C226.2,475.342,229.655,485.937,242.594,483.213Z" transform="translate(-167.838 -323.339)" fill="#96a2d0"/>
    <path id="Path_3224" data-name="Path 3224" d="M351.81,440.852l.28,5.832s1.295-.035,3.224-.151c6.582-.393,20.564-1.694,15.814-5.593-4.085-3.352-11.28-2.284-15.638-1.194-1.6.4-2.828.8-3.362,1C351.92,440.811,351.81,440.852,351.81,440.852Z" transform="translate(-253.75 -306.733)" fill="#f8b9bf"/>
    <path id="Path_3225" data-name="Path 3225" d="M233,287.825s1.885,1.624,4.223,3.422c2.608.71,5.656,1.342,7.833,1.76a12.567,12.567,0,0,1,.921-7.789,29.435,29.435,0,0,1,4.261-7.073l-13.1-4.735c.927,2.686.314,5.687-.682,8.254A27.289,27.289,0,0,1,233,287.825Z" transform="translate(-172.27 -193.393)" fill="#f8b9bf"/>
    <path id="Path_3226" data-name="Path 3226" d="M352.06,444.822l.2,4.188s1.294-.035,3.224-.151l.176-6.79c-1.6.4-2.828.8-3.362,1Z" transform="translate(-253.921 -309.06)" opacity="0.1"/>
    <path id="Path_3227" data-name="Path 3227" d="M309.62,429.8l4.012-.192.189-7.252-3.211.154Z" transform="translate(-212.342 -289.655)" fill="#d9dfe8"/>
    <path id="Path_3228" data-name="Path 3228" d="M218.158,368.7c8.483,8.82,24.3-1.662,28.558-4.766.691-.506,1.078-.817,1.078-.817-1.571-1.6-4.085-3.079-5.049-7.085a87.03,87.03,0,0,1-1.866-12.417c-.261-3.315,3.164-9.627,2.174-12.775s-5.065-4.182-6.777-7.032c-.449-.742-.9-1.439-1.335-2.049-3.161-4.4-8.669-7.362-8.669-7.362-11.735-4.006-12.656,12.753-12.364,13.275S212.858,346.672,218.158,368.7Z" transform="translate(-159.147 -221.081)" fill="#6c63ff"/>
    <path id="Path_3229" data-name="Path 3229" d="M223.7,370.071s6.815,18.984,9.822,20.181c1.722.685,11.113-.053,18.824-.811.691-.506,1.078-.817,1.078-.817-1.571-1.6-2.85-4.9-3.811-8.9l-9.894.035s.8-5.656-.085-18.5-9.065-10.023-9.065-10.023C217.084,355.1,223.7,370.071,223.7,370.071Z" transform="translate(-164.781 -246.585)" opacity="0.1"/>
    <path id="Path_3230" data-name="Path 3230" d="M309.62,429.982l1.731-.082.782-7.28-1.524.072Z" transform="translate(-212.342 -289.834)" opacity="0.1"/>
    <path id="Path_3231" data-name="Path 3231" d="M231.314,348.643s8.169-2.806,9.065,10.023.094,18.5.094,18.5l24.137-.088-.927,8.628s-26.393,3.142-29.409,1.951-9.825-20.178-9.825-20.178S217.822,352.511,231.314,348.643Z" transform="translate(-165.289 -244.81)" fill="#6c63ff"/>
    <path id="Path_3232" data-name="Path 3232" d="M246,280.77c.437-1.885-1.571-1.945-2.2-3.77l13.108,4.713a29.345,29.345,0,0,0-2.633,3.8,11.034,11.034,0,0,1-2.13.314C248.959,285.989,248.108,282.838,246,280.77Z" transform="translate(-179.677 -195.855)" opacity="0.1"/>
    <circle id="Ellipse_315" data-name="Ellipse 315" cx="10.984" cy="10.984" r="10.984" transform="translate(61.191 67.46) rotate(-2.75)" fill="#f8b9bf"/>
    <path id="Path_3233" data-name="Path 3233" d="M253,375.14s3.475,16.461,7.578,18.142,2.243,2.039,2.243,2.039" transform="translate(-185.986 -263.16)" opacity="0.1"/>
    <path id="Path_3234" data-name="Path 3234" d="M284.864,397.241s-2.9.908-6.284-3.431" transform="translate(-203.529 -275.964)" opacity="0.1"/>
    <circle id="Ellipse_316" data-name="Ellipse 316" cx="5.027" cy="5.027" r="5.027" transform="translate(54.446 57.58)" fill="#fa595f"/>
    <path id="Path_3235" data-name="Path 3235" d="M213.781,211.438a5.027,5.027,0,0,1,0-6.878c-.082.066-.163.132-.239.2a5.028,5.028,0,0,0,6.887,7.327c.079-.072.148-.151.217-.226A5.027,5.027,0,0,1,213.781,211.438Z" transform="translate(-157.839 -146.176)" fill="#fa595f"/>
    <path id="Path_3236" data-name="Path 3236" d="M215.351,221.517a5.027,5.027,0,0,1-5.291-4.4v.314A5.028,5.028,0,0,0,220.1,216.8a2.667,2.667,0,0,0-.035-.314A5.027,5.027,0,0,1,215.351,221.517Z" transform="translate(-156.538 -154.357)" fill="#fa595f"/>
    <path id="Path_3237" data-name="Path 3237" d="M245.633,225.85a22.514,22.514,0,0,0,3.77,1.1,4.674,4.674,0,0,1,3.092,2.218c.405.873.358,1.907.782,2.771.61,1.257,2.017,1.835,3.312,2.328-1.112,1.492-3.5,1.087-5.059.072s-2.9-2.514-4.713-2.906a4.424,4.424,0,0,0-4.653,2.071,11.172,11.172,0,0,0-.917,2.853,10.7,10.7,0,0,1-4.085,6.538c-2.2,1.448-5.476,1.439-7.2-.544a8.9,8.9,0,0,1-1.64-4.232,8.6,8.6,0,0,1-.242-2.14c.1-1.8,1.3-3.34,2.514-4.678,1.43-1.571,2.95-3.079,4.471-4.578,1.313-1.294,2.828-3.488,4.807-3.642C242.151,222.9,243.763,224.936,245.633,225.85Z" transform="translate(-168.894 -158.872)" opacity="0.1"/>
    <path id="Path_3238" data-name="Path 3238" d="M244.633,224.85a22.518,22.518,0,0,0,3.77,1.1,4.673,4.673,0,0,1,3.092,2.218c.405.873.358,1.907.782,2.771.61,1.257,2.017,1.835,3.312,2.328-1.112,1.492-3.5,1.087-5.059.072s-2.9-2.514-4.713-2.906a4.424,4.424,0,0,0-4.653,2.071,11.176,11.176,0,0,0-.917,2.853,10.7,10.7,0,0,1-4.085,6.538c-2.2,1.448-5.477,1.439-7.2-.544a8.9,8.9,0,0,1-1.64-4.232,8.6,8.6,0,0,1-.242-2.14c.1-1.8,1.3-3.34,2.514-4.678,1.43-1.571,2.95-3.079,4.471-4.578,1.313-1.294,2.828-3.488,4.807-3.642C241.151,221.9,242.763,223.936,244.633,224.85Z" transform="translate(-168.208 -158.187)" fill="#fa595f"/>
    <rect id="Rectangle_1742" data-name="Rectangle 1742" width="35.828" height="5.536" rx="2.768" transform="translate(44.48 136.444)" fill="#d6d6e3"/>
    <path id="Path_3239" data-name="Path 3239" d="M181.28,462v.437a2.278,2.278,0,0,0,2.278,2.278H214.83a2.278,2.278,0,0,0,2.278-2.278V462Z" transform="translate(-136.8 -322.729)" opacity="0.1"/>
    <rect id="Rectangle_1743" data-name="Rectangle 1743" width="6.161" height="78.496" transform="translate(107.574 142.216)" fill="#d6d6e3"/>
    <rect id="Rectangle_1744" data-name="Rectangle 1744" width="6.161" height="5.09" transform="translate(107.574 142.216)" opacity="0.1"/>
    <rect id="Rectangle_1745" data-name="Rectangle 1745" width="162.887" height="10.18" transform="translate(104.627 136.588)" fill="#d6d6e3"/>
  </g>
</svg>
