<svg width="48" height="48" viewBox="0 0 48 48" fill="none" xmlns="http://www.w3.org/2000/svg">
<g id="warning-circle-fill">
<path id="Vector" d="M24 4.5C20.1433 4.5 16.3731 5.64366 13.1664 7.78634C9.95963 9.92903 7.46027 12.9745 5.98436 16.5377C4.50845 20.1008 4.12228 24.0216 4.8747 27.8043C5.62711 31.5869 7.4843 35.0615 10.2114 37.7886C12.9386 40.5157 16.4131 42.3729 20.1957 43.1253C23.9784 43.8777 27.8992 43.4916 31.4623 42.0156C35.0255 40.5397 38.071 38.0404 40.2137 34.8336C42.3564 31.6269 43.5 27.8567 43.5 24C43.4945 18.83 41.4383 13.8732 37.7826 10.2174C34.1268 6.56167 29.1701 4.50546 24 4.5ZM22.5 15C22.5 14.6022 22.658 14.2206 22.9393 13.9393C23.2207 13.658 23.6022 13.5 24 13.5C24.3978 13.5 24.7794 13.658 25.0607 13.9393C25.342 14.2206 25.5 14.6022 25.5 15V25.5C25.5 25.8978 25.342 26.2794 25.0607 26.5607C24.7794 26.842 24.3978 27 24 27C23.6022 27 23.2207 26.842 22.9393 26.5607C22.658 26.2794 22.5 25.8978 22.5 25.5V15ZM24 34.5C23.555 34.5 23.12 34.368 22.75 34.1208C22.38 33.8736 22.0916 33.5222 21.9213 33.111C21.751 32.6999 21.7064 32.2475 21.7932 31.811C21.8801 31.3746 22.0944 30.9737 22.409 30.659C22.7237 30.3443 23.1246 30.13 23.5611 30.0432C23.9975 29.9564 24.4499 30.001 24.861 30.1713C25.2722 30.3416 25.6236 30.63 25.8708 31C26.118 31.37 26.25 31.805 26.25 32.25C26.25 32.8467 26.013 33.419 25.591 33.841C25.169 34.2629 24.5967 34.5 24 34.5Z" fill="#FEC634"/>
</g>
</svg>
