<?xml version="1.0" encoding="utf-8"?>
<svg viewBox="0 0 62 62" xmlns="http://www.w3.org/2000/svg">
  <defs>
    <filter id="Rectangle_339" x="0" y="0" width="62" height="62" filterUnits="userSpaceOnUse">
      <feOffset dy="3" input="SourceAlpha"/>
      <feGaussianBlur stdDeviation="3" result="blur"/>
      <feFlood flood-opacity="0.161"/>
      <feComposite operator="in" in2="blur"/>
      <feComposite in="SourceGraphic"/>
    </filter>
  </defs>
  <g filter="url(#Rectangle_339)">
    <g id="Rectangle_339-2" data-name="Rectangle 339" transform="translate(9 6)" fill="#fff" stroke="#074c85" stroke-width="1">
      <rect width="44" height="44" rx="12" stroke="none"/>
      <rect x="0.5" y="0.5" width="43" height="43" rx="11.5" fill="none"/>
    </g>
  </g>
  <g id="Icon_feather-home" data-name="Icon feather-home" transform="matrix(1, 0, 0, 1, 19.498367, 15.813)">
    <path id="Path_806" data-name="Path 806" d="M11,4H4A2,2,0,0,0,2,6V20a2,2,0,0,0,2,2H18a2,2,0,0,0,2-2V13" fill="none" stroke="#074c85" stroke-linecap="round" stroke-linejoin="round" stroke-width="1"/>
    <path id="Path_807" data-name="Path 807" d="M18.5,2.5a2.121,2.121,0,0,1,3,3L12,15,8,16l1-4Z" fill="none" stroke="#074c85" stroke-linecap="round" stroke-linejoin="round" stroke-width="1"/>
  </g>
</svg>