<svg xmlns="http://www.w3.org/2000/svg" xmlns:xlink="http://www.w3.org/1999/xlink" width="62" height="62" viewBox="0 0 62 62">
  <defs>
    <filter id="Rectangle_263" x="0" y="0" width="62" height="62" filterUnits="userSpaceOnUse">
      <feOffset dy="3" input="SourceAlpha"/>
      <feGaussianBlur stdDeviation="3" result="blur"/>
      <feFlood flood-opacity="0.161"/>
      <feComposite operator="in" in2="blur"/>
      <feComposite in="SourceGraphic"/>
    </filter>
  </defs>
  <g transform="matrix(1, 0, 0, 1, 0, 0)" filter="url(#Rectangle_263)">
    <g id="Rectangle_263-2" data-name="Rectangle 263" transform="translate(9 6)" fill="#004883" stroke="#074c85" stroke-width="1">
      <rect width="44" height="44" rx="12" stroke="none"/>
      <rect x="0.5" y="0.5" width="43" height="43" rx="11.5" fill="none"/>
    </g>
  </g>
  <g id="Icon_feather-users" data-name="Icon feather-users" transform="translate(16.377 11.906)">
    <path id="Path_54" data-name="Path 54" d="M20.5,29.624V27.25a4.75,4.75,0,0,0-4.75-4.75H6.25A4.75,4.75,0,0,0,1.5,27.25v2.375" transform="translate(0 -3.751)" fill="none" stroke="#fff" stroke-linecap="round" stroke-linejoin="round" stroke-width="1"/>
    <path id="Path_55" data-name="Path 55" d="M17,9.25A4.75,4.75,0,1,1,12.25,4.5,4.75,4.75,0,0,1,17,9.25Z" transform="translate(-1.25)" fill="none" stroke="#fff" stroke-linecap="round" stroke-linejoin="round" stroke-width="1"/>
    <path id="Path_56" data-name="Path 56" d="M33.562,29.665V27.29A4.75,4.75,0,0,0,30,22.7" transform="translate(-5.939 -3.792)" fill="none" stroke="#fff" stroke-linecap="round" stroke-linejoin="round" stroke-width="1"/>
    <path id="Path_57" data-name="Path 57" d="M24,4.7a4.75,4.75,0,0,1,0,9.2" transform="translate(-4.689 -0.041)" fill="none" stroke="#fff" stroke-linecap="round" stroke-linejoin="round" stroke-width="1"/>
  </g>
</svg>
