<svg xmlns="http://www.w3.org/2000/svg" xmlns:xlink="http://www.w3.org/1999/xlink" width="62" height="62" viewBox="0 0 62 62">
  <defs>
    <filter id="Rectangle_266" x="0" y="0" width="62" height="62" filterUnits="userSpaceOnUse">
      <feOffset dy="3" input="SourceAlpha"/>
      <feGaussianBlur stdDeviation="3" result="blur"/>
      <feFlood flood-opacity="0.161"/>
      <feComposite operator="in" in2="blur"/>
      <feComposite in="SourceGraphic"/>
    </filter>
  </defs>
  <g transform="matrix(1, 0, 0, 1, 0, 0)" filter="url(#Rectangle_266)">
    <g id="Rectangle_266-2" data-name="Rectangle 266" transform="translate(9 6)" fill="#fff" stroke="#074c85" stroke-width="1">
      <rect width="44" height="44" rx="12" stroke="none"/>
      <rect x="0.5" y="0.5" width="43" height="43" rx="11.5" fill="none"/>
    </g>
  </g>
  <g id="Icon_feather-file-text" data-name="Icon feather-file-text" transform="translate(13 9)">
    <path id="Path_377" data-name="Path 377" d="M21,3H9A3,3,0,0,0,6,6V30a3,3,0,0,0,3,3H27a3,3,0,0,0,3-3V12Z" fill="none" stroke="#074c85" stroke-linecap="round" stroke-linejoin="round" stroke-width="1"/>
    <path id="Path_378" data-name="Path 378" d="M21,3v9h9" fill="none" stroke="#074c85" stroke-linecap="round" stroke-linejoin="round" stroke-width="1"/>
    <path id="Path_379" data-name="Path 379" d="M24,19.5H12" fill="none" stroke="#074c85" stroke-linecap="round" stroke-linejoin="round" stroke-width="1"/>
    <path id="Path_380" data-name="Path 380" d="M24,25.5H12" fill="none" stroke="#074c85" stroke-linecap="round" stroke-linejoin="round" stroke-width="1"/>
    <path id="Path_381" data-name="Path 381" d="M15,13.5H12" fill="none" stroke="#074c85" stroke-linecap="round" stroke-linejoin="round" stroke-width="1"/>
  </g>
</svg>
