<svg xmlns="http://www.w3.org/2000/svg" width="24.674" height="24.775" viewBox="0 0 24.674 24.775">
  <g id="Group_534" data-name="Group 534" transform="translate(5762.535 14606.515)">
    <path id="Path_829" data-name="Path 829" d="M7.221,11.519h.934V9.631h.951l1.012,1.888h1.042L10.046,9.475a1.462,1.462,0,0,0,.926-1.462A1.6,1.6,0,0,0,9.155,6.364H7.221Zm.934-2.663V7.144h.856c.7,0,1.009.32,1.009.868s-.312.843-1,.843Zm3.637,4.113H12.7V10.909h.038a1.165,1.165,0,0,0,1.108.677c.911,0,1.593-.722,1.593-2,0-1.289-.7-1.988-1.6-1.988a1.147,1.147,0,0,0-1.1.69h-.053V7.652h-.9Zm.894-3.383c0-.75.322-1.236.909-1.236.607,0,.919.516.919,1.236s-.317,1.253-.919,1.253C13.013,10.839,12.686,10.336,12.686,9.585Z" transform="translate(-5761.345 -14606.241)" fill="#fff"/>
    <g id="Group_513" data-name="Group 513" transform="translate(-5762.077 -14606.015)">
      <path id="Path_825" data-name="Path 825" d="M-5749.933-14606.016h17.44v14.506l-8.6,5.361-8.841-5.361Z" transform="translate(5753.122 14606.016)" fill="none" stroke="#fff" stroke-width="1"/>
      <path id="Path_826" data-name="Path 826" d="M-5758.77-14577.781l-3.146,2.381v13.982h23.674v-13.982l-3.018-2.381" transform="translate(5761.958 14585.193)" fill="none" stroke="#fff" stroke-width="1"/>
      <path id="Path_827" data-name="Path 827" d="M-5758.89-14556.072l-3.188-1.957" transform="translate(5762.078 14570.627)" fill="none" stroke="#fff" stroke-width="1"/>
      <path id="Path_828" data-name="Path 828" d="M-5683.5-14555.954l3-1.914" transform="translate(5704.127 14570.508)" fill="none" stroke="#fff" stroke-width="1"/>
    </g>
  </g>
</svg>
