<svg xmlns="http://www.w3.org/2000/svg" width="64.199" height="65.5" viewBox="0 0 64.199 65.5">
  <g id="Group_162" data-name="Group 162" transform="translate(-462.801 -264.5)">
    <g id="Group_161" data-name="Group 161">
      <g id="Icon_feather-file" data-name="Icon feather-file" transform="translate(457.801 262.5)">
        <path id="Path_391" data-name="Path 391" d="M30.124,3H11.361A5.361,5.361,0,0,0,6,8.361V51.248a5.361,5.361,0,0,0,5.361,5.361H43.526a5.361,5.361,0,0,0,5.361-5.361V21.763Z" fill="none" stroke="#074c85" stroke-linecap="round" stroke-linejoin="round" stroke-width="2"/>
        <path id="Path_392" data-name="Path 392" d="M19.5,3V21.763H38.263" transform="translate(10.624)" fill="none" stroke="#074c85" stroke-linecap="round" stroke-linejoin="round" stroke-width="2"/>
      </g>
      <g id="Ellipse_56" data-name="Ellipse 56" transform="translate(487 290)" fill="#fff" stroke="#074c85" stroke-width="2">
        <circle cx="20" cy="20" r="20" stroke="none"/>
        <circle cx="20" cy="20" r="19" fill="none"/>
      </g>
    </g>
    <g id="Icon_feather-dollar-sign" data-name="Icon feather-dollar-sign" transform="translate(489.801 294)">
      <path id="Path_60" data-name="Path 60" d="M18,1.5V29.874" transform="translate(-1.262 0)" fill="none" stroke="#074c85" stroke-linecap="round" stroke-linejoin="round" stroke-width="2"/>
      <path id="Path_61" data-name="Path 61" d="M23.187,7.5H13.514a4.514,4.514,0,0,0,0,9.028h6.449a4.514,4.514,0,0,1,0,9.028H9" transform="translate(0 -0.841)" fill="none" stroke="#074c85" stroke-linecap="round" stroke-linejoin="round" stroke-width="2"/>
    </g>
  </g>
</svg>
