<svg xmlns="http://www.w3.org/2000/svg" width="62.537" height="64.512" viewBox="0 0 62.537 64.512">
  <g id="Group_164" data-name="Group 164" transform="translate(-464.463 -586.488)">
    <g id="Icon_feather-rotate-cw" data-name="Icon feather-rotate-cw" transform="translate(460.98 582.998)">
      <path id="Path_398" data-name="Path 398" d="M38.557,6V19.057H25.5" transform="translate(9.463 0.675)" fill="none" stroke="#074c85" stroke-linecap="round" stroke-linejoin="round" stroke-width="2"/>
      <path id="Path_399" data-name="Path 399" d="M42.558,30.612a19.585,19.585,0,1,1-4.613-20.368L48.02,19.731" transform="translate(0 0)" fill="none" stroke="#074c85" stroke-linecap="round" stroke-linejoin="round" stroke-width="2"/>
    </g>
    <g id="Ellipse_58" data-name="Ellipse 58" transform="translate(487 611)" fill="#fff" stroke="#074c85" stroke-width="2">
      <circle cx="20" cy="20" r="20" stroke="none"/>
      <circle cx="20" cy="20" r="19" fill="none"/>
    </g>
    <g id="Icon_feather-dollar-sign" data-name="Icon feather-dollar-sign" transform="translate(489.801 615)">
      <path id="Path_60" data-name="Path 60" d="M18,1.5V29.874" transform="translate(-1.262 0)" fill="none" stroke="#074c85" stroke-linecap="round" stroke-linejoin="round" stroke-width="2"/>
      <path id="Path_61" data-name="Path 61" d="M23.187,7.5H13.514a4.514,4.514,0,0,0,0,9.028h6.449a4.514,4.514,0,0,1,0,9.028H9" transform="translate(0 -0.841)" fill="none" stroke="#074c85" stroke-linecap="round" stroke-linejoin="round" stroke-width="2"/>
    </g>
  </g>
</svg>
