<svg xmlns="http://www.w3.org/2000/svg" width="66.995" height="70.324" viewBox="0 0 66.995 70.324">
  <g id="Group_465" data-name="Group 465" transform="translate(-434 -1984)">
    <g id="Icon_feather-file-text" data-name="Icon feather-file-text" transform="translate(429 1982)">
      <path id="Path_351" data-name="Path 351" d="M34,3H11.6A5.6,5.6,0,0,0,6,8.6V53.4A5.6,5.6,0,0,0,11.6,59H45.2a5.6,5.6,0,0,0,5.6-5.6V19.8Z" fill="none" stroke="#0f5289" stroke-linecap="round" stroke-linejoin="round" stroke-width="2"/>
      <path id="Path_352" data-name="Path 352" d="M21,3V19.8H37.8" transform="translate(13)" fill="none" stroke="#0f5289" stroke-linecap="round" stroke-linejoin="round" stroke-width="2"/>
      <path id="Path_353" data-name="Path 353" d="M34.4,19.5H12" transform="translate(5.2 14.301)" fill="none" stroke="#0f5289" stroke-linecap="round" stroke-linejoin="round" stroke-width="2"/>
      <path id="Path_354" data-name="Path 354" d="M34.4,25.5H12" transform="translate(5.2 19.501)" fill="none" stroke="#0f5289" stroke-linecap="round" stroke-linejoin="round" stroke-width="2"/>
      <path id="Path_355" data-name="Path 355" d="M17.6,13.5H12" transform="translate(5.2 9.1)" fill="none" stroke="#0f5289" stroke-linecap="round" stroke-linejoin="round" stroke-width="2"/>
    </g>
    <g id="Icon_feather-clock" data-name="Icon feather-clock" transform="translate(456.802 2010.131)">
      <path id="Path_58" data-name="Path 58" d="M43.193,23.1A20.1,20.1,0,1,1,23.1,3,20.1,20.1,0,0,1,43.193,23.1Z" transform="translate(0 0)" fill="#fff" stroke="#0f5289" stroke-linecap="round" stroke-linejoin="round" stroke-width="2"/>
    </g>
    <g id="Icon_feather-users" data-name="Icon feather-users" transform="translate(468.646 2020.672)">
      <path id="Path_54" data-name="Path 54" d="M15.208,27.641V25.927A3.427,3.427,0,0,0,11.781,22.5H4.927A3.427,3.427,0,0,0,1.5,25.927v1.714" transform="translate(0 -7.719)" fill="none" stroke="#0f5289" stroke-linecap="round" stroke-linejoin="round" stroke-width="2"/>
      <path id="Path_55" data-name="Path 55" d="M14.354,7.927A3.427,3.427,0,1,1,10.927,4.5,3.427,3.427,0,0,1,14.354,7.927Z" transform="translate(-2.573 0)" fill="none" stroke="#0f5289" stroke-linecap="round" stroke-linejoin="round" stroke-width="2"/>
      <path id="Path_56" data-name="Path 56" d="M32.57,27.724V26.011A3.427,3.427,0,0,0,30,22.7" transform="translate(-12.221 -7.802)" fill="none" stroke="#0f5289" stroke-linecap="round" stroke-linejoin="round" stroke-width="2"/>
      <path id="Path_57" data-name="Path 57" d="M24,4.7a3.427,3.427,0,0,1,0,6.64" transform="translate(-9.648 -0.084)" fill="none" stroke="#0f5289" stroke-linecap="round" stroke-linejoin="round" stroke-width="2"/>
    </g>
  </g>
</svg>
