<svg xmlns="http://www.w3.org/2000/svg" width="64.199" height="65.5" viewBox="0 0 64.199 65.5">
  <g id="Group_162" data-name="Group 162" transform="translate(-462.801 -264.5)">
    <g id="Group_161" data-name="Group 161">
      <g id="Icon_feather-file" data-name="Icon feather-file" transform="translate(457.801 262.5)">
        <path id="Path_391" data-name="Path 391" d="M30.124,3H11.361A5.361,5.361,0,0,0,6,8.361V51.248a5.361,5.361,0,0,0,5.361,5.361H43.526a5.361,5.361,0,0,0,5.361-5.361V21.763Z" fill="none" stroke="#074c85" stroke-linecap="round" stroke-linejoin="round" stroke-width="2"/>
        <path id="Path_392" data-name="Path 392" d="M19.5,3V21.763H38.263" transform="translate(10.624)" fill="none" stroke="#074c85" stroke-linecap="round" stroke-linejoin="round" stroke-width="2"/>
      </g>
      <g id="Ellipse_56" data-name="Ellipse 56" transform="translate(487 290)" fill="#fff" stroke="#074c85" stroke-width="2">
        <circle cx="20" cy="20" r="20" stroke="none"/>
        <circle cx="20" cy="20" r="19" fill="none"/>
      </g>
    </g>
    <g id="Icon_feather-users" data-name="Icon feather-users" transform="translate(494.377 295.906)">
      <path id="Path_54" data-name="Path 54" d="M17.44,28.478V26.485A3.985,3.985,0,0,0,13.455,22.5H5.485A3.985,3.985,0,0,0,1.5,26.485v1.993" transform="translate(0 -6.045)" fill="none" stroke="#074c85" stroke-linecap="round" stroke-linejoin="round" stroke-width="2"/>
      <path id="Path_55" data-name="Path 55" d="M15.47,8.485A3.985,3.985,0,1,1,11.485,4.5,3.985,3.985,0,0,1,15.47,8.485Z" transform="translate(-2.015)" fill="none" stroke="#074c85" stroke-linecap="round" stroke-linejoin="round" stroke-width="2"/>
      <path id="Path_56" data-name="Path 56" d="M32.989,28.543V26.551A3.985,3.985,0,0,0,30,22.7" transform="translate(-9.571 -6.11)" fill="none" stroke="#074c85" stroke-linecap="round" stroke-linejoin="round" stroke-width="2"/>
      <path id="Path_57" data-name="Path 57" d="M24,4.7a3.985,3.985,0,0,1,0,7.721" transform="translate(-7.556 -0.065)" fill="none" stroke="#074c85" stroke-linecap="round" stroke-linejoin="round" stroke-width="2"/>
    </g>
  </g>
</svg>
