<svg xmlns="http://www.w3.org/2000/svg" width="64" height="60" viewBox="0 0 64 60">
  <g id="Group_438" data-name="Group 438" transform="translate(-463 -419)">
    <g id="Group_160" data-name="Group 160">
      <g id="Icon_feather-settings" data-name="Icon feather-settings" transform="translate(462.5 418.5)">
        <path id="Path_393" data-name="Path 393" d="M25.1,19.3a5.8,5.8,0,1,1-5.8-5.8A5.8,5.8,0,0,1,25.1,19.3Z" transform="translate(3.469 3.469)" fill="none" stroke="#074c85" stroke-linecap="round" stroke-linejoin="round" stroke-width="2"/>
        <path id="Path_394" data-name="Path 394" d="M37.078,28.57a3.19,3.19,0,0,0,.638,3.519l.116.116a3.869,3.869,0,1,1-5.472,5.472l-.116-.116a3.216,3.216,0,0,0-5.453,2.282v.329a3.867,3.867,0,1,1-7.734,0V40a3.19,3.19,0,0,0-2.088-2.92,3.19,3.19,0,0,0-3.519.638l-.116.116A3.869,3.869,0,1,1,7.862,32.36l.116-.116A3.216,3.216,0,0,0,5.7,26.791H5.367a3.867,3.867,0,1,1,0-7.734h.174a3.19,3.19,0,0,0,2.92-2.088,3.19,3.19,0,0,0-.638-3.519l-.116-.116a3.869,3.869,0,1,1,5.472-5.472l.116.116a3.19,3.19,0,0,0,3.519.638h.155A3.19,3.19,0,0,0,18.9,5.7V5.367a3.867,3.867,0,1,1,7.734,0v.174a3.216,3.216,0,0,0,5.453,2.282l.116-.116a3.869,3.869,0,1,1,5.472,5.472l-.116.116a3.19,3.19,0,0,0-.638,3.519v.155a3.19,3.19,0,0,0,2.92,1.934h.329a3.867,3.867,0,1,1,0,7.734H40a3.19,3.19,0,0,0-2.92,1.934Z" transform="translate(0 0)" fill="none" stroke="#074c85" stroke-linecap="round" stroke-linejoin="round" stroke-width="2"/>
      </g>
      <g id="Ellipse_57" data-name="Ellipse 57" transform="translate(487 439)" fill="#fff" stroke="#074c85" stroke-width="2">
        <circle cx="20" cy="20" r="20" stroke="none"/>
        <circle cx="20" cy="20" r="19" fill="none"/>
      </g>
    </g>
    <g id="Icon_feather-users" data-name="Icon feather-users" transform="translate(494.377 444.906)">
      <path id="Path_54" data-name="Path 54" d="M17.44,28.478V26.485A3.985,3.985,0,0,0,13.455,22.5H5.485A3.985,3.985,0,0,0,1.5,26.485v1.993" transform="translate(0 -6.045)" fill="none" stroke="#074c85" stroke-linecap="round" stroke-linejoin="round" stroke-width="2"/>
      <path id="Path_55" data-name="Path 55" d="M15.47,8.485A3.985,3.985,0,1,1,11.485,4.5,3.985,3.985,0,0,1,15.47,8.485Z" transform="translate(-2.015)" fill="none" stroke="#074c85" stroke-linecap="round" stroke-linejoin="round" stroke-width="2"/>
      <path id="Path_56" data-name="Path 56" d="M32.989,28.543V26.551A3.985,3.985,0,0,0,30,22.7" transform="translate(-9.571 -6.11)" fill="none" stroke="#074c85" stroke-linecap="round" stroke-linejoin="round" stroke-width="2"/>
      <path id="Path_57" data-name="Path 57" d="M24,4.7a3.985,3.985,0,0,1,0,7.721" transform="translate(-7.556 -0.065)" fill="none" stroke="#074c85" stroke-linecap="round" stroke-linejoin="round" stroke-width="2"/>
    </g>
  </g>
</svg>
