<svg xmlns="http://www.w3.org/2000/svg" width="64.872" height="66.5" viewBox="0 0 64.872 66.5">
  <g id="Group_448" data-name="Group 448" transform="translate(-462.801 -264.5)">
    <g id="Group_161" data-name="Group 161">
      <g id="Icon_feather-file" data-name="Icon feather-file" transform="translate(457.801 262.5)">
        <path id="Path_391" data-name="Path 391" d="M30.124,3H11.361A5.361,5.361,0,0,0,6,8.361V51.248a5.361,5.361,0,0,0,5.361,5.361H43.526a5.361,5.361,0,0,0,5.361-5.361V21.763Z" fill="none" stroke="#074c85" stroke-linecap="round" stroke-linejoin="round" stroke-width="2"/>
        <path id="Path_392" data-name="Path 392" d="M19.5,3V21.763H38.263" transform="translate(10.624)" fill="none" stroke="#074c85" stroke-linecap="round" stroke-linejoin="round" stroke-width="2"/>
      </g>
    </g>
    <path id="Path_469" data-name="Path 469" d="M42.094,22.547A19.547,19.547,0,1,1,22.547,3,19.547,19.547,0,0,1,42.094,22.547Z" transform="translate(484.578 287.906)" fill="#fff" stroke="#074c85" stroke-linecap="round" stroke-width="2"/>
    <path id="Path_470" data-name="Path 470" d="M18,9V23.07l9.38,4.69" transform="translate(489.125 291.725)" fill="#fff" stroke="#074c85" stroke-linecap="round" stroke-width="2"/>
  </g>
</svg>
