<svg xmlns="http://www.w3.org/2000/svg" width="63.672" height="61" viewBox="0 0 63.672 61">
  <g id="Group_163" data-name="Group 163" transform="translate(-463 -419)">
    <g id="Group_160" data-name="Group 160">
      <g id="Icon_feather-settings" data-name="Icon feather-settings" transform="translate(462.5 418.5)">
        <path id="Path_393" data-name="Path 393" d="M25.1,19.3a5.8,5.8,0,1,1-5.8-5.8A5.8,5.8,0,0,1,25.1,19.3Z" transform="translate(3.469 3.469)" fill="none" stroke="#074c85" stroke-linecap="round" stroke-linejoin="round" stroke-width="2"/>
        <path id="Path_394" data-name="Path 394" d="M37.078,28.57a3.19,3.19,0,0,0,.638,3.519l.116.116a3.869,3.869,0,1,1-5.472,5.472l-.116-.116a3.216,3.216,0,0,0-5.453,2.282v.329a3.867,3.867,0,1,1-7.734,0V40a3.19,3.19,0,0,0-2.088-2.92,3.19,3.19,0,0,0-3.519.638l-.116.116A3.869,3.869,0,1,1,7.862,32.36l.116-.116A3.216,3.216,0,0,0,5.7,26.791H5.367a3.867,3.867,0,1,1,0-7.734h.174a3.19,3.19,0,0,0,2.92-2.088,3.19,3.19,0,0,0-.638-3.519l-.116-.116a3.869,3.869,0,1,1,5.472-5.472l.116.116a3.19,3.19,0,0,0,3.519.638h.155A3.19,3.19,0,0,0,18.9,5.7V5.367a3.867,3.867,0,1,1,7.734,0v.174a3.216,3.216,0,0,0,5.453,2.282l.116-.116a3.869,3.869,0,1,1,5.472,5.472l-.116.116a3.19,3.19,0,0,0-.638,3.519v.155a3.19,3.19,0,0,0,2.92,1.934h.329a3.867,3.867,0,1,1,0,7.734H40a3.19,3.19,0,0,0-2.92,1.934Z" transform="translate(0 0)" fill="none" stroke="#074c85" stroke-linecap="round" stroke-linejoin="round" stroke-width="2"/>
      </g>
      <path id="Path_471" data-name="Path 471" d="M42.094,22.547A19.547,19.547,0,1,1,22.547,3,19.547,19.547,0,0,1,42.094,22.547Z" transform="translate(483.578 436.906)" fill="#fff" stroke="#074c85" stroke-linecap="round" stroke-width="2"/>
      <path id="Path_472" data-name="Path 472" d="M18,9V23.07l9.38,4.69" transform="translate(488.125 440.725)" fill="#fff" stroke="#074c85" stroke-linecap="round" stroke-width="2"/>
    </g>
  </g>
</svg>
