<svg width="25" height="24" viewBox="0 0 25 24" fill="none" xmlns="http://www.w3.org/2000/svg">
<path d="M17.2208 15.5306L15.5014 13.8103V19.5C15.5014 19.6989 15.4224 19.8897 15.2817 20.0303C15.1411 20.171 14.9503 20.25 14.7514 20.25C14.5525 20.25 14.3617 20.171 14.221 20.0303C14.0804 19.8897 14.0014 19.6989 14.0014 19.5V13.8103L12.282 15.5306C12.2123 15.6003 12.1296 15.6556 12.0386 15.6933C11.9475 15.731 11.8499 15.7504 11.7514 15.7504C11.6528 15.7504 11.5553 15.731 11.4642 15.6933C11.3732 15.6556 11.2904 15.6003 11.2208 15.5306C11.1511 15.4609 11.0958 15.3782 11.0581 15.2872C11.0204 15.1961 11.001 15.0985 11.001 15C11.001 14.9015 11.0204 14.8039 11.0581 14.7128C11.0958 14.6218 11.1511 14.5391 11.2208 14.4694L14.2208 11.4694C14.2904 11.3996 14.3731 11.3443 14.4642 11.3066C14.5552 11.2688 14.6528 11.2494 14.7514 11.2494C14.8499 11.2494 14.9475 11.2688 15.0386 11.3066C15.1296 11.3443 15.2123 11.3996 15.282 11.4694L18.282 14.4694C18.3517 14.5391 18.407 14.6218 18.4447 14.7128C18.4824 14.8039 18.5018 14.9015 18.5018 15C18.5018 15.0985 18.4824 15.1961 18.4447 15.2872C18.407 15.3782 18.3517 15.4609 18.282 15.5306C18.2123 15.6003 18.1296 15.6556 18.0386 15.6933C17.9475 15.731 17.8499 15.7504 17.7514 15.7504C17.6528 15.7504 17.5553 15.731 17.4642 15.6933C17.3732 15.6556 17.2904 15.6003 17.2208 15.5306ZM15.5014 3.75C13.9691 3.75116 12.4673 4.17864 11.1642 4.98463C9.86096 5.79061 8.80774 6.94331 8.12232 8.31375C7.30624 8.19383 6.47421 8.24346 5.67818 8.45954C4.88215 8.67563 4.13923 9.05352 3.4958 9.56962C2.85238 10.0857 2.32228 10.7289 1.9386 11.4591C1.55493 12.1893 1.32593 12.9907 1.26591 13.8134C1.20588 14.636 1.31612 15.4622 1.58974 16.2403C1.86336 17.0185 2.29447 17.7318 2.85617 18.3359C3.41786 18.9399 4.09806 19.4216 4.85429 19.751C5.61053 20.0803 6.42654 20.2502 7.25138 20.25H11.0014C11.2003 20.25 11.3911 20.171 11.5317 20.0303C11.6724 19.8897 11.7514 19.6989 11.7514 19.5C11.7514 19.3011 11.6724 19.1103 11.5317 18.9697C11.3911 18.829 11.2003 18.75 11.0014 18.75H7.25138C6.0579 18.75 4.91331 18.2759 4.0694 17.432C3.22548 16.5881 2.75138 15.4435 2.75138 14.25C2.75138 13.0565 3.22548 11.9119 4.0694 11.068C4.91331 10.2241 6.0579 9.75 7.25138 9.75C7.3545 9.75 7.45763 9.75 7.55982 9.76125C7.3548 10.4898 7.25101 11.2431 7.25138 12C7.25138 12.1989 7.3304 12.3897 7.47105 12.5303C7.6117 12.671 7.80247 12.75 8.00138 12.75C8.20029 12.75 8.39106 12.671 8.53171 12.5303C8.67236 12.3897 8.75138 12.1989 8.75138 12C8.75156 10.7831 9.08072 9.58886 9.70402 8.54369C10.3273 7.49852 11.2216 6.64129 12.2922 6.06272C13.3627 5.48415 14.5698 5.20576 15.7856 5.25701C17.0015 5.30826 18.1808 5.68724 19.1989 6.35385C20.217 7.02046 21.036 7.94989 21.5691 9.04381C22.1022 10.1377 22.3297 11.3554 22.2275 12.568C22.1253 13.7806 21.6972 14.9431 20.9884 15.9323C20.2797 16.9215 19.3167 17.7007 18.2014 18.1875C18.043 18.2562 17.9132 18.3773 17.8338 18.5306C17.7543 18.6839 17.7302 18.8598 17.7655 19.0288C17.8007 19.1978 17.8932 19.3494 18.0272 19.4581C18.1613 19.5669 18.3288 19.626 18.5014 19.6256C18.6047 19.6255 18.7069 19.6038 18.8014 19.5619C20.5389 18.804 21.9624 17.4708 22.8325 15.7867C23.7025 14.1025 23.9661 12.1701 23.5788 10.3145C23.1915 8.45888 22.177 6.79322 20.706 5.59768C19.2349 4.40215 17.397 3.74967 15.5014 3.75Z" fill="#1A7AD0"/>
</svg>
