<svg width="21" height="21" viewBox="0 0 21 21" fill="none" xmlns="http://www.w3.org/2000/svg">
<g id="x-regular">
<path id="Vector" d="M16.5675 15.6832C16.6256 15.7412 16.6717 15.8102 16.7031 15.886C16.7345 15.9619 16.7507 16.0432 16.7507 16.1253C16.7507 16.2075 16.7345 16.2888 16.7031 16.3647C16.6717 16.4405 16.6256 16.5095 16.5675 16.5675C16.5095 16.6256 16.4405 16.6717 16.3647 16.7031C16.2888 16.7345 16.2075 16.7507 16.1253 16.7507C16.0432 16.7507 15.9619 16.7345 15.886 16.7031C15.8102 16.6717 15.7412 16.6256 15.6832 16.5675L10.5003 11.3839L5.31753 16.5675C5.20026 16.6848 5.0412 16.7507 4.87535 16.7507C4.7095 16.7507 4.55044 16.6848 4.43316 16.5675C4.31588 16.4503 4.25 16.2912 4.25 16.1253C4.25 15.9595 4.31588 15.8004 4.43316 15.6832L9.61675 10.5003L4.43316 5.31753C4.31588 5.20026 4.25 5.0412 4.25 4.87535C4.25 4.7095 4.31588 4.55044 4.43316 4.43316C4.55044 4.31588 4.7095 4.25 4.87535 4.25C5.0412 4.25 5.20026 4.31588 5.31753 4.43316L10.5003 9.61675L15.6832 4.43316C15.8004 4.31588 15.9595 4.25 16.1253 4.25C16.2912 4.25 16.4503 4.31588 16.5675 4.43316C16.6848 4.55044 16.7507 4.7095 16.7507 4.87535C16.7507 5.0412 16.6848 5.20026 16.5675 5.31753L11.3839 10.5003L16.5675 15.6832Z" fill="#8F8F8F"/>
</g>
</svg>
